<svg width="24" height="24" viewBox="0 0 24 24" fill="none" xmlns="http://www.w3.org/2000/svg">
<mask id="mask0_1530_20135" style="mask-type:alpha" maskUnits="userSpaceOnUse" x="0" y="0" width="24" height="24">
<rect width="24" height="23.7919" fill="#D9D9D9"/>
</mask>
<g mask="url(#mask0_1530_20135)">
<path d="M8.144 16.2578L11.6 12.8318L15.056 16.2578L16.4 14.9255L12.944 11.4994L16.4 8.07339L15.056 6.74104L11.6 10.1671L8.144 6.74104L6.8 8.07339L10.256 11.4994L6.8 14.9255L8.144 16.2578ZM11.6 21.0162C10.272 21.0162 9.024 20.7664 7.856 20.2667C6.688 19.7671 5.672 19.089 4.808 18.2325C3.944 17.376 3.26 16.3688 2.756 15.211C2.252 14.0531 2 12.8159 2 11.4994C2 10.1829 2.252 8.94576 2.756 7.78788C3.26 6.63001 3.944 5.62282 4.808 4.76631C5.672 3.9098 6.688 3.23173 7.856 2.7321C9.024 2.23247 10.272 1.98266 11.6 1.98266C12.928 1.98266 14.176 2.23247 15.344 2.7321C16.512 3.23173 17.528 3.9098 18.392 4.76631C19.256 5.62282 19.94 6.63001 20.444 7.78788C20.948 8.94576 21.2 10.1829 21.2 11.4994C21.2 12.8159 20.948 14.0531 20.444 15.211C19.94 16.3688 19.256 17.376 18.392 18.2325C17.528 19.089 16.512 19.7671 15.344 20.2667C14.176 20.7664 12.928 21.0162 11.6 21.0162ZM11.6 19.1128C13.744 19.1128 15.56 18.3753 17.048 16.9002C18.536 15.4251 19.28 13.6248 19.28 11.4994C19.28 9.37401 18.536 7.57376 17.048 6.09866C15.56 4.62356 13.744 3.88601 11.6 3.88601C9.456 3.88601 7.64 4.62356 6.152 6.09866C4.664 7.57376 3.92 9.37401 3.92 11.4994C3.92 13.6248 4.664 15.4251 6.152 16.9002C7.64 18.3753 9.456 19.1128 11.6 19.1128Z" fill="#3E28E8"/>
</g>
</svg>
