<svg width="24" height="24" viewBox="0 0 24 24" fill="none" xmlns="http://www.w3.org/2000/svg">
<mask id="mask0_1437_2298" style="mask-type:alpha" maskUnits="userSpaceOnUse" x="0" y="0" width="24" height="24">
<rect width="24" height="24" fill="#D9D9D9"/>
</mask>
<g mask="url(#mask0_1437_2298)">
<path d="M10.3998 16.6L17.4498 9.55L16.0498 8.15L10.3998 13.8L7.5498 10.95L6.1498 12.35L10.3998 16.6ZM11.7998 22C10.4165 22 9.11647 21.7375 7.8998 21.2125C6.68314 20.6875 5.6248 19.975 4.7248 19.075C3.8248 18.175 3.1123 17.1167 2.5873 15.9C2.0623 14.6833 1.7998 13.3833 1.7998 12C1.7998 10.6167 2.0623 9.31667 2.5873 8.1C3.1123 6.88333 3.8248 5.825 4.7248 4.925C5.6248 4.025 6.68314 3.3125 7.8998 2.7875C9.11647 2.2625 10.4165 2 11.7998 2C13.1831 2 14.4831 2.2625 15.6998 2.7875C16.9165 3.3125 17.9748 4.025 18.8748 4.925C19.7748 5.825 20.4873 6.88333 21.0123 8.1C21.5373 9.31667 21.7998 10.6167 21.7998 12C21.7998 13.3833 21.5373 14.6833 21.0123 15.9C20.4873 17.1167 19.7748 18.175 18.8748 19.075C17.9748 19.975 16.9165 20.6875 15.6998 21.2125C14.4831 21.7375 13.1831 22 11.7998 22ZM11.7998 20C14.0331 20 15.9248 19.225 17.4748 17.675C19.0248 16.125 19.7998 14.2333 19.7998 12C19.7998 9.76667 19.0248 7.875 17.4748 6.325C15.9248 4.775 14.0331 4 11.7998 4C9.56647 4 7.67481 4.775 6.1248 6.325C4.5748 7.875 3.7998 9.76667 3.7998 12C3.7998 14.2333 4.5748 16.125 6.1248 17.675C7.67481 19.225 9.56647 20 11.7998 20Z" fill="#0CB38C"/>
</g>
</svg>
