<svg width="16" height="17" viewBox="0 0 16 17" fill="none" xmlns="http://www.w3.org/2000/svg">
<mask id="mask0_1565_1216" style="mask-type:alpha" maskUnits="userSpaceOnUse" x="0" y="0" width="16" height="17">
<rect y="0.5" width="16" height="16" fill="#D9D9D9"/>
</mask>
<g mask="url(#mask0_1565_1216)">
<path d="M3.66667 12.1666C2.64444 12.1666 1.77778 11.811 1.06667 11.0999C0.355556 10.3888 0 9.52216 0 8.49993C0 7.47771 0.355556 6.61105 1.06667 5.89993C1.77778 5.18882 2.64444 4.83327 3.66667 4.83327C4.07778 4.83327 4.47222 4.90549 4.85 5.04993C5.22778 5.19438 5.56667 5.39993 5.86667 5.6666L7 6.69993L6 7.59993L4.96667 6.6666C4.78889 6.51105 4.58889 6.38882 4.36667 6.29993C4.14444 6.21105 3.91111 6.1666 3.66667 6.1666C3.02222 6.1666 2.47222 6.39438 2.01667 6.84993C1.56111 7.30549 1.33333 7.85549 1.33333 8.49993C1.33333 9.14438 1.56111 9.69438 2.01667 10.1499C2.47222 10.6055 3.02222 10.8333 3.66667 10.8333C3.91111 10.8333 4.14444 10.7888 4.36667 10.6999C4.58889 10.611 4.78889 10.4888 4.96667 10.3333L10.1333 5.6666C10.4333 5.39993 10.7722 5.19438 11.15 5.04993C11.5278 4.90549 11.9222 4.83327 12.3333 4.83327C13.3556 4.83327 14.2222 5.18882 14.9333 5.89993C15.6444 6.61105 16 7.47771 16 8.49993C16 9.52216 15.6444 10.3888 14.9333 11.0999C14.2222 11.811 13.3556 12.1666 12.3333 12.1666C11.9222 12.1666 11.5278 12.0944 11.15 11.9499C10.7722 11.8055 10.4333 11.5999 10.1333 11.3333L9 10.2999L10 9.39993L11.0333 10.3333C11.2111 10.4888 11.4111 10.611 11.6333 10.6999C11.8556 10.7888 12.0889 10.8333 12.3333 10.8333C12.9778 10.8333 13.5278 10.6055 13.9833 10.1499C14.4389 9.69438 14.6667 9.14438 14.6667 8.49993C14.6667 7.85549 14.4389 7.30549 13.9833 6.84993C13.5278 6.39438 12.9778 6.1666 12.3333 6.1666C12.0889 6.1666 11.8556 6.21105 11.6333 6.29993C11.4111 6.38882 11.2111 6.51105 11.0333 6.6666L5.86667 11.3333C5.56667 11.5999 5.22778 11.8055 4.85 11.9499C4.47222 12.0944 4.07778 12.1666 3.66667 12.1666Z" fill="#1C1B1F" fill-opacity="0.5"/>
</g>
</svg>
