<svg width="63" height="17" viewBox="0 0 63 17" fill="none" xmlns="http://www.w3.org/2000/svg">
<path d="M11.3034 8.23809C12.3172 8.47572 13.1014 8.9668 13.6559 9.71136C14.2262 10.4401 14.5113 11.2876 14.5113 12.2539C14.5113 13.7272 14.0202 14.8678 13.038 15.6757C12.0717 16.4678 10.6776 16.8638 8.85587 16.8638H0.0400391V0.0400848H8.61825C10.3291 0.0400848 11.6757 0.412362 12.6578 1.15691C13.64 1.90147 14.1311 2.98661 14.1311 4.41235C14.1311 5.39453 13.8697 6.22621 13.347 6.9074C12.84 7.57275 12.1588 8.01631 11.3034 8.23809ZM5.31528 6.59849H7.35884C7.83409 6.59849 8.1826 6.50344 8.40438 6.31334C8.64201 6.12324 8.76082 5.83018 8.76082 5.43414C8.76082 5.02226 8.64201 4.72127 8.40438 4.53117C8.1826 4.32523 7.83409 4.22226 7.35884 4.22226H5.31528V6.59849ZM7.71528 12.6341C8.19052 12.6341 8.53904 12.547 8.76082 12.3727C8.99844 12.1826 9.11725 11.8817 9.11725 11.4698C9.11725 10.6619 8.64993 10.2579 7.71528 10.2579H5.31528V12.6341H7.71528Z" fill="black"/>
<path fill-rule="evenodd" clip-rule="evenodd" d="M13.0633 15.7064L13.0633 15.7064C12.0871 16.5065 10.6827 16.9036 8.85577 16.9036H0V0H8.61814C10.3344 0 11.6905 0.373424 12.6819 1.12494C13.6757 1.87829 14.1709 2.97619 14.1709 4.41221C14.1709 5.4018 13.9074 6.24233 13.3786 6.93146C12.8953 7.56577 12.2553 8.00057 11.4601 8.23589C12.4108 8.48742 13.1541 8.97083 13.6875 9.68696C14.2634 10.4229 14.5511 11.2791 14.5511 12.2538C14.5511 13.7369 14.0562 14.8896 13.0633 15.7064ZM11.3843 8.25759C11.3575 8.25086 11.3305 8.24431 11.3033 8.23794C11.3303 8.23095 11.3571 8.22373 11.3837 8.21629C12.2015 7.98795 12.8559 7.55161 13.3468 6.90725C13.8696 6.22607 14.131 5.39438 14.131 4.41221C14.131 2.98647 13.6399 1.90132 12.6577 1.15677C11.6756 0.412214 10.329 0.0399367 8.61814 0.0399367H0.0399367V16.8637H8.85577C10.6775 16.8637 12.0716 16.4676 13.0379 15.6756C14.0201 14.8676 14.5112 13.727 14.5112 12.2538C14.5112 11.2874 14.2261 10.4399 13.6558 9.71121C13.1162 8.9866 12.359 8.50207 11.3843 8.25759ZM8.37881 6.28243L8.37933 6.28201C8.60477 6.10166 8.72078 5.82185 8.72078 5.43399C8.72078 5.02967 8.60441 4.74227 8.37933 4.5622L8.37818 4.56128L8.37711 4.56028C8.16595 4.36421 7.82942 4.26205 7.35874 4.26205H5.35511V6.55841H7.35874C7.83004 6.55841 8.16709 6.4639 8.37829 6.28287L8.37881 6.28243ZM5.31518 6.59834V4.22211H7.35874C7.83399 4.22211 8.1825 4.32508 8.40428 4.53102C8.6419 4.72112 8.76072 5.02211 8.76072 5.43399C8.76072 5.83003 8.6419 6.1231 8.40428 6.31319C8.1825 6.50329 7.83399 6.59834 7.35874 6.59834H5.31518ZM8.73587 12.3413C8.52451 12.5073 8.18693 12.594 7.71517 12.594H5.35511V10.2977H7.71517C8.17765 10.2977 8.51706 10.3977 8.74054 10.5909C8.96291 10.7831 9.07722 11.0735 9.07722 11.4696C9.07722 11.8739 8.96087 12.1613 8.73587 12.3413ZM5.31518 12.634H7.71517C8.19042 12.634 8.53893 12.5469 8.76072 12.3726C8.99834 12.1825 9.11715 11.8815 9.11715 11.4696C9.11715 10.6617 8.64983 10.2577 7.71517 10.2577H5.31518V12.634Z" fill="black"/>
<path fill-rule="evenodd" clip-rule="evenodd" d="M13.0633 15.7064L13.0633 15.7064C12.0871 16.5065 10.6827 16.9036 8.85577 16.9036H0V0H8.61814C10.3344 0 11.6905 0.373424 12.6819 1.12494C13.6757 1.87829 14.1709 2.97619 14.1709 4.41221C14.1709 5.4018 13.9074 6.24233 13.3786 6.93146C12.8953 7.56577 12.2553 8.00057 11.4601 8.23589C12.4108 8.48742 13.1541 8.97083 13.6875 9.68696C14.2634 10.4229 14.5511 11.2791 14.5511 12.2538C14.5511 13.7369 14.0562 14.8896 13.0633 15.7064ZM11.3843 8.25759C11.3575 8.25086 11.3305 8.24431 11.3033 8.23794C11.3303 8.23095 11.3571 8.22373 11.3837 8.21629C12.2015 7.98795 12.8559 7.55161 13.3468 6.90725C13.8696 6.22607 14.131 5.39438 14.131 4.41221C14.131 2.98647 13.6399 1.90132 12.6577 1.15677C11.6756 0.412214 10.329 0.0399367 8.61814 0.0399367H0.0399367V16.8637H8.85577C10.6775 16.8637 12.0716 16.4676 13.0379 15.6756C14.0201 14.8676 14.5112 13.727 14.5112 12.2538C14.5112 11.2874 14.2261 10.4399 13.6558 9.71121C13.1162 8.9866 12.359 8.50207 11.3843 8.25759ZM8.37881 6.28243L8.37933 6.28201C8.60477 6.10166 8.72078 5.82185 8.72078 5.43399C8.72078 5.02967 8.60441 4.74227 8.37933 4.5622L8.37818 4.56128L8.37711 4.56028C8.16595 4.36421 7.82942 4.26205 7.35874 4.26205H5.35511V6.55841H7.35874C7.83004 6.55841 8.16709 6.4639 8.37829 6.28287L8.37881 6.28243ZM5.31518 6.59834V4.22211H7.35874C7.83399 4.22211 8.1825 4.32508 8.40428 4.53102C8.6419 4.72112 8.76072 5.02211 8.76072 5.43399C8.76072 5.83003 8.6419 6.1231 8.40428 6.31319C8.1825 6.50329 7.83399 6.59834 7.35874 6.59834H5.31518ZM8.73587 12.3413C8.52451 12.5073 8.18693 12.594 7.71517 12.594H5.35511V10.2977H7.71517C8.17765 10.2977 8.51706 10.3977 8.74054 10.5909C8.96291 10.7831 9.07722 11.0735 9.07722 11.4696C9.07722 11.8739 8.96087 12.1613 8.73587 12.3413ZM5.31518 12.634H7.71517C8.19042 12.634 8.53893 12.5469 8.76072 12.3726C8.99834 12.1825 9.11715 11.8815 9.11715 11.4696C9.11715 10.6617 8.64983 10.2577 7.71517 10.2577H5.31518V12.634Z" fill="black"/>
<path d="M56.5243 16.8637L53.4352 12.4914L50.8689 16.8637H44.857L50.3936 8.19043L44.6194 0.0399475H50.8689L53.8392 4.24588L56.3105 0.0399475H62.3223L56.8808 8.54687L62.7738 16.8637H56.5243Z" fill="black"/>
<path fill-rule="evenodd" clip-rule="evenodd" d="M56.5035 16.9036L53.4382 12.565L50.8916 16.9036H44.784L50.3454 8.19158L44.542 0H50.8894L53.8359 4.17228L56.2874 0H62.3951L56.9287 8.54572L62.8509 16.9036H56.5035ZM56.8806 8.54686L62.3222 0.0399367H56.3103L53.839 4.24587L50.8687 0.0399367H44.6192L50.3935 8.19042L44.8569 16.8637H50.8687L53.4351 12.4914L56.5242 16.8637H62.7737L56.8806 8.54686Z" fill="black"/>
<path fill-rule="evenodd" clip-rule="evenodd" d="M56.5035 16.9036L53.4382 12.565L50.8916 16.9036H44.784L50.3454 8.19158L44.542 0H50.8894L53.8359 4.17228L56.2874 0H62.3951L56.9287 8.54572L62.8509 16.9036H56.5035ZM56.8806 8.54686L62.3222 0.0399367H56.3103L53.839 4.24587L50.8687 0.0399367H44.6192L50.3935 8.19042L44.8569 16.8637H50.8687L53.4351 12.4914L56.5242 16.8637H62.7737L56.8806 8.54686Z" fill="black"/>
<path fill-rule="evenodd" clip-rule="evenodd" d="M38.5089 5.12231H23.1332C21.2364 5.12231 19.6987 6.66001 19.6987 8.55687C19.6987 10.4537 21.2364 11.9914 23.1332 11.9914H38.5089C40.4057 11.9914 41.9434 10.4537 41.9434 8.55687C41.9434 6.66001 40.4057 5.12231 38.5089 5.12231ZM23.1332 0.529587C18.6999 0.529587 15.106 4.12352 15.106 8.55687C15.106 12.9902 18.6999 16.5841 23.1332 16.5841H38.5089C42.9422 16.5841 46.5361 12.9902 46.5361 8.55687C46.5361 4.12352 42.9422 0.529587 38.5089 0.529587H23.1332Z" fill="black"/>
<path fill-rule="evenodd" clip-rule="evenodd" d="M38.5089 5.12231H23.1332C21.2364 5.12231 19.6987 6.66001 19.6987 8.55687C19.6987 10.4537 21.2364 11.9914 23.1332 11.9914H38.5089C40.4057 11.9914 41.9434 10.4537 41.9434 8.55687C41.9434 6.66001 40.4057 5.12231 38.5089 5.12231ZM23.1332 0.529587C18.6999 0.529587 15.106 4.12352 15.106 8.55687C15.106 12.9902 18.6999 16.5841 23.1332 16.5841H38.5089C42.9422 16.5841 46.5361 12.9902 46.5361 8.55687C46.5361 4.12352 42.9422 0.529587 38.5089 0.529587H23.1332Z" fill="black" fill-opacity="0.2"/>
</svg>
