<svg width="764" height="277" viewBox="0 0 764 277" fill="none" xmlns="http://www.w3.org/2000/svg">
<rect width="764" height="277" rx="5" fill="url(#paint0_linear_1352_19004)"/>
<path d="M36.82 75.71C34.84 75.71 33.02 75.25 31.36 74.33C29.72 73.41 28.41 72.13 27.43 70.49C26.47 68.83 25.99 66.97 25.99 64.91C25.99 62.85 26.47 61 27.43 59.36C28.41 57.72 29.72 56.44 31.36 55.52C33.02 54.6 34.84 54.14 36.82 54.14C38.8 54.14 40.61 54.6 42.25 55.52C43.91 56.44 45.21 57.72 46.15 59.36C47.11 61 47.59 62.85 47.59 64.91C47.59 66.97 47.11 68.83 46.15 70.49C45.19 72.13 43.89 73.41 42.25 74.33C40.61 75.25 38.8 75.71 36.82 75.71ZM36.82 71.03C38.5 71.03 39.84 70.47 40.84 69.35C41.86 68.23 42.37 66.75 42.37 64.91C42.37 63.05 41.86 61.57 40.84 60.47C39.84 59.35 38.5 58.79 36.82 58.79C35.12 58.79 33.76 59.34 32.74 60.44C31.74 61.54 31.24 63.03 31.24 64.91C31.24 66.77 31.74 68.26 32.74 69.38C33.76 70.48 35.12 71.03 36.82 71.03ZM55.574 61.13C56.074 60.35 56.764 59.72 57.644 59.24C58.524 58.76 59.554 58.52 60.734 58.52C62.114 58.52 63.364 58.87 64.484 59.57C65.604 60.27 66.484 61.27 67.124 62.57C67.784 63.87 68.114 65.38 68.114 67.1C68.114 68.82 67.784 70.34 67.124 71.66C66.484 72.96 65.604 73.97 64.484 74.69C63.364 75.39 62.114 75.74 60.734 75.74C59.574 75.74 58.544 75.5 57.644 75.02C56.764 74.54 56.074 73.92 55.574 73.16V83.48H50.444V58.76H55.574V61.13ZM62.894 67.1C62.894 65.82 62.534 64.82 61.814 64.1C61.114 63.36 60.244 62.99 59.204 62.99C58.184 62.99 57.314 63.36 56.594 64.1C55.894 64.84 55.544 65.85 55.544 67.13C55.544 68.41 55.894 69.42 56.594 70.16C57.314 70.9 58.184 71.27 59.204 71.27C60.224 71.27 61.094 70.9 61.814 70.16C62.534 69.4 62.894 68.38 62.894 67.1ZM86.5853 66.86C86.5853 67.34 86.5553 67.84 86.4953 68.36H74.8853C74.9653 69.4 75.2953 70.2 75.8753 70.76C76.4753 71.3 77.2053 71.57 78.0653 71.57C79.3453 71.57 80.2353 71.03 80.7353 69.95H86.1953C85.9153 71.05 85.4053 72.04 84.6653 72.92C83.9453 73.8 83.0353 74.49 81.9353 74.99C80.8353 75.49 79.6053 75.74 78.2453 75.74C76.6053 75.74 75.1453 75.39 73.8653 74.69C72.5853 73.99 71.5853 72.99 70.8653 71.69C70.1453 70.39 69.7853 68.87 69.7853 67.13C69.7853 65.39 70.1353 63.87 70.8353 62.57C71.5553 61.27 72.5553 60.27 73.8353 59.57C75.1153 58.87 76.5853 58.52 78.2453 58.52C79.8653 58.52 81.3053 58.86 82.5653 59.54C83.8253 60.22 84.8053 61.19 85.5053 62.45C86.2253 63.71 86.5853 65.18 86.5853 66.86ZM81.3353 65.51C81.3353 64.63 81.0353 63.93 80.4353 63.41C79.8353 62.89 79.0853 62.63 78.1853 62.63C77.3253 62.63 76.5953 62.88 75.9953 63.38C75.4153 63.88 75.0553 64.59 74.9153 65.51H81.3353ZM99.4916 58.58C101.452 58.58 103.012 59.22 104.172 60.5C105.352 61.76 105.942 63.5 105.942 65.72V75.5H100.842V66.41C100.842 65.29 100.552 64.42 99.9716 63.8C99.3916 63.18 98.6116 62.87 97.6316 62.87C96.6516 62.87 95.8716 63.18 95.2916 63.8C94.7116 64.42 94.4216 65.29 94.4216 66.41V75.5H89.2916V58.76H94.4216V60.98C94.9416 60.24 95.6416 59.66 96.5216 59.24C97.4016 58.8 98.3916 58.58 99.4916 58.58ZM139.714 54.44V75.5H134.584V62.87L129.874 75.5H125.734L120.994 62.84V75.5H115.864V54.44H121.924L127.834 69.02L133.684 54.44H139.714ZM160.503 58.76L150.003 83.45H144.483L148.323 74.93L141.513 58.76H147.243L151.113 69.23L154.953 58.76H160.503ZM169.168 75.74C167.708 75.74 166.408 75.49 165.268 74.99C164.128 74.49 163.228 73.81 162.568 72.95C161.908 72.07 161.538 71.09 161.458 70.01H166.528C166.588 70.59 166.858 71.06 167.338 71.42C167.818 71.78 168.408 71.96 169.108 71.96C169.748 71.96 170.238 71.84 170.578 71.6C170.938 71.34 171.118 71.01 171.118 70.61C171.118 70.13 170.868 69.78 170.368 69.56C169.868 69.32 169.058 69.06 167.938 68.78C166.738 68.5 165.738 68.21 164.938 67.91C164.138 67.59 163.448 67.1 162.868 66.44C162.288 65.76 161.998 64.85 161.998 63.71C161.998 62.75 162.258 61.88 162.778 61.1C163.318 60.3 164.098 59.67 165.118 59.21C166.158 58.75 167.388 58.52 168.808 58.52C170.908 58.52 172.558 59.04 173.758 60.08C174.978 61.12 175.678 62.5 175.858 64.22H171.118C171.038 63.64 170.778 63.18 170.338 62.84C169.918 62.5 169.358 62.33 168.658 62.33C168.058 62.33 167.598 62.45 167.278 62.69C166.958 62.91 166.798 63.22 166.798 63.62C166.798 64.1 167.048 64.46 167.548 64.7C168.068 64.94 168.868 65.18 169.948 65.42C171.188 65.74 172.198 66.06 172.978 66.38C173.758 66.68 174.438 67.18 175.018 67.88C175.618 68.56 175.928 69.48 175.948 70.64C175.948 71.62 175.668 72.5 175.108 73.28C174.568 74.04 173.778 74.64 172.738 75.08C171.718 75.52 170.528 75.74 169.168 75.74ZM188.417 71.15V75.5H185.807C183.947 75.5 182.497 75.05 181.457 74.15C180.417 73.23 179.897 71.74 179.897 69.68V63.02H177.857V58.76H179.897V54.68H185.027V58.76H188.387V63.02H185.027V69.74C185.027 70.24 185.147 70.6 185.387 70.82C185.627 71.04 186.027 71.15 186.587 71.15H188.417ZM207.054 66.86C207.054 67.34 207.024 67.84 206.964 68.36H195.354C195.434 69.4 195.764 70.2 196.344 70.76C196.944 71.3 197.674 71.57 198.534 71.57C199.814 71.57 200.704 71.03 201.204 69.95H206.664C206.384 71.05 205.874 72.04 205.134 72.92C204.414 73.8 203.504 74.49 202.404 74.99C201.304 75.49 200.074 75.74 198.714 75.74C197.074 75.74 195.614 75.39 194.334 74.69C193.054 73.99 192.054 72.99 191.334 71.69C190.614 70.39 190.254 68.87 190.254 67.13C190.254 65.39 190.604 63.87 191.304 62.57C192.024 61.27 193.024 60.27 194.304 59.57C195.584 58.87 197.054 58.52 198.714 58.52C200.334 58.52 201.774 58.86 203.034 59.54C204.294 60.22 205.274 61.19 205.974 62.45C206.694 63.71 207.054 65.18 207.054 66.86ZM201.804 65.51C201.804 64.63 201.504 63.93 200.904 63.41C200.304 62.89 199.554 62.63 198.654 62.63C197.794 62.63 197.064 62.88 196.464 63.38C195.884 63.88 195.524 64.59 195.384 65.51H201.804ZM214.89 61.55C215.49 60.63 216.24 59.91 217.14 59.39C218.04 58.85 219.04 58.58 220.14 58.58V64.01H218.73C217.45 64.01 216.49 64.29 215.85 64.85C215.21 65.39 214.89 66.35 214.89 67.73V75.5H209.76V58.76H214.89V61.55ZM239.692 58.76L229.192 83.45H223.672L227.512 74.93L220.702 58.76H226.432L230.302 69.23L234.142 58.76H239.692ZM260.655 64.7C261.875 64.96 262.855 65.57 263.595 66.53C264.335 67.47 264.705 68.55 264.705 69.77C264.705 71.53 264.085 72.93 262.845 73.97C261.625 74.99 259.915 75.5 257.715 75.5H247.905V54.44H257.385C259.525 54.44 261.195 54.93 262.395 55.91C263.615 56.89 264.225 58.22 264.225 59.9C264.225 61.14 263.895 62.17 263.235 62.99C262.595 63.81 261.735 64.38 260.655 64.7ZM253.035 62.96H256.395C257.235 62.96 257.875 62.78 258.315 62.42C258.775 62.04 259.005 61.49 259.005 60.77C259.005 60.05 258.775 59.5 258.315 59.12C257.875 58.74 257.235 58.55 256.395 58.55H253.035V62.96ZM256.815 71.36C257.675 71.36 258.335 71.17 258.795 70.79C259.275 70.39 259.515 69.82 259.515 69.08C259.515 68.34 259.265 67.76 258.765 67.34C258.285 66.92 257.615 66.71 256.755 66.71H253.035V71.36H256.815ZM275.3 75.74C273.66 75.74 272.18 75.39 270.86 74.69C269.56 73.99 268.53 72.99 267.77 71.69C267.03 70.39 266.66 68.87 266.66 67.13C266.66 65.41 267.04 63.9 267.8 62.6C268.56 61.28 269.6 60.27 270.92 59.57C272.24 58.87 273.72 58.52 275.36 58.52C277 58.52 278.48 58.87 279.8 59.57C281.12 60.27 282.16 61.28 282.92 62.6C283.68 63.9 284.06 65.41 284.06 67.13C284.06 68.85 283.67 70.37 282.89 71.69C282.13 72.99 281.08 73.99 279.74 74.69C278.42 75.39 276.94 75.74 275.3 75.74ZM275.3 71.3C276.28 71.3 277.11 70.94 277.79 70.22C278.49 69.5 278.84 68.47 278.84 67.13C278.84 65.79 278.5 64.76 277.82 64.04C277.16 63.32 276.34 62.96 275.36 62.96C274.36 62.96 273.53 63.32 272.87 64.04C272.21 64.74 271.88 65.77 271.88 67.13C271.88 68.47 272.2 69.5 272.84 70.22C273.5 70.94 274.32 71.3 275.3 71.3ZM296.682 75.5L293.472 70.85L290.772 75.5H285.222L290.742 66.95L285.072 58.76H290.832L294.042 63.38L296.742 58.76H302.292L296.682 67.19L302.442 75.5H296.682ZM320.199 66.86C320.199 67.34 320.169 67.84 320.109 68.36H308.499C308.579 69.4 308.909 70.2 309.489 70.76C310.089 71.3 310.819 71.57 311.679 71.57C312.959 71.57 313.849 71.03 314.349 69.95H319.809C319.529 71.05 319.019 72.04 318.279 72.92C317.559 73.8 316.649 74.49 315.549 74.99C314.449 75.49 313.219 75.74 311.859 75.74C310.219 75.74 308.759 75.39 307.479 74.69C306.199 73.99 305.199 72.99 304.479 71.69C303.759 70.39 303.399 68.87 303.399 67.13C303.399 65.39 303.749 63.87 304.449 62.57C305.169 61.27 306.169 60.27 307.449 59.57C308.729 58.87 310.199 58.52 311.859 58.52C313.479 58.52 314.919 58.86 316.179 59.54C317.439 60.22 318.419 61.19 319.119 62.45C319.839 63.71 320.199 65.18 320.199 66.86ZM314.949 65.51C314.949 64.63 314.649 63.93 314.049 63.41C313.449 62.89 312.699 62.63 311.799 62.63C310.939 62.63 310.209 62.88 309.609 63.38C309.029 63.88 308.669 64.59 308.529 65.51H314.949ZM329.715 75.74C328.255 75.74 326.955 75.49 325.815 74.99C324.675 74.49 323.775 73.81 323.115 72.95C322.455 72.07 322.085 71.09 322.005 70.01H327.075C327.135 70.59 327.405 71.06 327.885 71.42C328.365 71.78 328.955 71.96 329.655 71.96C330.295 71.96 330.785 71.84 331.125 71.6C331.485 71.34 331.665 71.01 331.665 70.61C331.665 70.13 331.415 69.78 330.915 69.56C330.415 69.32 329.605 69.06 328.485 68.78C327.285 68.5 326.285 68.21 325.485 67.91C324.685 67.59 323.995 67.1 323.415 66.44C322.835 65.76 322.545 64.85 322.545 63.71C322.545 62.75 322.805 61.88 323.325 61.1C323.865 60.3 324.645 59.67 325.665 59.21C326.705 58.75 327.935 58.52 329.355 58.52C331.455 58.52 333.105 59.04 334.305 60.08C335.525 61.12 336.225 62.5 336.405 64.22H331.665C331.585 63.64 331.325 63.18 330.885 62.84C330.465 62.5 329.905 62.33 329.205 62.33C328.605 62.33 328.145 62.45 327.825 62.69C327.505 62.91 327.345 63.22 327.345 63.62C327.345 64.1 327.595 64.46 328.095 64.7C328.615 64.94 329.415 65.18 330.495 65.42C331.735 65.74 332.745 66.06 333.525 66.38C334.305 66.68 334.985 67.18 335.565 67.88C336.165 68.56 336.475 69.48 336.495 70.64C336.495 71.62 336.215 72.5 335.655 73.28C335.115 74.04 334.325 74.64 333.285 75.08C332.265 75.52 331.075 75.74 329.715 75.74ZM362.101 75.5L360.151 73.61C358.211 75.09 355.891 75.83 353.191 75.83C351.571 75.83 350.161 75.57 348.961 75.05C347.761 74.51 346.831 73.76 346.171 72.8C345.531 71.82 345.211 70.68 345.211 69.38C345.211 68.06 345.561 66.87 346.261 65.81C346.981 64.73 348.051 63.85 349.471 63.17C348.951 62.53 348.581 61.92 348.361 61.34C348.141 60.74 348.031 60.09 348.031 59.39C348.031 58.39 348.291 57.48 348.811 56.66C349.331 55.84 350.081 55.2 351.061 54.74C352.061 54.26 353.241 54.02 354.601 54.02C355.981 54.02 357.151 54.27 358.111 54.77C359.071 55.27 359.791 55.94 360.271 56.78C360.751 57.62 360.971 58.54 360.931 59.54H356.101C356.121 59 355.981 58.59 355.681 58.31C355.401 58.01 355.021 57.86 354.541 57.86C354.061 57.86 353.661 58 353.341 58.28C353.021 58.56 352.861 58.92 352.861 59.36C352.861 59.78 352.991 60.22 353.251 60.68C353.531 61.14 353.961 61.67 354.541 62.27L359.671 67.28C359.711 67.18 359.761 67.06 359.821 66.92C359.901 66.78 359.981 66.62 360.061 66.44L361.171 64.55H366.301L364.861 67.16C364.321 68.34 363.701 69.46 363.001 70.52L368.071 75.5H362.101ZM353.431 71.69C354.771 71.69 355.961 71.31 357.001 70.55L352.321 66.02C350.881 66.76 350.161 67.76 350.161 69.02C350.161 69.78 350.451 70.42 351.031 70.94C351.631 71.44 352.431 71.69 353.431 71.69ZM387.024 75.5L382.644 67.55H381.414V75.5H376.284V54.44H384.894C386.554 54.44 387.964 54.73 389.124 55.31C390.304 55.89 391.184 56.69 391.764 57.71C392.344 58.71 392.634 59.83 392.634 61.07C392.634 62.47 392.234 63.72 391.434 64.82C390.654 65.92 389.494 66.7 387.954 67.16L392.814 75.5H387.024ZM381.414 63.92H384.594C385.534 63.92 386.234 63.69 386.694 63.23C387.174 62.77 387.414 62.12 387.414 61.28C387.414 60.48 387.174 59.85 386.694 59.39C386.234 58.93 385.534 58.7 384.594 58.7H381.414V63.92ZM411.634 66.86C411.634 67.34 411.604 67.84 411.544 68.36H399.934C400.014 69.4 400.344 70.2 400.924 70.76C401.524 71.3 402.254 71.57 403.114 71.57C404.394 71.57 405.284 71.03 405.784 69.95H411.244C410.964 71.05 410.454 72.04 409.714 72.92C408.994 73.8 408.084 74.49 406.984 74.99C405.884 75.49 404.654 75.74 403.294 75.74C401.654 75.74 400.194 75.39 398.914 74.69C397.634 73.99 396.634 72.99 395.914 71.69C395.194 70.39 394.834 68.87 394.834 67.13C394.834 65.39 395.184 63.87 395.884 62.57C396.604 61.27 397.604 60.27 398.884 59.57C400.164 58.87 401.634 58.52 403.294 58.52C404.914 58.52 406.354 58.86 407.614 59.54C408.874 60.22 409.854 61.19 410.554 62.45C411.274 63.71 411.634 65.18 411.634 66.86ZM406.384 65.51C406.384 64.63 406.084 63.93 405.484 63.41C404.884 62.89 404.134 62.63 403.234 62.63C402.374 62.63 401.644 62.88 401.044 63.38C400.464 63.88 400.104 64.59 399.964 65.51H406.384ZM413.32 67.13C413.32 65.39 413.67 63.87 414.37 62.57C415.09 61.27 416.08 60.27 417.34 59.57C418.62 58.87 420.08 58.52 421.72 58.52C423.82 58.52 425.57 59.07 426.97 60.17C428.39 61.27 429.32 62.82 429.76 64.82H424.3C423.84 63.54 422.95 62.9 421.63 62.9C420.69 62.9 419.94 63.27 419.38 64.01C418.82 64.73 418.54 65.77 418.54 67.13C418.54 68.49 418.82 69.54 419.38 70.28C419.94 71 420.69 71.36 421.63 71.36C422.95 71.36 423.84 70.72 424.3 69.44H429.76C429.32 71.4 428.39 72.94 426.97 74.06C425.55 75.18 423.8 75.74 421.72 75.74C420.08 75.74 418.62 75.39 417.34 74.69C416.08 73.99 415.09 72.99 414.37 71.69C413.67 70.39 413.32 68.87 413.32 67.13ZM448.285 66.86C448.285 67.34 448.255 67.84 448.195 68.36H436.585C436.665 69.4 436.995 70.2 437.575 70.76C438.175 71.3 438.905 71.57 439.765 71.57C441.045 71.57 441.935 71.03 442.435 69.95H447.895C447.615 71.05 447.105 72.04 446.365 72.92C445.645 73.8 444.735 74.49 443.635 74.99C442.535 75.49 441.305 75.74 439.945 75.74C438.305 75.74 436.845 75.39 435.565 74.69C434.285 73.99 433.285 72.99 432.565 71.69C431.845 70.39 431.485 68.87 431.485 67.13C431.485 65.39 431.835 63.87 432.535 62.57C433.255 61.27 434.255 60.27 435.535 59.57C436.815 58.87 438.285 58.52 439.945 58.52C441.565 58.52 443.005 58.86 444.265 59.54C445.525 60.22 446.505 61.19 447.205 62.45C447.925 63.71 448.285 65.18 448.285 66.86ZM443.035 65.51C443.035 64.63 442.735 63.93 442.135 63.41C441.535 62.89 440.785 62.63 439.885 62.63C439.025 62.63 438.295 62.88 437.695 63.38C437.115 63.88 436.755 64.59 436.615 65.51H443.035ZM453.571 57.02C452.671 57.02 451.931 56.76 451.351 56.24C450.791 55.7 450.511 55.04 450.511 54.26C450.511 53.46 450.791 52.8 451.351 52.28C451.931 51.74 452.671 51.47 453.571 51.47C454.451 51.47 455.171 51.74 455.731 52.28C456.311 52.8 456.601 53.46 456.601 54.26C456.601 55.04 456.311 55.7 455.731 56.24C455.171 56.76 454.451 57.02 453.571 57.02ZM456.121 58.76V75.5H450.991V58.76H456.121ZM467.369 70.7L470.999 58.76H476.459L470.519 75.5H464.189L458.249 58.76H463.739L467.369 70.7ZM494.398 66.86C494.398 67.34 494.368 67.84 494.308 68.36H482.698C482.778 69.4 483.108 70.2 483.688 70.76C484.288 71.3 485.018 71.57 485.878 71.57C487.158 71.57 488.048 71.03 488.548 69.95H494.008C493.728 71.05 493.218 72.04 492.478 72.92C491.758 73.8 490.848 74.49 489.748 74.99C488.648 75.49 487.418 75.74 486.058 75.74C484.418 75.74 482.958 75.39 481.678 74.69C480.398 73.99 479.398 72.99 478.678 71.69C477.958 70.39 477.598 68.87 477.598 67.13C477.598 65.39 477.948 63.87 478.648 62.57C479.368 61.27 480.368 60.27 481.648 59.57C482.928 58.87 484.398 58.52 486.058 58.52C487.678 58.52 489.118 58.86 490.378 59.54C491.638 60.22 492.618 61.19 493.318 62.45C494.038 63.71 494.398 65.18 494.398 66.86ZM489.148 65.51C489.148 64.63 488.848 63.93 488.248 63.41C487.648 62.89 486.898 62.63 485.998 62.63C485.138 62.63 484.408 62.88 483.808 63.38C483.228 63.88 482.868 64.59 482.728 65.51H489.148ZM514.202 75.5L509.822 67.55H508.592V75.5H503.462V54.44H512.072C513.732 54.44 515.142 54.73 516.302 55.31C517.482 55.89 518.362 56.69 518.942 57.71C519.522 58.71 519.812 59.83 519.812 61.07C519.812 62.47 519.412 63.72 518.612 64.82C517.832 65.92 516.672 66.7 515.132 67.16L519.992 75.5H514.202ZM508.592 63.92H511.772C512.712 63.92 513.412 63.69 513.872 63.23C514.352 62.77 514.592 62.12 514.592 61.28C514.592 60.48 514.352 59.85 513.872 59.39C513.412 58.93 512.712 58.7 511.772 58.7H508.592V63.92ZM538.812 66.86C538.812 67.34 538.782 67.84 538.722 68.36H527.112C527.192 69.4 527.522 70.2 528.102 70.76C528.702 71.3 529.432 71.57 530.292 71.57C531.572 71.57 532.462 71.03 532.962 69.95H538.422C538.142 71.05 537.632 72.04 536.892 72.92C536.172 73.8 535.262 74.49 534.162 74.99C533.062 75.49 531.832 75.74 530.472 75.74C528.832 75.74 527.372 75.39 526.092 74.69C524.812 73.99 523.812 72.99 523.092 71.69C522.372 70.39 522.012 68.87 522.012 67.13C522.012 65.39 522.362 63.87 523.062 62.57C523.782 61.27 524.782 60.27 526.062 59.57C527.342 58.87 528.812 58.52 530.472 58.52C532.092 58.52 533.532 58.86 534.792 59.54C536.052 60.22 537.032 61.19 537.732 62.45C538.452 63.71 538.812 65.18 538.812 66.86ZM533.562 65.51C533.562 64.63 533.262 63.93 532.662 63.41C532.062 62.89 531.312 62.63 530.412 62.63C529.552 62.63 528.822 62.88 528.222 63.38C527.642 63.88 527.282 64.59 527.142 65.51H533.562ZM540.498 67.1C540.498 65.38 540.818 63.87 541.458 62.57C542.118 61.27 543.008 60.27 544.128 59.57C545.248 58.87 546.498 58.52 547.878 58.52C549.058 58.52 550.088 58.76 550.968 59.24C551.868 59.72 552.558 60.35 553.038 61.13V58.76H558.168V75.5H553.038V73.13C552.538 73.91 551.838 74.54 550.938 75.02C550.058 75.5 549.028 75.74 547.848 75.74C546.488 75.74 545.248 75.39 544.128 74.69C543.008 73.97 542.118 72.96 541.458 71.66C540.818 70.34 540.498 68.82 540.498 67.1ZM553.038 67.13C553.038 65.85 552.678 64.84 551.958 64.1C551.258 63.36 550.398 62.99 549.378 62.99C548.358 62.99 547.488 63.36 546.768 64.1C546.068 64.82 545.718 65.82 545.718 67.1C545.718 68.38 546.068 69.4 546.768 70.16C547.488 70.9 548.358 71.27 549.378 71.27C550.398 71.27 551.258 70.9 551.958 70.16C552.678 69.42 553.038 68.41 553.038 67.13ZM567.01 53.3V75.5H561.88V53.3H567.01ZM583.627 62.84V67.1H570.427V62.84H583.627ZM617.11 54.44L611.62 75.5H605.41L602.05 61.64L598.57 75.5H592.36L587.02 54.44H592.51L595.54 69.77L599.29 54.44H604.93L608.53 69.77L611.59 54.44H617.11ZM627.302 75.74C625.662 75.74 624.182 75.39 622.862 74.69C621.562 73.99 620.532 72.99 619.772 71.69C619.032 70.39 618.662 68.87 618.662 67.13C618.662 65.41 619.042 63.9 619.802 62.6C620.562 61.28 621.602 60.27 622.922 59.57C624.242 58.87 625.722 58.52 627.362 58.52C629.002 58.52 630.482 58.87 631.802 59.57C633.122 60.27 634.162 61.28 634.922 62.6C635.682 63.9 636.062 65.41 636.062 67.13C636.062 68.85 635.672 70.37 634.892 71.69C634.132 72.99 633.082 73.99 631.742 74.69C630.422 75.39 628.942 75.74 627.302 75.74ZM627.302 71.3C628.282 71.3 629.112 70.94 629.792 70.22C630.492 69.5 630.842 68.47 630.842 67.13C630.842 65.79 630.502 64.76 629.822 64.04C629.162 63.32 628.342 62.96 627.362 62.96C626.362 62.96 625.532 63.32 624.872 64.04C624.212 64.74 623.882 65.77 623.882 67.13C623.882 68.47 624.202 69.5 624.842 70.22C625.502 70.94 626.322 71.3 627.302 71.3ZM643.914 61.55C644.514 60.63 645.264 59.91 646.164 59.39C647.064 58.85 648.064 58.58 649.164 58.58V64.01H647.754C646.474 64.01 645.514 64.29 644.874 64.85C644.234 65.39 643.914 66.35 643.914 67.73V75.5H638.784V58.76H643.914V61.55ZM656.746 53.3V75.5H651.616V53.3H656.746ZM659.444 67.1C659.444 65.38 659.764 63.87 660.404 62.57C661.064 61.27 661.954 60.27 663.074 59.57C664.194 58.87 665.444 58.52 666.824 58.52C667.924 58.52 668.924 58.75 669.824 59.21C670.744 59.67 671.464 60.29 671.984 61.07V53.3H677.114V75.5H671.984V73.1C671.504 73.9 670.814 74.54 669.914 75.02C669.034 75.5 668.004 75.74 666.824 75.74C665.444 75.74 664.194 75.39 663.074 74.69C661.954 73.97 661.064 72.96 660.404 71.66C659.764 70.34 659.444 68.82 659.444 67.1ZM671.984 67.13C671.984 65.85 671.624 64.84 670.904 64.1C670.204 63.36 669.344 62.99 668.324 62.99C667.304 62.99 666.434 63.36 665.714 64.1C665.014 64.82 664.664 65.82 664.664 67.1C664.664 68.38 665.014 69.4 665.714 70.16C666.434 70.9 667.304 71.27 668.324 71.27C669.344 71.27 670.204 70.9 670.904 70.16C671.624 69.42 671.984 68.41 671.984 67.13ZM34.48 117.71C32.94 117.71 31.56 117.46 30.34 116.96C29.12 116.46 28.14 115.72 27.4 114.74C26.68 113.76 26.3 112.58 26.26 111.2H31.72C31.8 111.98 32.07 112.58 32.53 113C32.99 113.4 33.59 113.6 34.33 113.6C35.09 113.6 35.69 113.43 36.13 113.09C36.57 112.73 36.79 112.24 36.79 111.62C36.79 111.1 36.61 110.67 36.25 110.33C35.91 109.99 35.48 109.71 34.96 109.49C34.46 109.27 33.74 109.02 32.8 108.74C31.44 108.32 30.33 107.9 29.47 107.48C28.61 107.06 27.87 106.44 27.25 105.62C26.63 104.8 26.32 103.73 26.32 102.41C26.32 100.45 27.03 98.92 28.45 97.82C29.87 96.7 31.72 96.14 34 96.14C36.32 96.14 38.19 96.7 39.61 97.82C41.03 98.92 41.79 100.46 41.89 102.44H36.34C36.3 101.76 36.05 101.23 35.59 100.85C35.13 100.45 34.54 100.25 33.82 100.25C33.2 100.25 32.7 100.42 32.32 100.76C31.94 101.08 31.75 101.55 31.75 102.17C31.75 102.85 32.07 103.38 32.71 103.76C33.35 104.14 34.35 104.55 35.71 104.99C37.07 105.45 38.17 105.89 39.01 106.31C39.87 106.73 40.61 107.34 41.23 108.14C41.85 108.94 42.16 109.97 42.16 111.23C42.16 112.43 41.85 113.52 41.23 114.5C40.63 115.48 39.75 116.26 38.59 116.84C37.43 117.42 36.06 117.71 34.48 117.71ZM55.607 100.58C57.527 100.58 59.067 101.22 60.227 102.5C61.387 103.76 61.967 105.5 61.967 107.72V117.5H56.867V108.41C56.867 107.29 56.577 106.42 55.997 105.8C55.417 105.18 54.637 104.87 53.657 104.87C52.677 104.87 51.897 105.18 51.317 105.8C50.737 106.42 50.447 107.29 50.447 108.41V117.5H45.317V95.3H50.447V103.01C50.967 102.27 51.677 101.68 52.577 101.24C53.477 100.8 54.487 100.58 55.607 100.58ZM68.1119 99.02C67.2119 99.02 66.4719 98.76 65.8919 98.24C65.3319 97.7 65.0519 97.04 65.0519 96.26C65.0519 95.46 65.3319 94.8 65.8919 94.28C66.4719 93.74 67.2119 93.47 68.1119 93.47C68.9919 93.47 69.7119 93.74 70.2719 94.28C70.8519 94.8 71.1419 95.46 71.1419 96.26C71.1419 97.04 70.8519 97.7 70.2719 98.24C69.7119 98.76 68.9919 99.02 68.1119 99.02ZM70.6619 100.76V117.5H65.5319V100.76H70.6619ZM79.5095 103.13C80.0095 102.35 80.6995 101.72 81.5795 101.24C82.4595 100.76 83.4895 100.52 84.6695 100.52C86.0495 100.52 87.2995 100.87 88.4195 101.57C89.5395 102.27 90.4195 103.27 91.0595 104.57C91.7195 105.87 92.0495 107.38 92.0495 109.1C92.0495 110.82 91.7195 112.34 91.0595 113.66C90.4195 114.96 89.5395 115.97 88.4195 116.69C87.2995 117.39 86.0495 117.74 84.6695 117.74C83.5095 117.74 82.4795 117.5 81.5795 117.02C80.6995 116.54 80.0095 115.92 79.5095 115.16V125.48H74.3795V100.76H79.5095V103.13ZM86.8295 109.1C86.8295 107.82 86.4695 106.82 85.7495 106.1C85.0495 105.36 84.1795 104.99 83.1395 104.99C82.1195 104.99 81.2495 105.36 80.5295 106.1C79.8295 106.84 79.4795 107.85 79.4795 109.13C79.4795 110.41 79.8295 111.42 80.5295 112.16C81.2495 112.9 82.1195 113.27 83.1395 113.27C84.1595 113.27 85.0295 112.9 85.7495 112.16C86.4695 111.4 86.8295 110.38 86.8295 109.1ZM99.8709 103.13C100.371 102.35 101.061 101.72 101.941 101.24C102.821 100.76 103.851 100.52 105.031 100.52C106.411 100.52 107.661 100.87 108.781 101.57C109.901 102.27 110.781 103.27 111.421 104.57C112.081 105.87 112.411 107.38 112.411 109.1C112.411 110.82 112.081 112.34 111.421 113.66C110.781 114.96 109.901 115.97 108.781 116.69C107.661 117.39 106.411 117.74 105.031 117.74C103.871 117.74 102.841 117.5 101.941 117.02C101.061 116.54 100.371 115.92 99.8709 115.16V125.48H94.7409V100.76H99.8709V103.13ZM107.191 109.1C107.191 107.82 106.831 106.82 106.111 106.1C105.411 105.36 104.541 104.99 103.501 104.99C102.481 104.99 101.611 105.36 100.891 106.1C100.191 106.84 99.8409 107.85 99.8409 109.13C99.8409 110.41 100.191 111.42 100.891 112.16C101.611 112.9 102.481 113.27 103.501 113.27C104.521 113.27 105.391 112.9 106.111 112.16C106.831 111.4 107.191 110.38 107.191 109.1ZM130.882 108.86C130.882 109.34 130.852 109.84 130.792 110.36H119.182C119.262 111.4 119.592 112.2 120.172 112.76C120.772 113.3 121.502 113.57 122.362 113.57C123.642 113.57 124.532 113.03 125.032 111.95H130.492C130.212 113.05 129.702 114.04 128.962 114.92C128.242 115.8 127.332 116.49 126.232 116.99C125.132 117.49 123.902 117.74 122.542 117.74C120.902 117.74 119.442 117.39 118.162 116.69C116.882 115.99 115.882 114.99 115.162 113.69C114.442 112.39 114.082 110.87 114.082 109.13C114.082 107.39 114.432 105.87 115.132 104.57C115.852 103.27 116.852 102.27 118.132 101.57C119.412 100.87 120.882 100.52 122.542 100.52C124.162 100.52 125.602 100.86 126.862 101.54C128.122 102.22 129.102 103.19 129.802 104.45C130.522 105.71 130.882 107.18 130.882 108.86ZM125.632 107.51C125.632 106.63 125.332 105.93 124.732 105.41C124.132 104.89 123.382 104.63 122.482 104.63C121.622 104.63 120.892 104.88 120.292 105.38C119.712 105.88 119.352 106.59 119.212 107.51H125.632ZM132.569 109.1C132.569 107.38 132.889 105.87 133.529 104.57C134.189 103.27 135.079 102.27 136.199 101.57C137.319 100.87 138.569 100.52 139.949 100.52C141.049 100.52 142.049 100.75 142.949 101.21C143.869 101.67 144.589 102.29 145.109 103.07V95.3H150.239V117.5H145.109V115.1C144.629 115.9 143.939 116.54 143.039 117.02C142.159 117.5 141.129 117.74 139.949 117.74C138.569 117.74 137.319 117.39 136.199 116.69C135.079 115.97 134.189 114.96 133.529 113.66C132.889 112.34 132.569 110.82 132.569 109.1ZM145.109 109.13C145.109 107.85 144.749 106.84 144.029 106.1C143.329 105.36 142.469 104.99 141.449 104.99C140.429 104.99 139.559 105.36 138.839 106.1C138.139 106.82 137.789 107.82 137.789 109.1C137.789 110.38 138.139 111.4 138.839 112.16C139.559 112.9 140.429 113.27 141.449 113.27C142.469 113.27 143.329 112.9 144.029 112.16C144.749 111.42 145.109 110.41 145.109 109.13ZM165.437 96.44V117.5H160.307V96.44H165.437ZM178.485 113.15V117.5H175.875C174.015 117.5 172.565 117.05 171.525 116.15C170.485 115.23 169.965 113.74 169.965 111.68V105.02H167.925V100.76H169.965V96.68H175.095V100.76H178.455V105.02H175.095V111.74C175.095 112.24 175.215 112.6 175.455 112.82C175.695 113.04 176.095 113.15 176.655 113.15H178.485ZM197.122 108.86C197.122 109.34 197.092 109.84 197.032 110.36H185.422C185.502 111.4 185.832 112.2 186.412 112.76C187.012 113.3 187.742 113.57 188.602 113.57C189.882 113.57 190.772 113.03 191.272 111.95H196.732C196.452 113.05 195.942 114.04 195.202 114.92C194.482 115.8 193.572 116.49 192.472 116.99C191.372 117.49 190.142 117.74 188.782 117.74C187.142 117.74 185.682 117.39 184.402 116.69C183.122 115.99 182.122 114.99 181.402 113.69C180.682 112.39 180.322 110.87 180.322 109.13C180.322 107.39 180.672 105.87 181.372 104.57C182.092 103.27 183.092 102.27 184.372 101.57C185.652 100.87 187.122 100.52 188.782 100.52C190.402 100.52 191.842 100.86 193.102 101.54C194.362 102.22 195.342 103.19 196.042 104.45C196.762 105.71 197.122 107.18 197.122 108.86ZM191.872 107.51C191.872 106.63 191.572 105.93 190.972 105.41C190.372 104.89 189.622 104.63 188.722 104.63C187.862 104.63 187.132 104.88 186.532 105.38C185.952 105.88 185.592 106.59 185.452 107.51H191.872ZM221.189 100.58C223.269 100.58 224.919 101.21 226.139 102.47C227.379 103.73 227.999 105.48 227.999 107.72V117.5H222.899V108.41C222.899 107.33 222.609 106.5 222.029 105.92C221.469 105.32 220.689 105.02 219.689 105.02C218.689 105.02 217.899 105.32 217.319 105.92C216.759 106.5 216.479 107.33 216.479 108.41V117.5H211.379V108.41C211.379 107.33 211.089 106.5 210.509 105.92C209.949 105.32 209.169 105.02 208.169 105.02C207.169 105.02 206.379 105.32 205.799 105.92C205.239 106.5 204.959 107.33 204.959 108.41V117.5H199.829V100.76H204.959V102.86C205.479 102.16 206.159 101.61 206.999 101.21C207.839 100.79 208.789 100.58 209.849 100.58C211.109 100.58 212.229 100.85 213.209 101.39C214.209 101.93 214.989 102.7 215.549 103.7C216.129 102.78 216.919 102.03 217.919 101.45C218.919 100.87 220.009 100.58 221.189 100.58ZM238.397 117.74C236.937 117.74 235.637 117.49 234.497 116.99C233.357 116.49 232.457 115.81 231.797 114.95C231.137 114.07 230.767 113.09 230.687 112.01H235.757C235.817 112.59 236.087 113.06 236.567 113.42C237.047 113.78 237.637 113.96 238.337 113.96C238.977 113.96 239.467 113.84 239.807 113.6C240.167 113.34 240.347 113.01 240.347 112.61C240.347 112.13 240.097 111.78 239.597 111.56C239.097 111.32 238.287 111.06 237.167 110.78C235.967 110.5 234.967 110.21 234.167 109.91C233.367 109.59 232.677 109.1 232.097 108.44C231.517 107.76 231.227 106.85 231.227 105.71C231.227 104.75 231.487 103.88 232.007 103.1C232.547 102.3 233.327 101.67 234.347 101.21C235.387 100.75 236.617 100.52 238.037 100.52C240.137 100.52 241.787 101.04 242.987 102.08C244.207 103.12 244.907 104.5 245.087 106.22H240.347C240.267 105.64 240.007 105.18 239.567 104.84C239.147 104.5 238.587 104.33 237.887 104.33C237.287 104.33 236.827 104.45 236.507 104.69C236.187 104.91 236.027 105.22 236.027 105.62C236.027 106.1 236.277 106.46 236.777 106.7C237.297 106.94 238.097 107.18 239.177 107.42C240.417 107.74 241.427 108.06 242.207 108.38C242.987 108.68 243.667 109.18 244.247 109.88C244.847 110.56 245.157 111.48 245.177 112.64C245.177 113.62 244.897 114.5 244.337 115.28C243.797 116.04 243.007 116.64 241.967 117.08C240.947 117.52 239.757 117.74 238.397 117.74Z" fill="black"/>
<path d="M32.152 168.668C31.048 168.668 30.056 168.476 29.176 168.092C28.312 167.692 27.632 167.148 27.136 166.46C26.64 165.756 26.384 164.948 26.368 164.036H28.696C28.776 164.82 29.096 165.484 29.656 166.028C30.232 166.556 31.064 166.82 32.152 166.82C33.192 166.82 34.008 166.564 34.6 166.052C35.208 165.524 35.512 164.852 35.512 164.036C35.512 163.396 35.336 162.876 34.984 162.476C34.632 162.076 34.192 161.772 33.664 161.564C33.136 161.356 32.424 161.132 31.528 160.892C30.424 160.604 29.536 160.316 28.864 160.028C28.208 159.74 27.64 159.292 27.16 158.684C26.696 158.06 26.464 157.228 26.464 156.188C26.464 155.276 26.696 154.468 27.16 153.764C27.624 153.06 28.272 152.516 29.104 152.132C29.952 151.748 30.92 151.556 32.008 151.556C33.576 151.556 34.856 151.948 35.848 152.732C36.856 153.516 37.424 154.556 37.552 155.852H35.152C35.072 155.212 34.736 154.652 34.144 154.172C33.552 153.676 32.768 153.428 31.792 153.428C30.88 153.428 30.136 153.668 29.56 154.148C28.984 154.612 28.696 155.268 28.696 156.116C28.696 156.724 28.864 157.22 29.2 157.604C29.552 157.988 29.976 158.284 30.472 158.492C30.984 158.684 31.696 158.908 32.608 159.164C33.712 159.468 34.6 159.772 35.272 160.076C35.944 160.364 36.52 160.82 37 161.444C37.48 162.052 37.72 162.884 37.72 163.94C37.72 164.756 37.504 165.524 37.072 166.244C36.64 166.964 36 167.548 35.152 167.996C34.304 168.444 33.304 168.668 32.152 168.668ZM43.5979 157.148V164.9C43.5979 165.54 43.7339 165.996 44.0059 166.268C44.2779 166.524 44.7499 166.652 45.4219 166.652H47.0299V168.5H45.0619C43.8459 168.5 42.9339 168.22 42.3259 167.66C41.7179 167.1 41.4139 166.18 41.4139 164.9V157.148H39.7099V155.348H41.4139V152.036H43.5979V155.348H47.0299V157.148H43.5979ZM48.8601 161.876C48.8601 160.532 49.1321 159.356 49.6761 158.348C50.2201 157.324 50.9641 156.532 51.9081 155.972C52.8681 155.412 53.9321 155.132 55.1001 155.132C56.2521 155.132 57.2521 155.38 58.1001 155.876C58.9481 156.372 59.5801 156.996 59.9961 157.748V155.348H62.2041V168.5H59.9961V166.052C59.5641 166.82 58.9161 167.46 58.0521 167.972C57.2041 168.468 56.2121 168.716 55.0761 168.716C53.9081 168.716 52.8521 168.428 51.9081 167.852C50.9641 167.276 50.2201 166.468 49.6761 165.428C49.1321 164.388 48.8601 163.204 48.8601 161.876ZM59.9961 161.9C59.9961 160.908 59.7961 160.044 59.3961 159.308C58.9961 158.572 58.4521 158.012 57.7641 157.628C57.0921 157.228 56.3481 157.028 55.5321 157.028C54.7161 157.028 53.9721 157.22 53.3001 157.604C52.6281 157.988 52.0921 158.548 51.6921 159.284C51.2921 160.02 51.0921 160.884 51.0921 161.876C51.0921 162.884 51.2921 163.764 51.6921 164.516C52.0921 165.252 52.6281 165.82 53.3001 166.22C53.9721 166.604 54.7161 166.796 55.5321 166.796C56.3481 166.796 57.0921 166.604 57.7641 166.22C58.4521 165.82 58.9961 165.252 59.3961 164.516C59.7961 163.764 59.9961 162.892 59.9961 161.9ZM68.0789 157.484C68.4629 156.732 69.0069 156.148 69.7109 155.732C70.4309 155.316 71.3029 155.108 72.3269 155.108V157.364H71.7509C69.3029 157.364 68.0789 158.692 68.0789 161.348V168.5H65.8949V155.348H68.0789V157.484ZM77.512 157.148V164.9C77.512 165.54 77.648 165.996 77.92 166.268C78.192 166.524 78.664 166.652 79.336 166.652H80.944V168.5H78.976C77.76 168.5 76.848 168.22 76.24 167.66C75.632 167.1 75.328 166.18 75.328 164.9V157.148H73.624V155.348H75.328V152.036H77.512V155.348H80.944V157.148H77.512ZM101.653 155.348V168.5H99.4686V166.556C99.0526 167.228 98.4686 167.756 97.7166 168.14C96.9806 168.508 96.1646 168.692 95.2686 168.692C94.2446 168.692 93.3246 168.484 92.5086 168.068C91.6926 167.636 91.0446 166.996 90.5646 166.148C90.1006 165.3 89.8686 164.268 89.8686 163.052V155.348H92.0286V162.764C92.0286 164.06 92.3566 165.06 93.0126 165.764C93.6686 166.452 94.5646 166.796 95.7006 166.796C96.8686 166.796 97.7886 166.436 98.4606 165.716C99.1326 164.996 99.4686 163.948 99.4686 162.572V155.348H101.653ZM111.748 155.108C113.348 155.108 114.644 155.596 115.636 156.572C116.628 157.532 117.124 158.924 117.124 160.748V168.5H114.964V161.06C114.964 159.748 114.636 158.748 113.98 158.06C113.324 157.356 112.428 157.004 111.292 157.004C110.14 157.004 109.22 157.364 108.532 158.084C107.86 158.804 107.524 159.852 107.524 161.228V168.5H105.34V155.348H107.524V157.22C107.956 156.548 108.54 156.028 109.276 155.66C110.028 155.292 110.852 155.108 111.748 155.108ZM122.876 157.796C123.324 157.012 123.98 156.372 124.844 155.876C125.708 155.38 126.692 155.132 127.796 155.132C128.98 155.132 130.044 155.412 130.988 155.972C131.932 156.532 132.676 157.324 133.22 158.348C133.764 159.356 134.036 160.532 134.036 161.876C134.036 163.204 133.764 164.388 133.22 165.428C132.676 166.468 131.924 167.276 130.964 167.852C130.02 168.428 128.964 168.716 127.796 168.716C126.66 168.716 125.66 168.468 124.796 167.972C123.948 167.476 123.308 166.844 122.876 166.076V168.5H120.692V150.74H122.876V157.796ZM131.804 161.876C131.804 160.884 131.604 160.02 131.204 159.284C130.804 158.548 130.26 157.988 129.572 157.604C128.9 157.22 128.156 157.028 127.34 157.028C126.54 157.028 125.796 157.228 125.108 157.628C124.436 158.012 123.892 158.58 123.476 159.332C123.076 160.068 122.876 160.924 122.876 161.9C122.876 162.892 123.076 163.764 123.476 164.516C123.892 165.252 124.436 165.82 125.108 166.22C125.796 166.604 126.54 166.796 127.34 166.796C128.156 166.796 128.9 166.604 129.572 166.22C130.26 165.82 130.804 165.252 131.204 164.516C131.604 163.764 131.804 162.884 131.804 161.876ZM142.647 168.716C141.415 168.716 140.295 168.436 139.287 167.876C138.295 167.316 137.511 166.524 136.935 165.5C136.375 164.46 136.095 163.26 136.095 161.9C136.095 160.556 136.383 159.372 136.959 158.348C137.551 157.308 138.351 156.516 139.359 155.972C140.367 155.412 141.495 155.132 142.743 155.132C143.991 155.132 145.119 155.412 146.127 155.972C147.135 156.516 147.927 157.3 148.503 158.324C149.095 159.348 149.391 160.54 149.391 161.9C149.391 163.26 149.087 164.46 148.479 165.5C147.887 166.524 147.079 167.316 146.055 167.876C145.031 168.436 143.895 168.716 142.647 168.716ZM142.647 166.796C143.431 166.796 144.167 166.612 144.855 166.244C145.543 165.876 146.095 165.324 146.511 164.588C146.943 163.852 147.159 162.956 147.159 161.9C147.159 160.844 146.951 159.948 146.535 159.212C146.119 158.476 145.575 157.932 144.903 157.58C144.231 157.212 143.503 157.028 142.719 157.028C141.919 157.028 141.183 157.212 140.511 157.58C139.855 157.932 139.327 158.476 138.927 159.212C138.527 159.948 138.327 160.844 138.327 161.9C138.327 162.972 138.519 163.876 138.903 164.612C139.303 165.348 139.831 165.9 140.487 166.268C141.143 166.62 141.863 166.796 142.647 166.796ZM159.126 168.5L156.006 163.604L153.006 168.5H150.726L154.974 161.972L150.726 155.348H153.198L156.318 160.22L159.294 155.348H161.574L157.35 161.852L161.598 168.5H159.126ZM164.874 153.212C164.458 153.212 164.106 153.068 163.818 152.78C163.53 152.492 163.386 152.14 163.386 151.724C163.386 151.308 163.53 150.956 163.818 150.668C164.106 150.38 164.458 150.236 164.874 150.236C165.274 150.236 165.61 150.38 165.882 150.668C166.17 150.956 166.314 151.308 166.314 151.724C166.314 152.14 166.17 152.492 165.882 152.78C165.61 153.068 165.274 153.212 164.874 153.212ZM165.93 155.348V168.5H163.746V155.348H165.93ZM176.061 155.108C177.661 155.108 178.957 155.596 179.949 156.572C180.941 157.532 181.437 158.924 181.437 160.748V168.5H179.277V161.06C179.277 159.748 178.949 158.748 178.293 158.06C177.637 157.356 176.741 157.004 175.605 157.004C174.453 157.004 173.533 157.364 172.845 158.084C172.173 158.804 171.837 159.852 171.837 161.228V168.5H169.653V155.348H171.837V157.22C172.269 156.548 172.853 156.028 173.589 155.66C174.341 155.292 175.165 155.108 176.061 155.108ZM190.428 155.132C191.564 155.132 192.556 155.38 193.404 155.876C194.268 156.372 194.908 156.996 195.324 157.748V155.348H197.532V168.788C197.532 169.988 197.276 171.052 196.764 171.98C196.252 172.924 195.516 173.66 194.556 174.188C193.612 174.716 192.508 174.98 191.244 174.98C189.516 174.98 188.076 174.572 186.924 173.756C185.772 172.94 185.092 171.828 184.884 170.42H187.044C187.284 171.22 187.78 171.86 188.532 172.34C189.284 172.836 190.188 173.084 191.244 173.084C192.444 173.084 193.42 172.708 194.172 171.956C194.94 171.204 195.324 170.148 195.324 168.788V166.028C194.892 166.796 194.252 167.436 193.404 167.948C192.556 168.46 191.564 168.716 190.428 168.716C189.26 168.716 188.196 168.428 187.236 167.852C186.292 167.276 185.548 166.468 185.004 165.428C184.46 164.388 184.188 163.204 184.188 161.876C184.188 160.532 184.46 159.356 185.004 158.348C185.548 157.324 186.292 156.532 187.236 155.972C188.196 155.412 189.26 155.132 190.428 155.132ZM195.324 161.9C195.324 160.908 195.124 160.044 194.724 159.308C194.324 158.572 193.78 158.012 193.092 157.628C192.42 157.228 191.676 157.028 190.86 157.028C190.044 157.028 189.3 157.22 188.628 157.604C187.956 157.988 187.42 158.548 187.02 159.284C186.62 160.02 186.42 160.884 186.42 161.876C186.42 162.884 186.62 163.764 187.02 164.516C187.42 165.252 187.956 165.82 188.628 166.22C189.3 166.604 190.044 166.796 190.86 166.796C191.676 166.796 192.42 166.604 193.092 166.22C193.78 165.82 194.324 165.252 194.724 164.516C195.124 163.764 195.324 162.892 195.324 161.9ZM206.805 161.876C206.805 160.532 207.077 159.356 207.621 158.348C208.165 157.324 208.909 156.532 209.853 155.972C210.813 155.412 211.877 155.132 213.045 155.132C214.197 155.132 215.197 155.38 216.045 155.876C216.893 156.372 217.525 156.996 217.941 157.748V155.348H220.149V168.5H217.941V166.052C217.509 166.82 216.861 167.46 215.997 167.972C215.149 168.468 214.157 168.716 213.021 168.716C211.853 168.716 210.797 168.428 209.853 167.852C208.909 167.276 208.165 166.468 207.621 165.428C207.077 164.388 206.805 163.204 206.805 161.876ZM217.941 161.9C217.941 160.908 217.741 160.044 217.341 159.308C216.941 158.572 216.397 158.012 215.709 157.628C215.037 157.228 214.293 157.028 213.477 157.028C212.661 157.028 211.917 157.22 211.245 157.604C210.573 157.988 210.037 158.548 209.637 159.284C209.237 160.02 209.037 160.884 209.037 161.876C209.037 162.884 209.237 163.764 209.637 164.516C210.037 165.252 210.573 165.82 211.245 166.22C211.917 166.604 212.661 166.796 213.477 166.796C214.293 166.796 215.037 166.604 215.709 166.22C216.397 165.82 216.941 165.252 217.341 164.516C217.741 163.764 217.941 162.892 217.941 161.9ZM235.504 155.348V168.5H233.32V166.556C232.904 167.228 232.32 167.756 231.568 168.14C230.832 168.508 230.016 168.692 229.12 168.692C228.096 168.692 227.176 168.484 226.36 168.068C225.544 167.636 224.896 166.996 224.416 166.148C223.952 165.3 223.72 164.268 223.72 163.052V155.348H225.88V162.764C225.88 164.06 226.208 165.06 226.864 165.764C227.52 166.452 228.416 166.796 229.552 166.796C230.72 166.796 231.64 166.436 232.312 165.716C232.984 164.996 233.32 163.948 233.32 162.572V155.348H235.504ZM241.856 157.148V164.9C241.856 165.54 241.992 165.996 242.264 166.268C242.536 166.524 243.008 166.652 243.68 166.652H245.288V168.5H243.32C242.104 168.5 241.192 168.22 240.584 167.66C239.976 167.1 239.672 166.18 239.672 164.9V157.148H237.968V155.348H239.672V152.036H241.856V155.348H245.288V157.148H241.856ZM254.462 155.108C255.454 155.108 256.35 155.324 257.15 155.756C257.95 156.172 258.574 156.804 259.022 157.652C259.486 158.5 259.718 159.532 259.718 160.748V168.5H257.558V161.06C257.558 159.748 257.23 158.748 256.574 158.06C255.918 157.356 255.022 157.004 253.886 157.004C252.734 157.004 251.814 157.364 251.126 158.084C250.454 158.804 250.118 159.852 250.118 161.228V168.5H247.934V150.74H250.118V157.22C250.55 156.548 251.142 156.028 251.894 155.66C252.662 155.292 253.518 155.108 254.462 155.108ZM275.286 161.42C275.286 161.836 275.262 162.276 275.214 162.74H264.702C264.782 164.036 265.222 165.052 266.022 165.788C266.838 166.508 267.822 166.868 268.974 166.868C269.918 166.868 270.702 166.652 271.326 166.22C271.966 165.772 272.414 165.18 272.67 164.444H275.022C274.67 165.708 273.966 166.74 272.91 167.54C271.854 168.324 270.542 168.716 268.974 168.716C267.726 168.716 266.606 168.436 265.614 167.876C264.638 167.316 263.87 166.524 263.31 165.5C262.75 164.46 262.47 163.26 262.47 161.9C262.47 160.54 262.742 159.348 263.286 158.324C263.83 157.3 264.59 156.516 265.566 155.972C266.558 155.412 267.694 155.132 268.974 155.132C270.222 155.132 271.326 155.404 272.286 155.948C273.246 156.492 273.982 157.244 274.494 158.204C275.022 159.148 275.286 160.22 275.286 161.42ZM273.03 160.964C273.03 160.132 272.846 159.42 272.478 158.828C272.11 158.22 271.606 157.764 270.966 157.46C270.342 157.14 269.646 156.98 268.878 156.98C267.774 156.98 266.83 157.332 266.046 158.036C265.278 158.74 264.838 159.716 264.726 160.964H273.03ZM284.576 155.108C286.176 155.108 287.472 155.596 288.464 156.572C289.456 157.532 289.952 158.924 289.952 160.748V168.5H287.792V161.06C287.792 159.748 287.464 158.748 286.808 158.06C286.152 157.356 285.256 157.004 284.12 157.004C282.968 157.004 282.048 157.364 281.36 158.084C280.688 158.804 280.352 159.852 280.352 161.228V168.5H278.168V155.348H280.352V157.22C280.784 156.548 281.368 156.028 282.104 155.66C282.856 155.292 283.68 155.108 284.576 155.108ZM296.184 157.148V164.9C296.184 165.54 296.32 165.996 296.592 166.268C296.864 166.524 297.336 166.652 298.008 166.652H299.616V168.5H297.648C296.432 168.5 295.52 168.22 294.912 167.66C294.304 167.1 294 166.18 294 164.9V157.148H292.296V155.348H294V152.036H296.184V155.348H299.616V157.148H296.184ZM303.39 153.212C302.974 153.212 302.622 153.068 302.334 152.78C302.046 152.492 301.902 152.14 301.902 151.724C301.902 151.308 302.046 150.956 302.334 150.668C302.622 150.38 302.974 150.236 303.39 150.236C303.79 150.236 304.126 150.38 304.398 150.668C304.686 150.956 304.83 151.308 304.83 151.724C304.83 152.14 304.686 152.492 304.398 152.78C304.126 153.068 303.79 153.212 303.39 153.212ZM304.446 155.348V168.5H302.262V155.348H304.446ZM307.352 161.9C307.352 160.54 307.624 159.356 308.168 158.348C308.712 157.324 309.464 156.532 310.424 155.972C311.4 155.412 312.512 155.132 313.76 155.132C315.376 155.132 316.704 155.524 317.744 156.308C318.8 157.092 319.496 158.18 319.832 159.572H317.48C317.256 158.772 316.816 158.14 316.16 157.676C315.52 157.212 314.72 156.98 313.76 156.98C312.512 156.98 311.504 157.412 310.736 158.276C309.968 159.124 309.584 160.332 309.584 161.9C309.584 163.484 309.968 164.708 310.736 165.572C311.504 166.436 312.512 166.868 313.76 166.868C314.72 166.868 315.52 166.644 316.16 166.196C316.8 165.748 317.24 165.108 317.48 164.276H319.832C319.48 165.62 318.776 166.7 317.72 167.516C316.664 168.316 315.344 168.716 313.76 168.716C312.512 168.716 311.4 168.436 310.424 167.876C309.464 167.316 308.712 166.524 308.168 165.5C307.624 164.476 307.352 163.276 307.352 161.9ZM331.329 157.772C331.761 157.02 332.401 156.396 333.249 155.9C334.113 155.388 335.113 155.132 336.249 155.132C337.417 155.132 338.473 155.412 339.417 155.972C340.377 156.532 341.129 157.324 341.673 158.348C342.217 159.356 342.489 160.532 342.489 161.876C342.489 163.204 342.217 164.388 341.673 165.428C341.129 166.468 340.377 167.276 339.417 167.852C338.473 168.428 337.417 168.716 336.249 168.716C335.129 168.716 334.137 168.468 333.273 167.972C332.425 167.46 331.777 166.828 331.329 166.076V174.74H329.145V155.348H331.329V157.772ZM340.257 161.876C340.257 160.884 340.057 160.02 339.657 159.284C339.257 158.548 338.713 157.988 338.025 157.604C337.353 157.22 336.609 157.028 335.793 157.028C334.993 157.028 334.249 157.228 333.561 157.628C332.889 158.012 332.345 158.58 331.929 159.332C331.529 160.068 331.329 160.924 331.329 161.9C331.329 162.892 331.529 163.764 331.929 164.516C332.345 165.252 332.889 165.82 333.561 166.22C334.249 166.604 334.993 166.796 335.793 166.796C336.609 166.796 337.353 166.604 338.025 166.22C338.713 165.82 339.257 165.252 339.657 164.516C340.057 163.764 340.257 162.884 340.257 161.876ZM347.548 157.484C347.932 156.732 348.476 156.148 349.18 155.732C349.9 155.316 350.772 155.108 351.796 155.108V157.364H351.22C348.772 157.364 347.548 158.692 347.548 161.348V168.5H345.364V155.348H347.548V157.484ZM360.053 168.716C358.821 168.716 357.701 168.436 356.693 167.876C355.701 167.316 354.917 166.524 354.341 165.5C353.781 164.46 353.501 163.26 353.501 161.9C353.501 160.556 353.789 159.372 354.365 158.348C354.957 157.308 355.757 156.516 356.765 155.972C357.773 155.412 358.901 155.132 360.149 155.132C361.397 155.132 362.525 155.412 363.533 155.972C364.541 156.516 365.333 157.3 365.909 158.324C366.501 159.348 366.797 160.54 366.797 161.9C366.797 163.26 366.493 164.46 365.885 165.5C365.293 166.524 364.485 167.316 363.461 167.876C362.437 168.436 361.301 168.716 360.053 168.716ZM360.053 166.796C360.837 166.796 361.573 166.612 362.261 166.244C362.949 165.876 363.501 165.324 363.917 164.588C364.349 163.852 364.565 162.956 364.565 161.9C364.565 160.844 364.357 159.948 363.941 159.212C363.525 158.476 362.981 157.932 362.309 157.58C361.637 157.212 360.909 157.028 360.125 157.028C359.325 157.028 358.589 157.212 357.917 157.58C357.261 157.932 356.733 158.476 356.333 159.212C355.933 159.948 355.733 160.844 355.733 161.9C355.733 162.972 355.925 163.876 356.309 164.612C356.709 165.348 357.237 165.9 357.893 166.268C358.549 166.62 359.269 166.796 360.053 166.796ZM368.852 161.876C368.852 160.532 369.124 159.356 369.668 158.348C370.212 157.324 370.956 156.532 371.9 155.972C372.86 155.412 373.932 155.132 375.116 155.132C376.14 155.132 377.092 155.372 377.972 155.852C378.852 156.316 379.524 156.932 379.988 157.7V150.74H382.196V168.5H379.988V166.028C379.556 166.812 378.916 167.46 378.068 167.972C377.22 168.468 376.228 168.716 375.092 168.716C373.924 168.716 372.86 168.428 371.9 167.852C370.956 167.276 370.212 166.468 369.668 165.428C369.124 164.388 368.852 163.204 368.852 161.876ZM379.988 161.9C379.988 160.908 379.788 160.044 379.388 159.308C378.988 158.572 378.444 158.012 377.756 157.628C377.084 157.228 376.34 157.028 375.524 157.028C374.708 157.028 373.964 157.22 373.292 157.604C372.62 157.988 372.084 158.548 371.684 159.284C371.284 160.02 371.084 160.884 371.084 161.876C371.084 162.884 371.284 163.764 371.684 164.516C372.084 165.252 372.62 165.82 373.292 166.22C373.964 166.604 374.708 166.796 375.524 166.796C376.34 166.796 377.084 166.604 377.756 166.22C378.444 165.82 378.988 165.252 379.388 164.516C379.788 163.764 379.988 162.892 379.988 161.9ZM397.551 155.348V168.5H395.367V166.556C394.951 167.228 394.367 167.756 393.615 168.14C392.879 168.508 392.063 168.692 391.167 168.692C390.143 168.692 389.223 168.484 388.407 168.068C387.591 167.636 386.943 166.996 386.463 166.148C385.999 165.3 385.767 164.268 385.767 163.052V155.348H387.927V162.764C387.927 164.06 388.255 165.06 388.911 165.764C389.567 166.452 390.463 166.796 391.599 166.796C392.767 166.796 393.687 166.436 394.359 165.716C395.031 164.996 395.367 163.948 395.367 162.572V155.348H397.551ZM400.423 161.9C400.423 160.54 400.695 159.356 401.239 158.348C401.783 157.324 402.535 156.532 403.495 155.972C404.471 155.412 405.583 155.132 406.831 155.132C408.447 155.132 409.775 155.524 410.815 156.308C411.871 157.092 412.567 158.18 412.903 159.572H410.551C410.327 158.772 409.887 158.14 409.231 157.676C408.591 157.212 407.791 156.98 406.831 156.98C405.583 156.98 404.575 157.412 403.807 158.276C403.039 159.124 402.655 160.332 402.655 161.9C402.655 163.484 403.039 164.708 403.807 165.572C404.575 166.436 405.583 166.868 406.831 166.868C407.791 166.868 408.591 166.644 409.231 166.196C409.871 165.748 410.311 165.108 410.551 164.276H412.903C412.551 165.62 411.847 166.7 410.791 167.516C409.735 168.316 408.415 168.716 406.831 168.716C405.583 168.716 404.471 168.436 403.495 167.876C402.535 167.316 401.783 166.524 401.239 165.5C400.695 164.476 400.423 163.276 400.423 161.9ZM418.481 157.148V164.9C418.481 165.54 418.617 165.996 418.889 166.268C419.161 166.524 419.633 166.652 420.305 166.652H421.913V168.5H419.945C418.729 168.5 417.817 168.22 417.209 167.66C416.601 167.1 416.297 166.18 416.297 164.9V157.148H414.593V155.348H416.297V152.036H418.481V155.348H421.913V157.148H418.481ZM429.215 168.716C428.207 168.716 427.303 168.548 426.503 168.212C425.703 167.86 425.071 167.38 424.607 166.772C424.143 166.148 423.887 165.436 423.839 164.636H426.095C426.159 165.292 426.463 165.828 427.007 166.244C427.567 166.66 428.295 166.868 429.191 166.868C430.023 166.868 430.679 166.684 431.159 166.316C431.639 165.948 431.879 165.484 431.879 164.924C431.879 164.348 431.623 163.924 431.111 163.652C430.599 163.364 429.807 163.084 428.735 162.812C427.759 162.556 426.959 162.3 426.335 162.044C425.727 161.772 425.199 161.38 424.751 160.868C424.319 160.34 424.103 159.652 424.103 158.804C424.103 158.132 424.303 157.516 424.703 156.956C425.103 156.396 425.671 155.956 426.407 155.636C427.143 155.3 427.983 155.132 428.927 155.132C430.383 155.132 431.559 155.5 432.455 156.236C433.351 156.972 433.831 157.98 433.895 159.26H431.711C431.663 158.572 431.383 158.02 430.871 157.604C430.375 157.188 429.703 156.98 428.855 156.98C428.071 156.98 427.447 157.148 426.983 157.484C426.519 157.82 426.287 158.26 426.287 158.804C426.287 159.236 426.423 159.596 426.695 159.884C426.983 160.156 427.335 160.38 427.751 160.556C428.183 160.716 428.775 160.9 429.527 161.108C430.471 161.364 431.239 161.62 431.831 161.876C432.423 162.116 432.927 162.484 433.343 162.98C433.775 163.476 433.999 164.124 434.015 164.924C434.015 165.644 433.815 166.292 433.415 166.868C433.015 167.444 432.447 167.9 431.711 168.236C430.991 168.556 430.159 168.716 429.215 168.716ZM448.848 157.148H446.088V168.5H443.904V157.148H442.2V155.348H443.904V154.412C443.904 152.94 444.28 151.868 445.032 151.196C445.8 150.508 447.024 150.164 448.704 150.164V151.988C447.744 151.988 447.064 152.18 446.664 152.564C446.28 152.932 446.088 153.548 446.088 154.412V155.348H448.848V157.148ZM453.579 157.484C453.963 156.732 454.507 156.148 455.211 155.732C455.931 155.316 456.803 155.108 457.827 155.108V157.364H457.251C454.803 157.364 453.579 158.692 453.579 161.348V168.5H451.395V155.348H453.579V157.484ZM466.084 168.716C464.852 168.716 463.732 168.436 462.724 167.876C461.732 167.316 460.948 166.524 460.372 165.5C459.812 164.46 459.532 163.26 459.532 161.9C459.532 160.556 459.82 159.372 460.396 158.348C460.988 157.308 461.788 156.516 462.796 155.972C463.804 155.412 464.932 155.132 466.18 155.132C467.428 155.132 468.556 155.412 469.564 155.972C470.572 156.516 471.364 157.3 471.94 158.324C472.532 159.348 472.828 160.54 472.828 161.9C472.828 163.26 472.524 164.46 471.916 165.5C471.324 166.524 470.516 167.316 469.492 167.876C468.468 168.436 467.332 168.716 466.084 168.716ZM466.084 166.796C466.868 166.796 467.604 166.612 468.292 166.244C468.98 165.876 469.532 165.324 469.948 164.588C470.38 163.852 470.596 162.956 470.596 161.9C470.596 160.844 470.388 159.948 469.972 159.212C469.556 158.476 469.012 157.932 468.34 157.58C467.668 157.212 466.94 157.028 466.156 157.028C465.356 157.028 464.62 157.212 463.948 157.58C463.292 157.932 462.764 158.476 462.364 159.212C461.964 159.948 461.764 160.844 461.764 161.9C461.764 162.972 461.956 163.876 462.34 164.612C462.74 165.348 463.268 165.9 463.924 166.268C464.58 166.62 465.3 166.796 466.084 166.796ZM491.516 155.108C492.54 155.108 493.452 155.324 494.252 155.756C495.052 156.172 495.684 156.804 496.148 157.652C496.612 158.5 496.844 159.532 496.844 160.748V168.5H494.684V161.06C494.684 159.748 494.356 158.748 493.7 158.06C493.06 157.356 492.188 157.004 491.084 157.004C489.948 157.004 489.044 157.372 488.372 158.108C487.7 158.828 487.364 159.876 487.364 161.252V168.5H485.204V161.06C485.204 159.748 484.876 158.748 484.22 158.06C483.58 157.356 482.708 157.004 481.604 157.004C480.468 157.004 479.564 157.372 478.892 158.108C478.22 158.828 477.884 159.876 477.884 161.252V168.5H475.7V155.348H477.884V157.244C478.316 156.556 478.892 156.028 479.612 155.66C480.348 155.292 481.156 155.108 482.036 155.108C483.14 155.108 484.116 155.356 484.964 155.852C485.812 156.348 486.444 157.076 486.86 158.036C487.228 157.108 487.836 156.388 488.684 155.876C489.532 155.364 490.476 155.108 491.516 155.108ZM509.009 157.796C509.457 157.012 510.113 156.372 510.977 155.876C511.841 155.38 512.825 155.132 513.929 155.132C515.113 155.132 516.177 155.412 517.121 155.972C518.065 156.532 518.809 157.324 519.353 158.348C519.897 159.356 520.169 160.532 520.169 161.876C520.169 163.204 519.897 164.388 519.353 165.428C518.809 166.468 518.057 167.276 517.097 167.852C516.153 168.428 515.097 168.716 513.929 168.716C512.793 168.716 511.793 168.468 510.929 167.972C510.081 167.476 509.441 166.844 509.009 166.076V168.5H506.825V150.74H509.009V157.796ZM517.937 161.876C517.937 160.884 517.737 160.02 517.337 159.284C516.937 158.548 516.393 157.988 515.705 157.604C515.033 157.22 514.289 157.028 513.473 157.028C512.673 157.028 511.929 157.228 511.241 157.628C510.569 158.012 510.025 158.58 509.609 159.332C509.209 160.068 509.009 160.924 509.009 161.9C509.009 162.892 509.209 163.764 509.609 164.516C510.025 165.252 510.569 165.82 511.241 166.22C511.929 166.604 512.673 166.796 513.473 166.796C514.289 166.796 515.033 166.604 515.705 166.22C516.393 165.82 516.937 165.252 517.337 164.516C517.737 163.764 517.937 162.884 517.937 161.876ZM525.227 157.484C525.611 156.732 526.155 156.148 526.859 155.732C527.579 155.316 528.451 155.108 529.475 155.108V157.364H528.899C526.451 157.364 525.227 158.692 525.227 161.348V168.5H523.043V155.348H525.227V157.484ZM531.18 161.876C531.18 160.532 531.452 159.356 531.996 158.348C532.54 157.324 533.284 156.532 534.228 155.972C535.188 155.412 536.252 155.132 537.42 155.132C538.572 155.132 539.572 155.38 540.42 155.876C541.268 156.372 541.9 156.996 542.316 157.748V155.348H544.524V168.5H542.316V166.052C541.884 166.82 541.236 167.46 540.372 167.972C539.524 168.468 538.532 168.716 537.396 168.716C536.228 168.716 535.172 168.428 534.228 167.852C533.284 167.276 532.54 166.468 531.996 165.428C531.452 164.388 531.18 163.204 531.18 161.876ZM542.316 161.9C542.316 160.908 542.116 160.044 541.716 159.308C541.316 158.572 540.772 158.012 540.084 157.628C539.412 157.228 538.668 157.028 537.852 157.028C537.036 157.028 536.292 157.22 535.62 157.604C534.948 157.988 534.412 158.548 534.012 159.284C533.612 160.02 533.412 160.884 533.412 161.876C533.412 162.884 533.612 163.764 534.012 164.516C534.412 165.252 534.948 165.82 535.62 166.22C536.292 166.604 537.036 166.796 537.852 166.796C538.668 166.796 539.412 166.604 540.084 166.22C540.772 165.82 541.316 165.252 541.716 164.516C542.116 163.764 542.316 162.892 542.316 161.9ZM554.623 155.108C556.223 155.108 557.519 155.596 558.511 156.572C559.503 157.532 559.999 158.924 559.999 160.748V168.5H557.839V161.06C557.839 159.748 557.511 158.748 556.855 158.06C556.199 157.356 555.303 157.004 554.167 157.004C553.015 157.004 552.095 157.364 551.407 158.084C550.735 158.804 550.399 159.852 550.399 161.228V168.5H548.215V155.348H550.399V157.22C550.831 156.548 551.415 156.028 552.151 155.66C552.903 155.292 553.727 155.108 554.623 155.108ZM562.751 161.876C562.751 160.532 563.023 159.356 563.567 158.348C564.111 157.324 564.855 156.532 565.799 155.972C566.759 155.412 567.831 155.132 569.015 155.132C570.039 155.132 570.991 155.372 571.871 155.852C572.751 156.316 573.423 156.932 573.887 157.7V150.74H576.095V168.5H573.887V166.028C573.455 166.812 572.815 167.46 571.967 167.972C571.119 168.468 570.127 168.716 568.991 168.716C567.823 168.716 566.759 168.428 565.799 167.852C564.855 167.276 564.111 166.468 563.567 165.428C563.023 164.388 562.751 163.204 562.751 161.876ZM573.887 161.9C573.887 160.908 573.687 160.044 573.287 159.308C572.887 158.572 572.343 158.012 571.655 157.628C570.983 157.228 570.239 157.028 569.423 157.028C568.607 157.028 567.863 157.22 567.191 157.604C566.519 157.988 565.983 158.548 565.583 159.284C565.183 160.02 564.983 160.884 564.983 161.876C564.983 162.884 565.183 163.764 565.583 164.516C565.983 165.252 566.519 165.82 567.191 166.22C567.863 166.604 568.607 166.796 569.423 166.796C570.239 166.796 570.983 166.604 571.655 166.22C572.343 165.82 572.887 165.252 573.287 164.516C573.687 163.764 573.887 162.892 573.887 161.9ZM584.442 168.716C583.434 168.716 582.53 168.548 581.73 168.212C580.93 167.86 580.298 167.38 579.834 166.772C579.37 166.148 579.114 165.436 579.066 164.636H581.322C581.386 165.292 581.69 165.828 582.234 166.244C582.794 166.66 583.522 166.868 584.418 166.868C585.25 166.868 585.906 166.684 586.386 166.316C586.866 165.948 587.106 165.484 587.106 164.924C587.106 164.348 586.85 163.924 586.338 163.652C585.826 163.364 585.034 163.084 583.962 162.812C582.986 162.556 582.186 162.3 581.562 162.044C580.954 161.772 580.426 161.38 579.978 160.868C579.546 160.34 579.33 159.652 579.33 158.804C579.33 158.132 579.53 157.516 579.93 156.956C580.33 156.396 580.898 155.956 581.634 155.636C582.37 155.3 583.21 155.132 584.154 155.132C585.61 155.132 586.786 155.5 587.682 156.236C588.578 156.972 589.058 157.98 589.122 159.26H586.938C586.89 158.572 586.61 158.02 586.098 157.604C585.602 157.188 584.93 156.98 584.082 156.98C583.298 156.98 582.674 157.148 582.21 157.484C581.746 157.82 581.514 158.26 581.514 158.804C581.514 159.236 581.65 159.596 581.922 159.884C582.21 160.156 582.562 160.38 582.978 160.556C583.41 160.716 584.002 160.9 584.754 161.108C585.698 161.364 586.466 161.62 587.058 161.876C587.65 162.116 588.154 162.484 588.57 162.98C589.002 163.476 589.226 164.124 589.242 164.924C589.242 165.644 589.042 166.292 588.642 166.868C588.242 167.444 587.674 167.9 586.938 168.236C586.218 168.556 585.386 168.716 584.442 168.716ZM600.907 150.74V168.5H598.723V150.74H600.907ZM605.757 153.212C605.341 153.212 604.989 153.068 604.701 152.78C604.413 152.492 604.269 152.14 604.269 151.724C604.269 151.308 604.413 150.956 604.701 150.668C604.989 150.38 605.341 150.236 605.757 150.236C606.157 150.236 606.493 150.38 606.765 150.668C607.053 150.956 607.197 151.308 607.197 151.724C607.197 152.14 607.053 152.492 606.765 152.78C606.493 153.068 606.157 153.212 605.757 153.212ZM606.813 155.348V168.5H604.629V155.348H606.813ZM617.88 168.5L612.72 162.692V168.5H610.536V150.74H612.72V161.18L617.784 155.348H620.832L614.64 161.9L620.856 168.5H617.88ZM634.887 161.42C634.887 161.836 634.863 162.276 634.815 162.74H624.303C624.383 164.036 624.823 165.052 625.623 165.788C626.439 166.508 627.423 166.868 628.575 166.868C629.519 166.868 630.303 166.652 630.927 166.22C631.567 165.772 632.015 165.18 632.271 164.444H634.623C634.271 165.708 633.567 166.74 632.511 167.54C631.455 168.324 630.143 168.716 628.575 168.716C627.327 168.716 626.207 168.436 625.215 167.876C624.239 167.316 623.471 166.524 622.911 165.5C622.351 164.46 622.071 163.26 622.071 161.9C622.071 160.54 622.343 159.348 622.887 158.324C623.431 157.3 624.191 156.516 625.167 155.972C626.159 155.412 627.295 155.132 628.575 155.132C629.823 155.132 630.927 155.404 631.887 155.948C632.847 156.492 633.583 157.244 634.095 158.204C634.623 159.148 634.887 160.22 634.887 161.42ZM632.631 160.964C632.631 160.132 632.447 159.42 632.079 158.828C631.711 158.22 631.207 157.764 630.567 157.46C629.943 157.14 629.247 156.98 628.479 156.98C627.375 156.98 626.431 157.332 625.647 158.036C624.879 158.74 624.439 159.716 624.327 160.964H632.631ZM32.152 202.668C31.048 202.668 30.056 202.476 29.176 202.092C28.312 201.692 27.632 201.148 27.136 200.46C26.64 199.756 26.384 198.948 26.368 198.036H28.696C28.776 198.82 29.096 199.484 29.656 200.028C30.232 200.556 31.064 200.82 32.152 200.82C33.192 200.82 34.008 200.564 34.6 200.052C35.208 199.524 35.512 198.852 35.512 198.036C35.512 197.396 35.336 196.876 34.984 196.476C34.632 196.076 34.192 195.772 33.664 195.564C33.136 195.356 32.424 195.132 31.528 194.892C30.424 194.604 29.536 194.316 28.864 194.028C28.208 193.74 27.64 193.292 27.16 192.684C26.696 192.06 26.464 191.228 26.464 190.188C26.464 189.276 26.696 188.468 27.16 187.764C27.624 187.06 28.272 186.516 29.104 186.132C29.952 185.748 30.92 185.556 32.008 185.556C33.576 185.556 34.856 185.948 35.848 186.732C36.856 187.516 37.424 188.556 37.552 189.852H35.152C35.072 189.212 34.736 188.652 34.144 188.172C33.552 187.676 32.768 187.428 31.792 187.428C30.88 187.428 30.136 187.668 29.56 188.148C28.984 188.612 28.696 189.268 28.696 190.116C28.696 190.724 28.864 191.22 29.2 191.604C29.552 191.988 29.976 192.284 30.472 192.492C30.984 192.684 31.696 192.908 32.608 193.164C33.712 193.468 34.6 193.772 35.272 194.076C35.944 194.364 36.52 194.82 37 195.444C37.48 196.052 37.72 196.884 37.72 197.94C37.72 198.756 37.504 199.524 37.072 200.244C36.64 200.964 36 201.548 35.152 201.996C34.304 202.444 33.304 202.668 32.152 202.668ZM52.5979 189.348V202.5H50.4139V200.556C49.9979 201.228 49.4139 201.756 48.6619 202.14C47.9259 202.508 47.1099 202.692 46.2139 202.692C45.1899 202.692 44.2699 202.484 43.4539 202.068C42.6379 201.636 41.9899 200.996 41.5099 200.148C41.0459 199.3 40.8139 198.268 40.8139 197.052V189.348H42.9739V196.764C42.9739 198.06 43.3019 199.06 43.9579 199.764C44.6139 200.452 45.5099 200.796 46.6459 200.796C47.8139 200.796 48.7339 200.436 49.4059 199.716C50.0779 198.996 50.4139 197.948 50.4139 196.572V189.348H52.5979ZM58.4695 191.772C58.9015 191.02 59.5415 190.396 60.3895 189.9C61.2535 189.388 62.2535 189.132 63.3895 189.132C64.5575 189.132 65.6135 189.412 66.5575 189.972C67.5175 190.532 68.2695 191.324 68.8135 192.348C69.3575 193.356 69.6295 194.532 69.6295 195.876C69.6295 197.204 69.3575 198.388 68.8135 199.428C68.2695 200.468 67.5175 201.276 66.5575 201.852C65.6135 202.428 64.5575 202.716 63.3895 202.716C62.2695 202.716 61.2775 202.468 60.4135 201.972C59.5655 201.46 58.9175 200.828 58.4695 200.076V208.74H56.2855V189.348H58.4695V191.772ZM67.3975 195.876C67.3975 194.884 67.1975 194.02 66.7975 193.284C66.3975 192.548 65.8535 191.988 65.1655 191.604C64.4935 191.22 63.7495 191.028 62.9335 191.028C62.1335 191.028 61.3895 191.228 60.7015 191.628C60.0295 192.012 59.4855 192.58 59.0695 193.332C58.6695 194.068 58.4695 194.924 58.4695 195.9C58.4695 196.892 58.6695 197.764 59.0695 198.516C59.4855 199.252 60.0295 199.82 60.7015 200.22C61.3895 200.604 62.1335 200.796 62.9335 200.796C63.7495 200.796 64.4935 200.604 65.1655 200.22C65.8535 199.82 66.3975 199.252 66.7975 198.516C67.1975 197.764 67.3975 196.884 67.3975 195.876ZM74.6883 191.484C75.0723 190.732 75.6163 190.148 76.3203 189.732C77.0403 189.316 77.9123 189.108 78.9363 189.108V191.364H78.3603C75.9123 191.364 74.6883 192.692 74.6883 195.348V202.5H72.5043V189.348H74.6883V191.484ZM93.4574 195.42C93.4574 195.836 93.4334 196.276 93.3854 196.74H82.8734C82.9534 198.036 83.3934 199.052 84.1934 199.788C85.0094 200.508 85.9934 200.868 87.1454 200.868C88.0894 200.868 88.8734 200.652 89.4974 200.22C90.1374 199.772 90.5854 199.18 90.8414 198.444H93.1934C92.8414 199.708 92.1374 200.74 91.0814 201.54C90.0254 202.324 88.7134 202.716 87.1454 202.716C85.8974 202.716 84.7774 202.436 83.7854 201.876C82.8094 201.316 82.0414 200.524 81.4814 199.5C80.9214 198.46 80.6414 197.26 80.6414 195.9C80.6414 194.54 80.9134 193.348 81.4574 192.324C82.0014 191.3 82.7614 190.516 83.7374 189.972C84.7294 189.412 85.8654 189.132 87.1454 189.132C88.3934 189.132 89.4974 189.404 90.4574 189.948C91.4174 190.492 92.1534 191.244 92.6654 192.204C93.1934 193.148 93.4574 194.22 93.4574 195.42ZM91.2014 194.964C91.2014 194.132 91.0174 193.42 90.6494 192.828C90.2814 192.22 89.7774 191.764 89.1374 191.46C88.5134 191.14 87.8174 190.98 87.0494 190.98C85.9454 190.98 85.0014 191.332 84.2174 192.036C83.4494 192.74 83.0094 193.716 82.8974 194.964H91.2014ZM112.156 189.108C113.18 189.108 114.092 189.324 114.892 189.756C115.692 190.172 116.324 190.804 116.788 191.652C117.252 192.5 117.484 193.532 117.484 194.748V202.5H115.324V195.06C115.324 193.748 114.996 192.748 114.34 192.06C113.7 191.356 112.828 191.004 111.724 191.004C110.588 191.004 109.684 191.372 109.012 192.108C108.34 192.828 108.004 193.876 108.004 195.252V202.5H105.844V195.06C105.844 193.748 105.516 192.748 104.86 192.06C104.22 191.356 103.348 191.004 102.244 191.004C101.108 191.004 100.204 191.372 99.5322 192.108C98.8602 192.828 98.5242 193.876 98.5242 195.252V202.5H96.3402V189.348H98.5242V191.244C98.9562 190.556 99.5322 190.028 100.252 189.66C100.988 189.292 101.796 189.108 102.676 189.108C103.78 189.108 104.756 189.356 105.604 189.852C106.452 190.348 107.084 191.076 107.5 192.036C107.868 191.108 108.476 190.388 109.324 189.876C110.172 189.364 111.116 189.108 112.156 189.108ZM133.067 195.42C133.067 195.836 133.043 196.276 132.995 196.74H122.483C122.563 198.036 123.003 199.052 123.803 199.788C124.619 200.508 125.603 200.868 126.755 200.868C127.699 200.868 128.483 200.652 129.107 200.22C129.747 199.772 130.195 199.18 130.451 198.444H132.803C132.451 199.708 131.747 200.74 130.691 201.54C129.635 202.324 128.323 202.716 126.755 202.716C125.507 202.716 124.387 202.436 123.395 201.876C122.419 201.316 121.651 200.524 121.091 199.5C120.531 198.46 120.251 197.26 120.251 195.9C120.251 194.54 120.523 193.348 121.067 192.324C121.611 191.3 122.371 190.516 123.347 189.972C124.339 189.412 125.475 189.132 126.755 189.132C128.003 189.132 129.107 189.404 130.067 189.948C131.027 190.492 131.763 191.244 132.275 192.204C132.803 193.148 133.067 194.22 133.067 195.42ZM130.811 194.964C130.811 194.132 130.627 193.42 130.259 192.828C129.891 192.22 129.387 191.764 128.747 191.46C128.123 191.14 127.427 190.98 126.659 190.98C125.555 190.98 124.611 191.332 123.827 192.036C123.059 192.74 122.619 193.716 122.507 194.964H130.811ZM138.206 199.476L135.518 205.932H134.054L135.806 199.476H138.206ZM159.778 190.62C159.314 189.644 158.642 188.892 157.762 188.364C156.882 187.82 155.858 187.548 154.69 187.548C153.522 187.548 152.466 187.82 151.522 188.364C150.594 188.892 149.858 189.66 149.314 190.668C148.786 191.66 148.522 192.812 148.522 194.124C148.522 195.436 148.786 196.588 149.314 197.58C149.858 198.572 150.594 199.34 151.522 199.884C152.466 200.412 153.522 200.676 154.69 200.676C156.322 200.676 157.666 200.188 158.722 199.212C159.778 198.236 160.394 196.916 160.57 195.252H153.898V193.476H162.898V195.156C162.77 196.532 162.338 197.796 161.602 198.948C160.866 200.084 159.898 200.988 158.698 201.66C157.498 202.316 156.162 202.644 154.69 202.644C153.138 202.644 151.722 202.284 150.442 201.564C149.162 200.828 148.146 199.812 147.394 198.516C146.658 197.22 146.29 195.756 146.29 194.124C146.29 192.492 146.658 191.028 147.394 189.732C148.146 188.42 149.162 187.404 150.442 186.684C151.722 185.948 153.138 185.58 154.69 185.58C156.466 185.58 158.034 186.02 159.394 186.9C160.77 187.78 161.77 189.02 162.394 190.62H159.778ZM177.45 189.348V202.5H175.266V200.556C174.85 201.228 174.266 201.756 173.514 202.14C172.778 202.508 171.962 202.692 171.066 202.692C170.042 202.692 169.122 202.484 168.306 202.068C167.49 201.636 166.842 200.996 166.362 200.148C165.898 199.3 165.666 198.268 165.666 197.052V189.348H167.826V196.764C167.826 198.06 168.154 199.06 168.81 199.764C169.466 200.452 170.362 200.796 171.498 200.796C172.666 200.796 173.586 200.436 174.258 199.716C174.93 198.996 175.266 197.948 175.266 196.572V189.348H177.45ZM180.321 195.9C180.321 194.54 180.593 193.356 181.137 192.348C181.681 191.324 182.433 190.532 183.393 189.972C184.369 189.412 185.481 189.132 186.729 189.132C188.345 189.132 189.673 189.524 190.713 190.308C191.769 191.092 192.465 192.18 192.801 193.572H190.449C190.225 192.772 189.785 192.14 189.129 191.676C188.489 191.212 187.689 190.98 186.729 190.98C185.481 190.98 184.473 191.412 183.705 192.276C182.937 193.124 182.553 194.332 182.553 195.9C182.553 197.484 182.937 198.708 183.705 199.572C184.473 200.436 185.481 200.868 186.729 200.868C187.689 200.868 188.489 200.644 189.129 200.196C189.769 199.748 190.209 199.108 190.449 198.276H192.801C192.449 199.62 191.745 200.7 190.689 201.516C189.633 202.316 188.313 202.716 186.729 202.716C185.481 202.716 184.369 202.436 183.393 201.876C182.433 201.316 181.681 200.524 181.137 199.5C180.593 198.476 180.321 197.276 180.321 195.9ZM194.899 195.9C194.899 194.54 195.171 193.356 195.715 192.348C196.259 191.324 197.011 190.532 197.971 189.972C198.947 189.412 200.059 189.132 201.307 189.132C202.923 189.132 204.251 189.524 205.291 190.308C206.347 191.092 207.043 192.18 207.379 193.572H205.027C204.803 192.772 204.363 192.14 203.707 191.676C203.067 191.212 202.267 190.98 201.307 190.98C200.059 190.98 199.051 191.412 198.283 192.276C197.515 193.124 197.131 194.332 197.131 195.9C197.131 197.484 197.515 198.708 198.283 199.572C199.051 200.436 200.059 200.868 201.307 200.868C202.267 200.868 203.067 200.644 203.707 200.196C204.347 199.748 204.787 199.108 205.027 198.276H207.379C207.027 199.62 206.323 200.7 205.267 201.516C204.211 202.316 202.891 202.716 201.307 202.716C200.059 202.716 198.947 202.436 197.971 201.876C197.011 201.316 196.259 200.524 195.715 199.5C195.171 198.476 194.899 197.276 194.899 195.9ZM211.421 187.212C211.005 187.212 210.653 187.068 210.365 186.78C210.077 186.492 209.933 186.14 209.933 185.724C209.933 185.308 210.077 184.956 210.365 184.668C210.653 184.38 211.005 184.236 211.421 184.236C211.821 184.236 212.157 184.38 212.429 184.668C212.717 184.956 212.861 185.308 212.861 185.724C212.861 186.14 212.717 186.492 212.429 186.78C212.157 187.068 211.821 187.212 211.421 187.212ZM212.477 189.348V202.5H210.293V189.348H212.477ZM218.456 199.476L215.768 205.932H214.304L216.056 199.476H218.456ZM237.244 198.78H229.948L228.604 202.5H226.3L232.348 185.868H234.868L240.892 202.5H238.588L237.244 198.78ZM236.62 197.004L233.596 188.556L230.572 197.004H236.62ZM245.712 191.772C246.144 191.02 246.784 190.396 247.632 189.9C248.496 189.388 249.496 189.132 250.632 189.132C251.8 189.132 252.856 189.412 253.8 189.972C254.76 190.532 255.512 191.324 256.056 192.348C256.6 193.356 256.872 194.532 256.872 195.876C256.872 197.204 256.6 198.388 256.056 199.428C255.512 200.468 254.76 201.276 253.8 201.852C252.856 202.428 251.8 202.716 250.632 202.716C249.512 202.716 248.52 202.468 247.656 201.972C246.808 201.46 246.16 200.828 245.712 200.076V208.74H243.528V189.348H245.712V191.772ZM254.64 195.876C254.64 194.884 254.44 194.02 254.04 193.284C253.64 192.548 253.096 191.988 252.408 191.604C251.736 191.22 250.992 191.028 250.176 191.028C249.376 191.028 248.632 191.228 247.944 191.628C247.272 192.012 246.728 192.58 246.312 193.332C245.912 194.068 245.712 194.924 245.712 195.9C245.712 196.892 245.912 197.764 246.312 198.516C246.728 199.252 247.272 199.82 247.944 200.22C248.632 200.604 249.376 200.796 250.176 200.796C250.992 200.796 251.736 200.604 252.408 200.22C253.096 199.82 253.64 199.252 254.04 198.516C254.44 197.764 254.64 196.884 254.64 195.876ZM261.93 191.772C262.362 191.02 263.002 190.396 263.85 189.9C264.714 189.388 265.714 189.132 266.85 189.132C268.018 189.132 269.074 189.412 270.018 189.972C270.978 190.532 271.73 191.324 272.274 192.348C272.818 193.356 273.09 194.532 273.09 195.876C273.09 197.204 272.818 198.388 272.274 199.428C271.73 200.468 270.978 201.276 270.018 201.852C269.074 202.428 268.018 202.716 266.85 202.716C265.73 202.716 264.738 202.468 263.874 201.972C263.026 201.46 262.378 200.828 261.93 200.076V208.74H259.746V189.348H261.93V191.772ZM270.858 195.876C270.858 194.884 270.658 194.02 270.258 193.284C269.858 192.548 269.314 191.988 268.626 191.604C267.954 191.22 267.21 191.028 266.394 191.028C265.594 191.028 264.85 191.228 264.162 191.628C263.49 192.012 262.946 192.58 262.53 193.332C262.13 194.068 261.93 194.924 261.93 195.9C261.93 196.892 262.13 197.764 262.53 198.516C262.946 199.252 263.49 199.82 264.162 200.22C264.85 200.604 265.594 200.796 266.394 200.796C267.21 200.796 267.954 200.604 268.626 200.22C269.314 199.82 269.858 199.252 270.258 198.516C270.658 197.764 270.858 196.884 270.858 195.876ZM278.149 184.74V202.5H275.965V184.74H278.149ZM293.871 195.42C293.871 195.836 293.847 196.276 293.799 196.74H283.287C283.367 198.036 283.807 199.052 284.607 199.788C285.423 200.508 286.407 200.868 287.559 200.868C288.503 200.868 289.287 200.652 289.911 200.22C290.551 199.772 290.999 199.18 291.255 198.444H293.607C293.255 199.708 292.551 200.74 291.495 201.54C290.439 202.324 289.127 202.716 287.559 202.716C286.311 202.716 285.191 202.436 284.199 201.876C283.223 201.316 282.455 200.524 281.895 199.5C281.335 198.46 281.055 197.26 281.055 195.9C281.055 194.54 281.327 193.348 281.871 192.324C282.415 191.3 283.175 190.516 284.151 189.972C285.143 189.412 286.279 189.132 287.559 189.132C288.807 189.132 289.911 189.404 290.871 189.948C291.831 190.492 292.567 191.244 293.079 192.204C293.607 193.148 293.871 194.22 293.871 195.42ZM291.615 194.964C291.615 194.132 291.431 193.42 291.063 192.828C290.695 192.22 290.191 191.764 289.551 191.46C288.927 191.14 288.231 190.98 287.463 190.98C286.359 190.98 285.415 191.332 284.631 192.036C283.863 192.74 283.423 193.716 283.311 194.964H291.615ZM299.01 199.476L296.322 205.932H294.858L296.61 199.476H299.01ZM307.095 195.876C307.095 194.532 307.367 193.356 307.911 192.348C308.455 191.324 309.199 190.532 310.143 189.972C311.103 189.412 312.167 189.132 313.335 189.132C314.487 189.132 315.487 189.38 316.335 189.876C317.183 190.372 317.815 190.996 318.231 191.748V189.348H320.439V202.5H318.231V200.052C317.799 200.82 317.151 201.46 316.287 201.972C315.439 202.468 314.447 202.716 313.311 202.716C312.143 202.716 311.087 202.428 310.143 201.852C309.199 201.276 308.455 200.468 307.911 199.428C307.367 198.388 307.095 197.204 307.095 195.876ZM318.231 195.9C318.231 194.908 318.031 194.044 317.631 193.308C317.231 192.572 316.687 192.012 315.999 191.628C315.327 191.228 314.583 191.028 313.767 191.028C312.951 191.028 312.207 191.22 311.535 191.604C310.863 191.988 310.327 192.548 309.927 193.284C309.527 194.02 309.327 194.884 309.327 195.876C309.327 196.884 309.527 197.764 309.927 198.516C310.327 199.252 310.863 199.82 311.535 200.22C312.207 200.604 312.951 200.796 313.767 200.796C314.583 200.796 315.327 200.604 315.999 200.22C316.687 199.82 317.231 199.252 317.631 198.516C318.031 197.764 318.231 196.892 318.231 195.9ZM330.537 189.108C332.137 189.108 333.433 189.596 334.425 190.572C335.417 191.532 335.913 192.924 335.913 194.748V202.5H333.753V195.06C333.753 193.748 333.425 192.748 332.769 192.06C332.113 191.356 331.217 191.004 330.081 191.004C328.929 191.004 328.009 191.364 327.321 192.084C326.649 192.804 326.313 193.852 326.313 195.228V202.5H324.129V189.348H326.313V191.22C326.745 190.548 327.329 190.028 328.065 189.66C328.817 189.292 329.641 189.108 330.537 189.108ZM338.665 195.876C338.665 194.532 338.937 193.356 339.481 192.348C340.025 191.324 340.769 190.532 341.713 189.972C342.673 189.412 343.745 189.132 344.929 189.132C345.953 189.132 346.905 189.372 347.785 189.852C348.665 190.316 349.337 190.932 349.801 191.7V184.74H352.009V202.5H349.801V200.028C349.369 200.812 348.729 201.46 347.881 201.972C347.033 202.468 346.041 202.716 344.905 202.716C343.737 202.716 342.673 202.428 341.713 201.852C340.769 201.276 340.025 200.468 339.481 199.428C338.937 198.388 338.665 197.204 338.665 195.876ZM349.801 195.9C349.801 194.908 349.601 194.044 349.201 193.308C348.801 192.572 348.257 192.012 347.569 191.628C346.897 191.228 346.153 191.028 345.337 191.028C344.521 191.028 343.777 191.22 343.105 191.604C342.433 191.988 341.897 192.548 341.497 193.284C341.097 194.02 340.897 194.884 340.897 195.876C340.897 196.884 341.097 197.764 341.497 198.516C341.897 199.252 342.433 199.82 343.105 200.22C343.777 200.604 344.521 200.796 345.337 200.796C346.153 200.796 346.897 200.604 347.569 200.22C348.257 199.82 348.801 199.252 349.201 198.516C349.601 197.764 349.801 196.892 349.801 195.9ZM377.914 189.108C378.938 189.108 379.85 189.324 380.65 189.756C381.45 190.172 382.082 190.804 382.546 191.652C383.01 192.5 383.242 193.532 383.242 194.748V202.5H381.082V195.06C381.082 193.748 380.754 192.748 380.098 192.06C379.458 191.356 378.586 191.004 377.482 191.004C376.346 191.004 375.442 191.372 374.77 192.108C374.098 192.828 373.762 193.876 373.762 195.252V202.5H371.602V195.06C371.602 193.748 371.274 192.748 370.618 192.06C369.978 191.356 369.106 191.004 368.002 191.004C366.866 191.004 365.962 191.372 365.29 192.108C364.618 192.828 364.282 193.876 364.282 195.252V202.5H362.098V189.348H364.282V191.244C364.714 190.556 365.29 190.028 366.01 189.66C366.746 189.292 367.554 189.108 368.434 189.108C369.538 189.108 370.514 189.356 371.362 189.852C372.21 190.348 372.842 191.076 373.258 192.036C373.626 191.108 374.234 190.388 375.082 189.876C375.93 189.364 376.874 189.108 377.914 189.108ZM392.561 202.716C391.329 202.716 390.209 202.436 389.201 201.876C388.209 201.316 387.425 200.524 386.849 199.5C386.289 198.46 386.009 197.26 386.009 195.9C386.009 194.556 386.297 193.372 386.873 192.348C387.465 191.308 388.265 190.516 389.273 189.972C390.281 189.412 391.409 189.132 392.657 189.132C393.905 189.132 395.033 189.412 396.041 189.972C397.049 190.516 397.841 191.3 398.417 192.324C399.009 193.348 399.305 194.54 399.305 195.9C399.305 197.26 399.001 198.46 398.393 199.5C397.801 200.524 396.993 201.316 395.969 201.876C394.945 202.436 393.809 202.716 392.561 202.716ZM392.561 200.796C393.345 200.796 394.081 200.612 394.769 200.244C395.457 199.876 396.009 199.324 396.425 198.588C396.857 197.852 397.073 196.956 397.073 195.9C397.073 194.844 396.865 193.948 396.449 193.212C396.033 192.476 395.489 191.932 394.817 191.58C394.145 191.212 393.417 191.028 392.633 191.028C391.833 191.028 391.097 191.212 390.425 191.58C389.769 191.932 389.241 192.476 388.841 193.212C388.441 193.948 388.241 194.844 388.241 195.9C388.241 196.972 388.433 197.876 388.817 198.612C389.217 199.348 389.745 199.9 390.401 200.268C391.057 200.62 391.777 200.796 392.561 200.796ZM404.36 191.484C404.744 190.732 405.288 190.148 405.992 189.732C406.712 189.316 407.584 189.108 408.608 189.108V191.364H408.032C405.584 191.364 404.36 192.692 404.36 195.348V202.5H402.176V189.348H404.36V191.484ZM423.129 195.42C423.129 195.836 423.105 196.276 423.057 196.74H412.545C412.625 198.036 413.065 199.052 413.865 199.788C414.681 200.508 415.665 200.868 416.817 200.868C417.761 200.868 418.545 200.652 419.169 200.22C419.809 199.772 420.257 199.18 420.513 198.444H422.865C422.513 199.708 421.809 200.74 420.753 201.54C419.697 202.324 418.385 202.716 416.817 202.716C415.569 202.716 414.449 202.436 413.457 201.876C412.481 201.316 411.713 200.524 411.153 199.5C410.593 198.46 410.313 197.26 410.313 195.9C410.313 194.54 410.585 193.348 411.129 192.324C411.673 191.3 412.433 190.516 413.409 189.972C414.401 189.412 415.537 189.132 416.817 189.132C418.065 189.132 419.169 189.404 420.129 189.948C421.089 190.492 421.825 191.244 422.337 192.204C422.865 193.148 423.129 194.22 423.129 195.42ZM420.873 194.964C420.873 194.132 420.689 193.42 420.321 192.828C419.953 192.22 419.449 191.764 418.809 191.46C418.185 191.14 417.489 190.98 416.721 190.98C415.617 190.98 414.673 191.332 413.889 192.036C413.121 192.74 412.681 193.716 412.569 194.964H420.873ZM449.979 192.78V194.628H432.387V192.78H449.979ZM465.467 189.132C466.603 189.132 467.595 189.38 468.443 189.876C469.307 190.372 469.947 190.996 470.363 191.748V189.348H472.571V202.788C472.571 203.988 472.315 205.052 471.803 205.98C471.291 206.924 470.555 207.66 469.595 208.188C468.651 208.716 467.547 208.98 466.283 208.98C464.555 208.98 463.115 208.572 461.963 207.756C460.811 206.94 460.131 205.828 459.923 204.42H462.083C462.323 205.22 462.819 205.86 463.571 206.34C464.323 206.836 465.227 207.084 466.283 207.084C467.483 207.084 468.459 206.708 469.211 205.956C469.979 205.204 470.363 204.148 470.363 202.788V200.028C469.931 200.796 469.291 201.436 468.443 201.948C467.595 202.46 466.603 202.716 465.467 202.716C464.299 202.716 463.235 202.428 462.275 201.852C461.331 201.276 460.587 200.468 460.043 199.428C459.499 198.388 459.227 197.204 459.227 195.876C459.227 194.532 459.499 193.356 460.043 192.348C460.587 191.324 461.331 190.532 462.275 189.972C463.235 189.412 464.299 189.132 465.467 189.132ZM470.363 195.9C470.363 194.908 470.163 194.044 469.763 193.308C469.363 192.572 468.819 192.012 468.131 191.628C467.459 191.228 466.715 191.028 465.899 191.028C465.083 191.028 464.339 191.22 463.667 191.604C462.995 191.988 462.459 192.548 462.059 193.284C461.659 194.02 461.459 194.884 461.459 195.876C461.459 196.884 461.659 197.764 462.059 198.516C462.459 199.252 462.995 199.82 463.667 200.22C464.339 200.604 465.083 200.796 465.899 200.796C466.715 200.796 467.459 200.604 468.131 200.22C468.819 199.82 469.363 199.252 469.763 198.516C470.163 197.764 470.363 196.892 470.363 195.9ZM488.262 195.42C488.262 195.836 488.238 196.276 488.19 196.74H477.678C477.758 198.036 478.198 199.052 478.998 199.788C479.814 200.508 480.798 200.868 481.95 200.868C482.894 200.868 483.678 200.652 484.302 200.22C484.942 199.772 485.39 199.18 485.646 198.444H487.998C487.646 199.708 486.942 200.74 485.886 201.54C484.83 202.324 483.518 202.716 481.95 202.716C480.702 202.716 479.582 202.436 478.59 201.876C477.614 201.316 476.846 200.524 476.286 199.5C475.726 198.46 475.446 197.26 475.446 195.9C475.446 194.54 475.718 193.348 476.262 192.324C476.806 191.3 477.566 190.516 478.542 189.972C479.534 189.412 480.67 189.132 481.95 189.132C483.198 189.132 484.302 189.404 485.262 189.948C486.222 190.492 486.958 191.244 487.47 192.204C487.998 193.148 488.262 194.22 488.262 195.42ZM486.006 194.964C486.006 194.132 485.822 193.42 485.454 192.828C485.086 192.22 484.582 191.764 483.942 191.46C483.318 191.14 482.622 190.98 481.854 190.98C480.75 190.98 479.806 191.332 479.022 192.036C478.254 192.74 477.814 193.716 477.702 194.964H486.006ZM493.809 191.148V198.9C493.809 199.54 493.945 199.996 494.217 200.268C494.489 200.524 494.961 200.652 495.633 200.652H497.241V202.5H495.273C494.057 202.5 493.145 202.22 492.537 201.66C491.929 201.1 491.625 200.18 491.625 198.9V191.148H489.921V189.348H491.625V186.036H493.809V189.348H497.241V191.148H493.809ZM505.47 195.876C505.47 194.532 505.742 193.356 506.286 192.348C506.83 191.324 507.574 190.532 508.518 189.972C509.478 189.412 510.55 189.132 511.734 189.132C512.758 189.132 513.71 189.372 514.59 189.852C515.47 190.316 516.142 190.932 516.606 191.7V184.74H518.814V202.5H516.606V200.028C516.174 200.812 515.534 201.46 514.686 201.972C513.838 202.468 512.846 202.716 511.71 202.716C510.542 202.716 509.478 202.428 508.518 201.852C507.574 201.276 506.83 200.468 506.286 199.428C505.742 198.388 505.47 197.204 505.47 195.876ZM516.606 195.9C516.606 194.908 516.406 194.044 516.006 193.308C515.606 192.572 515.062 192.012 514.374 191.628C513.702 191.228 512.958 191.028 512.142 191.028C511.326 191.028 510.582 191.22 509.91 191.604C509.238 191.988 508.702 192.548 508.302 193.284C507.902 194.02 507.702 194.884 507.702 195.876C507.702 196.884 507.902 197.764 508.302 198.516C508.702 199.252 509.238 199.82 509.91 200.22C510.582 200.604 511.326 200.796 512.142 200.796C512.958 200.796 513.702 200.604 514.374 200.22C515.062 199.82 515.606 199.252 516.006 198.516C516.406 197.764 516.606 196.892 516.606 195.9ZM523.632 187.212C523.216 187.212 522.864 187.068 522.576 186.78C522.288 186.492 522.144 186.14 522.144 185.724C522.144 185.308 522.288 184.956 522.576 184.668C522.864 184.38 523.216 184.236 523.632 184.236C524.032 184.236 524.368 184.38 524.64 184.668C524.928 184.956 525.072 185.308 525.072 185.724C525.072 186.14 524.928 186.492 524.64 186.78C524.368 187.068 524.032 187.212 523.632 187.212ZM524.688 189.348V202.5H522.504V189.348H524.688ZM533.067 202.716C532.059 202.716 531.155 202.548 530.355 202.212C529.555 201.86 528.923 201.38 528.459 200.772C527.995 200.148 527.739 199.436 527.691 198.636H529.947C530.011 199.292 530.315 199.828 530.859 200.244C531.419 200.66 532.147 200.868 533.043 200.868C533.875 200.868 534.531 200.684 535.011 200.316C535.491 199.948 535.731 199.484 535.731 198.924C535.731 198.348 535.475 197.924 534.963 197.652C534.451 197.364 533.659 197.084 532.587 196.812C531.611 196.556 530.811 196.3 530.187 196.044C529.579 195.772 529.051 195.38 528.603 194.868C528.171 194.34 527.955 193.652 527.955 192.804C527.955 192.132 528.155 191.516 528.555 190.956C528.955 190.396 529.523 189.956 530.259 189.636C530.995 189.3 531.835 189.132 532.779 189.132C534.235 189.132 535.411 189.5 536.307 190.236C537.203 190.972 537.683 191.98 537.747 193.26H535.563C535.515 192.572 535.235 192.02 534.723 191.604C534.227 191.188 533.555 190.98 532.707 190.98C531.923 190.98 531.299 191.148 530.835 191.484C530.371 191.82 530.139 192.26 530.139 192.804C530.139 193.236 530.275 193.596 530.547 193.884C530.835 194.156 531.187 194.38 531.603 194.556C532.035 194.716 532.627 194.9 533.379 195.108C534.323 195.364 535.091 195.62 535.683 195.876C536.275 196.116 536.779 196.484 537.195 196.98C537.627 197.476 537.851 198.124 537.867 198.924C537.867 199.644 537.667 200.292 537.267 200.868C536.867 201.444 536.299 201.9 535.563 202.236C534.843 202.556 534.011 202.716 533.067 202.716ZM540.134 195.9C540.134 194.54 540.406 193.356 540.95 192.348C541.494 191.324 542.246 190.532 543.206 189.972C544.182 189.412 545.294 189.132 546.542 189.132C548.158 189.132 549.486 189.524 550.526 190.308C551.582 191.092 552.278 192.18 552.614 193.572H550.262C550.038 192.772 549.598 192.14 548.942 191.676C548.302 191.212 547.502 190.98 546.542 190.98C545.294 190.98 544.286 191.412 543.518 192.276C542.75 193.124 542.366 194.332 542.366 195.9C542.366 197.484 542.75 198.708 543.518 199.572C544.286 200.436 545.294 200.868 546.542 200.868C547.502 200.868 548.302 200.644 548.942 200.196C549.582 199.748 550.022 199.108 550.262 198.276H552.614C552.262 199.62 551.558 200.7 550.502 201.516C549.446 202.316 548.126 202.716 546.542 202.716C545.294 202.716 544.182 202.436 543.206 201.876C542.246 201.316 541.494 200.524 540.95 199.5C540.406 198.476 540.134 197.276 540.134 195.9ZM561.264 202.716C560.032 202.716 558.912 202.436 557.904 201.876C556.912 201.316 556.128 200.524 555.552 199.5C554.992 198.46 554.712 197.26 554.712 195.9C554.712 194.556 555 193.372 555.576 192.348C556.168 191.308 556.968 190.516 557.976 189.972C558.984 189.412 560.112 189.132 561.36 189.132C562.608 189.132 563.736 189.412 564.744 189.972C565.752 190.516 566.544 191.3 567.12 192.324C567.712 193.348 568.008 194.54 568.008 195.9C568.008 197.26 567.704 198.46 567.096 199.5C566.504 200.524 565.696 201.316 564.672 201.876C563.648 202.436 562.512 202.716 561.264 202.716ZM561.264 200.796C562.048 200.796 562.784 200.612 563.472 200.244C564.16 199.876 564.712 199.324 565.128 198.588C565.56 197.852 565.776 196.956 565.776 195.9C565.776 194.844 565.568 193.948 565.152 193.212C564.736 192.476 564.192 191.932 563.52 191.58C562.848 191.212 562.12 191.028 561.336 191.028C560.536 191.028 559.8 191.212 559.128 191.58C558.472 191.932 557.944 192.476 557.544 193.212C557.144 193.948 556.944 194.844 556.944 195.9C556.944 196.972 557.136 197.876 557.52 198.612C557.92 199.348 558.448 199.9 559.104 200.268C559.76 200.62 560.48 200.796 561.264 200.796ZM582.543 189.348V202.5H580.359V200.556C579.943 201.228 579.359 201.756 578.607 202.14C577.871 202.508 577.055 202.692 576.159 202.692C575.135 202.692 574.215 202.484 573.399 202.068C572.583 201.636 571.935 200.996 571.455 200.148C570.991 199.3 570.759 198.268 570.759 197.052V189.348H572.919V196.764C572.919 198.06 573.247 199.06 573.903 199.764C574.559 200.452 575.455 200.796 576.591 200.796C577.759 200.796 578.679 200.436 579.351 199.716C580.023 198.996 580.359 197.948 580.359 196.572V189.348H582.543ZM592.639 189.108C594.239 189.108 595.535 189.596 596.527 190.572C597.519 191.532 598.015 192.924 598.015 194.748V202.5H595.855V195.06C595.855 193.748 595.527 192.748 594.871 192.06C594.215 191.356 593.319 191.004 592.183 191.004C591.031 191.004 590.111 191.364 589.423 192.084C588.751 192.804 588.415 193.852 588.415 195.228V202.5H586.231V189.348H588.415V191.22C588.847 190.548 589.431 190.028 590.167 189.66C590.919 189.292 591.743 189.108 592.639 189.108ZM604.246 191.148V198.9C604.246 199.54 604.382 199.996 604.654 200.268C604.926 200.524 605.398 200.652 606.07 200.652H607.678V202.5H605.71C604.494 202.5 603.582 202.22 602.974 201.66C602.366 201.1 602.062 200.18 602.062 198.9V191.148H600.358V189.348H602.062V186.036H604.246V189.348H607.678V191.148H604.246ZM614.981 202.716C613.973 202.716 613.069 202.548 612.269 202.212C611.469 201.86 610.837 201.38 610.373 200.772C609.909 200.148 609.653 199.436 609.605 198.636H611.861C611.925 199.292 612.229 199.828 612.773 200.244C613.333 200.66 614.061 200.868 614.957 200.868C615.789 200.868 616.445 200.684 616.925 200.316C617.405 199.948 617.645 199.484 617.645 198.924C617.645 198.348 617.389 197.924 616.877 197.652C616.365 197.364 615.573 197.084 614.501 196.812C613.525 196.556 612.725 196.3 612.101 196.044C611.493 195.772 610.965 195.38 610.517 194.868C610.085 194.34 609.869 193.652 609.869 192.804C609.869 192.132 610.069 191.516 610.469 190.956C610.869 190.396 611.437 189.956 612.173 189.636C612.909 189.3 613.749 189.132 614.693 189.132C616.149 189.132 617.325 189.5 618.221 190.236C619.117 190.972 619.597 191.98 619.661 193.26H617.477C617.429 192.572 617.149 192.02 616.637 191.604C616.141 191.188 615.469 190.98 614.621 190.98C613.837 190.98 613.213 191.148 612.749 191.484C612.285 191.82 612.053 192.26 612.053 192.804C612.053 193.236 612.189 193.596 612.461 193.884C612.749 194.156 613.101 194.38 613.517 194.556C613.949 194.716 614.541 194.9 615.293 195.108C616.237 195.364 617.005 195.62 617.597 195.876C618.189 196.116 618.693 196.484 619.109 196.98C619.541 197.476 619.765 198.124 619.781 198.924C619.781 199.644 619.581 200.292 619.181 200.868C618.781 201.444 618.213 201.9 617.477 202.236C616.757 202.556 615.925 202.716 614.981 202.716ZM634.998 202.716C633.766 202.716 632.646 202.436 631.638 201.876C630.646 201.316 629.862 200.524 629.286 199.5C628.726 198.46 628.446 197.26 628.446 195.9C628.446 194.556 628.734 193.372 629.31 192.348C629.902 191.308 630.702 190.516 631.71 189.972C632.718 189.412 633.846 189.132 635.094 189.132C636.342 189.132 637.47 189.412 638.478 189.972C639.486 190.516 640.278 191.3 640.854 192.324C641.446 193.348 641.742 194.54 641.742 195.9C641.742 197.26 641.438 198.46 640.83 199.5C640.238 200.524 639.43 201.316 638.406 201.876C637.382 202.436 636.246 202.716 634.998 202.716ZM634.998 200.796C635.782 200.796 636.518 200.612 637.206 200.244C637.894 199.876 638.446 199.324 638.862 198.588C639.294 197.852 639.51 196.956 639.51 195.9C639.51 194.844 639.302 193.948 638.886 193.212C638.47 192.476 637.926 191.932 637.254 191.58C636.582 191.212 635.854 191.028 635.07 191.028C634.27 191.028 633.534 191.212 632.862 191.58C632.206 191.932 631.678 192.476 631.278 193.212C630.878 193.948 630.678 194.844 630.678 195.9C630.678 196.972 630.87 197.876 631.254 198.612C631.654 199.348 632.182 199.9 632.838 200.268C633.494 200.62 634.214 200.796 634.998 200.796ZM649.966 191.148H647.206V202.5H645.022V191.148H643.318V189.348H645.022V188.412C645.022 186.94 645.398 185.868 646.15 185.196C646.918 184.508 648.142 184.164 649.822 184.164V185.988C648.862 185.988 648.182 186.18 647.782 186.564C647.398 186.932 647.206 187.548 647.206 188.412V189.348H649.966V191.148ZM670.575 189.348V202.5H668.391V200.556C667.975 201.228 667.391 201.756 666.639 202.14C665.903 202.508 665.087 202.692 664.191 202.692C663.167 202.692 662.247 202.484 661.431 202.068C660.615 201.636 659.967 200.996 659.487 200.148C659.023 199.3 658.791 198.268 658.791 197.052V189.348H660.951V196.764C660.951 198.06 661.279 199.06 661.935 199.764C662.591 200.452 663.487 200.796 664.623 200.796C665.791 200.796 666.711 200.436 667.383 199.716C668.055 198.996 668.391 197.948 668.391 196.572V189.348H670.575ZM676.446 191.772C676.878 191.02 677.518 190.396 678.366 189.9C679.23 189.388 680.23 189.132 681.366 189.132C682.534 189.132 683.59 189.412 684.534 189.972C685.494 190.532 686.246 191.324 686.79 192.348C687.334 193.356 687.606 194.532 687.606 195.876C687.606 197.204 687.334 198.388 686.79 199.428C686.246 200.468 685.494 201.276 684.534 201.852C683.59 202.428 682.534 202.716 681.366 202.716C680.246 202.716 679.254 202.468 678.39 201.972C677.542 201.46 676.894 200.828 676.446 200.076V208.74H674.262V189.348H676.446V191.772ZM685.374 195.876C685.374 194.884 685.174 194.02 684.774 193.284C684.374 192.548 683.83 191.988 683.142 191.604C682.47 191.22 681.726 191.028 680.91 191.028C680.11 191.028 679.366 191.228 678.678 191.628C678.006 192.012 677.462 192.58 677.046 193.332C676.646 194.068 676.446 194.924 676.446 195.9C676.446 196.892 676.646 197.764 677.046 198.516C677.462 199.252 678.006 199.82 678.678 200.22C679.366 200.604 680.11 200.796 680.91 200.796C681.726 200.796 682.47 200.604 683.142 200.22C683.83 199.82 684.374 199.252 684.774 198.516C685.174 197.764 685.374 196.884 685.374 195.876ZM699.543 191.148V198.9C699.543 199.54 699.679 199.996 699.951 200.268C700.223 200.524 700.695 200.652 701.367 200.652H702.975V202.5H701.007C699.791 202.5 698.879 202.22 698.271 201.66C697.663 201.1 697.359 200.18 697.359 198.9V191.148H695.655V189.348H697.359V186.036H699.543V189.348H702.975V191.148H699.543ZM711.357 202.716C710.125 202.716 709.005 202.436 707.997 201.876C707.005 201.316 706.221 200.524 705.645 199.5C705.085 198.46 704.805 197.26 704.805 195.9C704.805 194.556 705.093 193.372 705.669 192.348C706.261 191.308 707.061 190.516 708.069 189.972C709.077 189.412 710.205 189.132 711.453 189.132C712.701 189.132 713.829 189.412 714.837 189.972C715.845 190.516 716.637 191.3 717.213 192.324C717.805 193.348 718.101 194.54 718.101 195.9C718.101 197.26 717.797 198.46 717.189 199.5C716.597 200.524 715.789 201.316 714.765 201.876C713.741 202.436 712.605 202.716 711.357 202.716ZM711.357 200.796C712.141 200.796 712.877 200.612 713.565 200.244C714.253 199.876 714.805 199.324 715.221 198.588C715.653 197.852 715.869 196.956 715.869 195.9C715.869 194.844 715.661 193.948 715.245 193.212C714.829 192.476 714.285 191.932 713.613 191.58C712.941 191.212 712.213 191.028 711.429 191.028C710.629 191.028 709.893 191.212 709.221 191.58C708.565 191.932 708.037 192.476 707.637 193.212C707.237 193.948 707.037 194.844 707.037 195.9C707.037 196.972 707.229 197.876 707.613 198.612C708.013 199.348 708.541 199.9 709.197 200.268C709.853 200.62 710.573 200.796 711.357 200.796ZM29.296 231.844C29.456 232.756 29.824 233.46 30.4 233.956C30.992 234.452 31.784 234.7 32.776 234.7C34.104 234.7 35.08 234.18 35.704 233.14C36.344 232.1 36.648 230.348 36.616 227.884C36.28 228.604 35.72 229.172 34.936 229.588C34.152 229.988 33.28 230.188 32.32 230.188C31.248 230.188 30.288 229.972 29.44 229.54C28.608 229.092 27.952 228.444 27.472 227.596C26.992 226.748 26.752 225.724 26.752 224.524C26.752 222.812 27.248 221.436 28.24 220.396C29.232 219.34 30.64 218.812 32.464 218.812C34.704 218.812 36.272 219.54 37.168 220.996C38.08 222.452 38.536 224.62 38.536 227.5C38.536 229.516 38.352 231.18 37.984 232.492C37.632 233.804 37.024 234.804 36.16 235.492C35.312 236.18 34.144 236.524 32.656 236.524C31.024 236.524 29.752 236.084 28.84 235.204C27.928 234.324 27.408 233.204 27.28 231.844H29.296ZM32.68 228.34C33.752 228.34 34.632 228.012 35.32 227.356C36.008 226.684 36.352 225.78 36.352 224.644C36.352 223.444 36.016 222.476 35.344 221.74C34.672 221.004 33.728 220.636 32.512 220.636C31.392 220.636 30.496 220.988 29.824 221.692C29.168 222.396 28.84 223.324 28.84 224.476C28.84 225.644 29.168 226.58 29.824 227.284C30.48 227.988 31.432 228.34 32.68 228.34ZM44.7732 227.476C43.8772 227.124 43.1892 226.612 42.7092 225.94C42.2292 225.268 41.9892 224.452 41.9892 223.492C41.9892 222.628 42.2052 221.852 42.6372 221.164C43.0692 220.46 43.7092 219.908 44.5572 219.508C45.4212 219.092 46.4612 218.884 47.6772 218.884C48.8932 218.884 49.9252 219.092 50.7732 219.508C51.6372 219.908 52.2852 220.46 52.7172 221.164C53.1652 221.852 53.3892 222.628 53.3892 223.492C53.3892 224.42 53.1412 225.236 52.6452 225.94C52.1492 226.628 51.4692 227.14 50.6052 227.476C51.5972 227.78 52.3812 228.316 52.9572 229.084C53.5492 229.836 53.8452 230.748 53.8452 231.82C53.8452 232.86 53.5892 233.772 53.0772 234.556C52.5652 235.324 51.8372 235.924 50.8932 236.356C49.9652 236.772 48.8932 236.98 47.6772 236.98C46.4612 236.98 45.3892 236.772 44.4612 236.356C43.5492 235.924 42.8372 235.324 42.3252 234.556C41.8132 233.772 41.5572 232.86 41.5572 231.82C41.5572 230.748 41.8452 229.828 42.4212 229.06C42.9972 228.292 43.7812 227.764 44.7732 227.476ZM51.2772 223.756C51.2772 222.78 50.9572 222.028 50.3172 221.5C49.6772 220.972 48.7972 220.708 47.6772 220.708C46.5732 220.708 45.7012 220.972 45.0612 221.5C44.4212 222.028 44.1012 222.788 44.1012 223.78C44.1012 224.676 44.4292 225.396 45.0852 225.94C45.7572 226.484 46.6212 226.756 47.6772 226.756C48.7492 226.756 49.6132 226.484 50.2692 225.94C50.9412 225.38 51.2772 224.652 51.2772 223.756ZM47.6772 228.436C46.4932 228.436 45.5252 228.716 44.7732 229.276C44.0212 229.82 43.6452 230.644 43.6452 231.748C43.6452 232.772 44.0052 233.596 44.7252 234.22C45.4612 234.844 46.4452 235.156 47.6772 235.156C48.9092 235.156 49.8852 234.844 50.6052 234.22C51.3252 233.596 51.6852 232.772 51.6852 231.748C51.6852 230.676 51.3172 229.86 50.5812 229.3C49.8452 228.724 48.8772 228.436 47.6772 228.436ZM56.2658 223.06C56.2658 221.972 56.5938 221.108 57.2498 220.468C57.9058 219.812 58.7458 219.484 59.7698 219.484C60.7938 219.484 61.6338 219.812 62.2898 220.468C62.9458 221.108 63.2738 221.972 63.2738 223.06C63.2738 224.164 62.9458 225.044 62.2898 225.7C61.6338 226.34 60.7938 226.66 59.7698 226.66C58.7458 226.66 57.9058 226.34 57.2498 225.7C56.5938 225.044 56.2658 224.164 56.2658 223.06ZM70.2818 219.748L60.5618 236.5H58.4018L68.1218 219.748H70.2818ZM59.7698 220.828C59.2258 220.828 58.7938 221.02 58.4738 221.404C58.1698 221.772 58.0178 222.324 58.0178 223.06C58.0178 223.796 58.1698 224.356 58.4738 224.74C58.7938 225.124 59.2258 225.316 59.7698 225.316C60.3138 225.316 60.7458 225.124 61.0658 224.74C61.3858 224.34 61.5458 223.78 61.5458 223.06C61.5458 222.324 61.3858 221.772 61.0658 221.404C60.7458 221.02 60.3138 220.828 59.7698 220.828ZM65.4578 233.188C65.4578 232.084 65.7858 231.212 66.4418 230.572C67.0978 229.916 67.9378 229.588 68.9618 229.588C69.9858 229.588 70.8178 229.916 71.4578 230.572C72.1138 231.212 72.4418 232.084 72.4418 233.188C72.4418 234.276 72.1138 235.148 71.4578 235.804C70.8178 236.46 69.9858 236.788 68.9618 236.788C67.9378 236.788 67.0978 236.468 66.4418 235.828C65.7858 235.172 65.4578 234.292 65.4578 233.188ZM68.9378 230.956C68.3938 230.956 67.9618 231.148 67.6418 231.532C67.3218 231.9 67.1618 232.452 67.1618 233.188C67.1618 233.908 67.3218 234.46 67.6418 234.844C67.9618 235.212 68.3938 235.396 68.9378 235.396C69.4818 235.396 69.9138 235.212 70.2338 234.844C70.5538 234.46 70.7138 233.908 70.7138 233.188C70.7138 232.452 70.5538 231.9 70.2338 231.532C69.9138 231.148 69.4818 230.956 68.9378 230.956ZM78.1488 219.772L77.8848 231.772H76.0608L75.7968 219.772H78.1488ZM77.0688 236.644C76.6528 236.644 76.3008 236.5 76.0128 236.212C75.7248 235.924 75.5808 235.572 75.5808 235.156C75.5808 234.74 75.7248 234.388 76.0128 234.1C76.3008 233.812 76.6528 233.668 77.0688 233.668C77.4688 233.668 77.8048 233.812 78.0768 234.1C78.3648 234.388 78.5088 234.74 78.5088 235.156C78.5088 235.572 78.3648 235.924 78.0768 236.212C77.8048 236.5 77.4688 236.644 77.0688 236.644Z" fill="black"/>
<defs>
<linearGradient id="paint0_linear_1352_19004" x1="382" y1="0" x2="382" y2="277" gradientUnits="userSpaceOnUse">
<stop stop-color="#FFC658"/>
<stop offset="1" stop-color="#FFB21A"/>
</linearGradient>
</defs>
</svg>
