<svg width="80" height="32" viewBox="0 0 80 32" fill="none" xmlns="http://www.w3.org/2000/svg">
<rect x="48.2139" y="0.210541" width="31.0714" height="31.5789" rx="15.5357" fill="#FFE600"/>
<path d="M68.1928 14.4602V11.4445L69.2647 10.355V12.9681L70.1969 13.9155L73.9488 10.1024L74.8731 11.0418C74.8654 10.3313 74.7255 8.27077 73.0088 6.55762C71.1601 4.74183 69.156 5.56288 68.4724 6.25762L64.7283 10.0629L65.6838 11.0339L63.7496 13.0155L61.8154 11.0497L62.7708 10.0787L59.0267 6.27341C58.3431 5.57867 56.339 4.75762 54.4903 6.57341C52.7736 8.28656 52.6337 10.3471 52.626 11.0576L53.5504 10.1181L57.3022 13.9313L58.2344 12.9839V10.3708L59.3063 11.4602V14.476L60.8133 15.9997L53.3872 23.5471L56.3235 26.5234L63.7496 18.9839L71.1756 26.5313L74.1119 23.555L66.6858 15.9997L68.1928 14.4602Z" fill="#2B2D34"/>
<rect x="32.1426" y="0.210541" width="31.0714" height="31.5789" rx="15.5357" fill="#333333"/>
<path d="M38.3564 8.10528H56.9993V17.6344C56.9993 20.0773 55.7171 22.3346 53.6356 23.5562L47.6779 27.0526L41.7202 23.5562C39.6387 22.3346 38.3564 20.0773 38.3564 17.6344V8.10528Z" fill="#FFDD2D"/>
<path fill-rule="evenodd" clip-rule="evenodd" d="M43.4736 13.1212V16.085C43.8724 15.6273 44.5974 15.3176 45.4264 15.3176H46.3273V18.7629C46.3273 19.6795 46.0822 20.4818 45.7187 20.9231H49.6372C49.2744 20.4814 49.0299 19.6801 49.0299 18.7647V15.3176H49.9308C50.7598 15.3176 51.4848 15.6273 51.8836 16.085V13.1212H43.4736Z" fill="#333333"/>
<rect x="16.0713" y="0.210541" width="30" height="30" rx="15" fill="#21A038"/>
<path fill-rule="evenodd" clip-rule="evenodd" d="M31.0661 4.21055H31.064C28.2269 4.20709 25.4566 5.33116 23.4294 7.28561C20.1981 10.3876 19.1823 15.2984 20.8925 19.4227C21.96 21.9972 24.0225 24.1277 26.5978 25.2701C29.3336 26.4836 32.5087 26.5255 35.2755 25.3794C37.8815 24.3 39.9944 22.2284 41.1278 19.6754C42.0208 17.664 42.285 15.4005 41.8984 13.24L39.5291 14.9852C39.5291 16.2479 39.3183 17.4806 38.8014 18.6429C37.9288 20.605 36.3055 22.1988 34.3025 23.0297C32.1733 23.913 29.7374 23.8808 27.6306 22.9451C25.649 22.0649 24.0664 20.4301 23.2434 18.448C22.3612 16.3235 22.3922 13.8814 23.3269 11.7797C24.1989 9.81889 25.8214 8.22601 27.8249 7.39475C30.4483 6.30631 33.4878 6.61795 35.8357 8.2279L37.9759 6.6512C36.0408 5.08504 33.5684 4.2074 31.0661 4.21055ZM39.7742 8.48634C40.2971 9.16203 40.7398 9.89611 41.0932 10.6738L31.0663 18.0615L26.8758 15.4359V12.2773L31.0663 14.9028L39.7742 8.48634Z" fill="white"/>
<g clip-path="url(#clip0_1565_2367)">
<rect y="0.210541" width="31.0714" height="31.5789" rx="15.5357" fill="#333333"/>
<path d="M6 8.43454L8.85776 13.6295V16.7983L6.00334 21.9831L6 8.43454Z" fill="#5B57A2"/>
<path d="M16.9727 11.7391L19.6505 10.0699L25.1308 10.0647L16.9727 15.1475V11.7391Z" fill="#D90751"/>
<path d="M16.9577 8.40394L16.9728 15.2819L14.1084 13.4919V3.21054L16.9577 8.40394Z" fill="#FAB718"/>
<path d="M25.131 10.0647L19.6505 10.0699L16.9577 8.40394L14.1084 3.21054L25.131 10.0647Z" fill="#ED6F26"/>
<path d="M16.9728 22.0119V18.6749L14.1084 16.9189L14.11 27.2105L16.9728 22.0119Z" fill="#63B22F"/>
<path d="M19.6438 20.3579L8.85756 13.6295L6 8.43454L25.1192 20.3511L19.6438 20.3579Z" fill="#1487C9"/>
<path d="M14.1104 27.2105L16.9728 22.0119L19.644 20.3579L25.1194 20.3511L14.1104 27.2105Z" fill="#017F36"/>
<path d="M6.00293 21.9831L14.1312 16.9191L11.3985 15.2139L8.85734 16.7983L6.00293 21.9831Z" fill="#984995"/>
</g>
<defs>
<clipPath id="clip0_1565_2367">
<rect y="0.210541" width="31.0714" height="31.5789" rx="15.5357" fill="white"/>
</clipPath>
</defs>
</svg>
