<svg width="27" height="28" viewBox="0 0 27 28" fill="none" xmlns="http://www.w3.org/2000/svg">
<path d="M5.13333 20.8C6.26667 19.9333 7.53333 19.25 8.93333 18.75C10.3333 18.25 11.8 18 13.3333 18C14.8667 18 16.3333 18.25 17.7333 18.75C19.1333 19.25 20.4 19.9333 21.5333 20.8C22.3111 19.8889 22.9167 18.8556 23.35 17.7C23.7833 16.5444 24 15.3111 24 14C24 11.0444 22.9611 8.52778 20.8833 6.45001C18.8056 4.37223 16.2889 3.33334 13.3333 3.33334C10.3778 3.33334 7.86111 4.37223 5.78333 6.45001C3.70556 8.52778 2.66667 11.0444 2.66667 14C2.66667 15.3111 2.88333 16.5444 3.31667 17.7C3.75 18.8556 4.35556 19.8889 5.13333 20.8ZM13.3333 15.3333C12.0222 15.3333 10.9167 14.8833 10.0167 13.9833C9.11667 13.0833 8.66667 11.9778 8.66667 10.6667C8.66667 9.35556 9.11667 8.25001 10.0167 7.35001C10.9167 6.45001 12.0222 6 13.3333 6C14.6444 6 15.75 6.45001 16.65 7.35001C17.55 8.25001 18 9.35556 18 10.6667C18 11.9778 17.55 13.0833 16.65 13.9833C15.75 14.8833 14.6444 15.3333 13.3333 15.3333ZM13.3333 27.3333C11.4889 27.3333 9.75556 26.9833 8.13333 26.2833C6.51111 25.5833 5.1 24.6333 3.9 23.4333C2.7 22.2333 1.75 20.8222 1.05 19.2C0.35 17.5778 0 15.8444 0 14C0 12.1556 0.35 10.4222 1.05 8.8C1.75 7.17778 2.7 5.76667 3.9 4.56667C5.1 3.36667 6.51111 2.41667 8.13333 1.71667C9.75556 1.01667 11.4889 0.666672 13.3333 0.666672C15.1778 0.666672 16.9111 1.01667 18.5333 1.71667C20.1556 2.41667 21.5667 3.36667 22.7667 4.56667C23.9667 5.76667 24.9167 7.17778 25.6167 8.8C26.3167 10.4222 26.6667 12.1556 26.6667 14C26.6667 15.8444 26.3167 17.5778 25.6167 19.2C24.9167 20.8222 23.9667 22.2333 22.7667 23.4333C21.5667 24.6333 20.1556 25.5833 18.5333 26.2833C16.9111 26.9833 15.1778 27.3333 13.3333 27.3333ZM13.3333 24.6667C14.5111 24.6667 15.6222 24.4944 16.6667 24.15C17.7111 23.8056 18.6667 23.3111 19.5333 22.6667C18.6667 22.0222 17.7111 21.5278 16.6667 21.1833C15.6222 20.8389 14.5111 20.6667 13.3333 20.6667C12.1556 20.6667 11.0444 20.8389 10 21.1833C8.95555 21.5278 8 22.0222 7.13333 22.6667C8 23.3111 8.95555 23.8056 10 24.15C11.0444 24.4944 12.1556 24.6667 13.3333 24.6667ZM13.3333 12.6667C13.9111 12.6667 14.3889 12.4778 14.7667 12.1C15.1444 11.7222 15.3333 11.2444 15.3333 10.6667C15.3333 10.0889 15.1444 9.61112 14.7667 9.23334C14.3889 8.85556 13.9111 8.66667 13.3333 8.66667C12.7556 8.66667 12.2778 8.85556 11.9 9.23334C11.5222 9.61112 11.3333 10.0889 11.3333 10.6667C11.3333 11.2444 11.5222 11.7222 11.9 12.1C12.2778 12.4778 12.7556 12.6667 13.3333 12.6667Z" fill="#1C1B1F"/>
</svg>
