<svg width="32" height="32" viewBox="0 0 32 32" fill="none" xmlns="http://www.w3.org/2000/svg">
<g clip-path="url(#clip0_1530_20481)">
<path d="M31.0714 16.2105C31.0714 14.2791 30.7296 12.429 30.1051 10.7186L15.5357 10.032L0.966309 10.7185C0.341846 12.429 0 14.2791 0 16.2105C0 18.1419 0.341846 19.992 0.966309 21.7025L15.5357 22.389L30.1051 21.7025C30.7296 19.992 31.0714 18.1419 31.0714 16.2105Z" fill="#D80027"/>
<path d="M15.5362 32C22.216 32 27.9105 27.7151 30.1056 21.7025H0.966797C3.16188 27.7151 8.85639 32 15.5362 32Z" fill="#6DA544"/>
<path d="M0.966797 10.7186H30.1057C27.9105 4.70592 22.216 0.421051 15.5362 0.421051C8.85639 0.421051 3.16188 4.70592 0.966797 10.7186Z" fill="#338AF3"/>
<path d="M15.8736 20.6728C13.4488 20.6728 11.4831 18.6749 11.4831 16.2105C11.4831 13.7461 13.4488 11.7483 15.8736 11.7483C16.6296 11.7483 17.3411 11.9426 17.9621 12.2846C16.9877 11.3162 15.6553 10.7185 14.1849 10.7185C11.2005 10.7185 8.78125 13.1773 8.78125 16.2105C8.78125 19.2436 11.2006 21.7024 14.1849 21.7024C15.6554 21.7024 16.9878 21.1047 17.9621 20.1363C17.3411 20.4785 16.6296 20.6728 15.8736 20.6728Z" fill="#F0F0F0"/>
<path d="M19.2505 13.1213L19.8321 14.7836L21.3999 14.026L20.6546 15.6194L22.2901 16.2105L20.6546 16.8017L21.3999 18.395L19.8321 17.6375L19.2505 19.2998L18.669 17.6375L17.1012 18.395L17.8466 16.8017L16.2109 16.2105L17.8466 15.6194L17.1012 14.026L18.669 14.7836L19.2505 13.1213Z" fill="#F0F0F0"/>
</g>
<defs>
<clipPath id="clip0_1530_20481">
<rect width="31.0714" height="31.5789" fill="white" transform="translate(0 0.421051)"/>
</clipPath>
</defs>
</svg>
