<svg width="785" height="300" viewBox="0 0 785 300" fill="none" xmlns="http://www.w3.org/2000/svg">
<g clip-path="url(#clip0_76_47505)">
<rect width="785" height="300" fill="white"/>
<rect width="785" height="300" fill="#14CCBD"/>
<path d="M350.421 17.3544C350.837 17.3544 351.253 17.3678 351.682 17.408C362.034 18.1992 370.241 27.1165 376.235 34.8001L376.637 35.3231C386.292 47.7269 386.238 50.3015 386.144 50.6636L349.63 119.2L299.076 92.9303L328.966 35.6449C334.276 26.151 340.539 17.3544 350.408 17.3544M350.421 16.0134C339.412 16.0134 332.707 26.2315 327.813 34.9879L297.28 93.5069L350.207 120.996L387.338 51.2804C388.84 48.5046 378.796 35.9131 377.307 33.9687C371.072 25.9767 362.584 16.885 351.789 16.0536C351.333 16.0134 350.877 16 350.435 16L350.421 16.0134Z" fill="#F9F7E1" fill-opacity="0.26"/>
<path d="M422.94 17.3545C446.956 17.6897 451.019 31.2333 451.18 31.7965L451.22 31.9574L451.301 32.0915L466.038 59.0446L466.641 60.1576L467.781 59.6212L482.143 52.8629C483.363 52.4337 484.409 52.1924 485.16 52.1924C485.736 52.1924 486.098 52.3131 486.246 52.5544C486.461 52.8897 486.943 54.3647 484.503 59.4469L466.306 97.0874C463.53 102.773 459.655 106.112 455.069 106.742L449.598 106.179L410.858 102.451C407.613 102.009 403.831 100.708 403.603 99.5279C403.576 99.4072 403.483 98.3076 407.103 96.2158L418.568 89.5915L419.668 88.9612L419.105 87.8348C395.088 39.8288 380.432 22.9194 374.37 17.3545H422.94ZM422.953 16.0135H370.535C370.535 16.0135 385.836 24.3006 417.911 88.4383L406.446 95.0625C395.008 101.687 410.697 103.779 410.697 103.779L449.477 107.52L455.096 108.097C458.864 107.627 463.799 105.334 467.526 97.6774L485.723 60.0369C489.196 52.8092 487.761 50.8514 485.16 50.8514C484.087 50.8514 482.827 51.1867 481.62 51.6158L467.191 58.401L452.454 31.4479C452.454 31.4479 448.391 16.3622 422.926 16.0135H422.953Z" fill="#F9F7E1" fill-opacity="0.26"/>
<path d="M490.872 100.453L525.723 154.855C531.61 164.591 536.236 174.809 530.296 183.619C524.463 192.241 512.636 194.91 502.981 196.277L502.579 196.331C500.406 196.653 493.795 197.618 488.901 197.618C484.999 197.618 484.342 197.001 484.328 196.988L442.987 131.268L490.886 100.44M491.274 98.6025L441.136 130.879L483.175 197.712C483.752 198.651 486.031 198.973 488.874 198.973C494.238 198.973 501.586 197.846 503.155 197.618C513.199 196.197 525.321 193.354 531.396 184.383C538.02 174.567 532.267 163.102 526.863 154.172L491.261 98.616L491.274 98.6025Z" fill="#F9F7E1" fill-opacity="0.26"/>
<path d="M432.997 187.829C433.788 187.829 434.324 189.679 434.351 192.536L434.432 205.784V207.045L435.692 207.112C447.814 207.796 459.118 208.144 469.269 208.144C499.065 208.144 513.132 205.208 519.072 203.33L494.935 245.49C485.884 260.75 475.974 263.029 470.879 263.029C469.296 263.029 468.358 262.801 468.358 262.801L468.21 262.761H468.049L437.355 262.171L436.094 262.144L435.987 263.405L434.7 279.228C434.217 281.977 433.439 282.956 432.903 282.956C432.501 282.956 430.972 282.594 427.821 278.008L404.193 243.492C400.599 238.235 399.634 233.22 401.404 228.969L404.555 224.49L427.097 192.737C428.598 190.766 431.508 187.842 432.997 187.842M432.997 186.488C430.141 186.488 426.024 191.905 426.024 191.905L403.456 223.699L400.211 228.299C398.709 231.799 398.253 237.189 403.067 244.243L426.694 278.759C429.483 282.822 431.468 284.283 432.876 284.283C434.713 284.283 435.585 281.803 436.001 279.389L437.301 263.512L467.996 264.102C467.996 264.102 469.055 264.384 470.852 264.384C475.84 264.384 486.527 262.252 496.062 246.187L522.116 200.689C522.116 200.689 512.193 206.817 469.256 206.817C459.776 206.817 448.699 206.522 435.759 205.784L435.679 192.536C435.638 187.99 434.485 186.501 432.983 186.501L432.997 186.488Z" fill="#F9F7E1" fill-opacity="0.26"/>
<path d="M385.033 205.972L386.092 262.896L321.485 263.955C310.087 263.781 298.944 262.306 294.613 252.718C290.362 243.211 294.304 231.719 298.207 222.788L298.488 222.158C304.764 207.823 307.043 206.629 307.392 206.536L385.046 205.972M386.361 204.631L307.379 205.208C304.227 205.235 297.965 220.052 296.986 222.265C292.91 231.598 288.967 243.385 293.392 253.281C298.26 264.076 311.026 265.162 321.472 265.323L387.474 264.237L386.374 204.631H386.361Z" fill="#F9F7E1" fill-opacity="0.26"/>
<path d="M311.239 113.929C316.992 113.929 321.229 115.713 323.831 119.226L325.99 124.295L341.129 160.165L341.196 160.326C341.853 161.989 343.06 166.428 342.175 167.769C342.108 167.876 341.987 168.037 341.518 168.037C340.901 168.037 339.694 167.755 337.482 166.401L326.151 159.549L325.078 158.905L324.354 159.937C293.606 203.894 285.721 224.813 283.71 232.778L260.565 190.109C249.408 168.841 259.398 158.811 259.814 158.395L259.934 158.288L260.015 158.154L276.656 132.314L277.34 131.255L276.321 130.504L263.555 121.144C261.611 119.387 261.114 118.207 261.275 117.738C261.329 117.577 262 116.196 268.181 115.901L309.965 113.943C310.394 113.929 310.81 113.916 311.226 113.916M311.239 112.589C310.81 112.589 310.381 112.588 309.925 112.615L268.141 114.573C256.837 115.123 259.465 119.266 262.724 122.19L275.543 131.59L258.902 157.43C258.902 157.43 247.557 168.211 259.385 190.739L284.367 236.801C284.367 236.801 284.393 219.409 325.453 160.715L336.784 167.567C338.916 168.868 340.445 169.391 341.518 169.391C346.131 169.391 342.403 159.642 342.363 159.642L327.223 123.772L325.011 118.556C322.932 115.673 318.923 112.589 311.253 112.589H311.239Z" fill="#F9F7E1" fill-opacity="0.26"/>
<path d="M33.4331 239.983H220.242C259.869 239.983 292 207.903 292 168.301C292 128.715 259.869 96.6184 220.242 96.6184C219.874 96.6184 219.506 96.6518 219.137 96.6518C212.059 49.3093 171.176 13 121.809 13C103.083 13 85.5783 18.2324 70.6677 27.293C62.8191 32.0741 55.6902 37.925 49.4817 44.6285C44.2604 43.776 38.8886 43.3246 33.4331 43.3246C-20.9377 43.3246 -65 87.3572 -65 141.671C-65 144.529 -64.8829 147.354 -64.6318 150.146C-60.331 200.481 -18.0761 240 33.4499 240" fill="url(#paint0_linear_76_47505)"/>
<path d="M54.848 58.196C53.4107 58.196 52.1227 57.9627 50.984 57.496C49.8453 57.0293 48.9307 56.3387 48.24 55.424C47.568 54.5093 47.2133 53.408 47.176 52.12H52.272C52.3467 52.848 52.5987 53.408 53.028 53.8C53.4573 54.1733 54.0173 54.36 54.708 54.36C55.4173 54.36 55.9773 54.2013 56.388 53.884C56.7987 53.548 57.004 53.0907 57.004 52.512C57.004 52.0267 56.836 51.6253 56.5 51.308C56.1827 50.9907 55.7813 50.7293 55.296 50.524C54.8293 50.3187 54.1573 50.0853 53.28 49.824C52.0107 49.432 50.9747 49.04 50.172 48.648C49.3693 48.256 48.6787 47.6773 48.1 46.912C47.5213 46.1467 47.232 45.148 47.232 43.916C47.232 42.0867 47.8947 40.6587 49.22 39.632C50.5453 38.5867 52.272 38.064 54.4 38.064C56.5653 38.064 58.3107 38.5867 59.636 39.632C60.9613 40.6587 61.6707 42.096 61.764 43.944H56.584C56.5467 43.3093 56.3133 42.8147 55.884 42.46C55.4547 42.0867 54.904 41.9 54.232 41.9C53.6533 41.9 53.1867 42.0587 52.832 42.376C52.4773 42.6747 52.3 43.1133 52.3 43.692C52.3 44.3267 52.5987 44.8213 53.196 45.176C53.7933 45.5307 54.7267 45.9133 55.996 46.324C57.2653 46.7533 58.292 47.164 59.076 47.556C59.8787 47.948 60.5693 48.5173 61.148 49.264C61.7267 50.0107 62.016 50.972 62.016 52.148C62.016 53.268 61.7267 54.2853 61.148 55.2C60.588 56.1147 59.7667 56.8427 58.684 57.384C57.6013 57.9253 56.3227 58.196 54.848 58.196ZM69.6666 38.344V50.104C69.6666 51.28 69.9559 52.1853 70.5346 52.82C71.1132 53.4547 71.9626 53.772 73.0826 53.772C74.2026 53.772 75.0612 53.4547 75.6586 52.82C76.2559 52.1853 76.5546 51.28 76.5546 50.104V38.344H81.3426V50.076C81.3426 51.8307 80.9692 53.3147 80.2226 54.528C79.4759 55.7413 78.4679 56.656 77.1986 57.272C75.9479 57.888 74.5479 58.196 72.9986 58.196C71.4492 58.196 70.0586 57.8973 68.8266 57.3C67.6132 56.684 66.6519 55.7693 65.9426 54.556C65.2332 53.324 64.8786 51.8307 64.8786 50.076V38.344H69.6666ZM99.6848 44.672C99.6848 45.8107 99.4234 46.856 98.9008 47.808C98.3781 48.7413 97.5754 49.4973 96.4928 50.076C95.4101 50.6547 94.0661 50.944 92.4608 50.944H89.4928V58H84.7048V38.344H92.4608C94.0288 38.344 95.3541 38.6147 96.4368 39.156C97.5194 39.6973 98.3314 40.444 98.8728 41.396C99.4141 42.348 99.6848 43.44 99.6848 44.672ZM92.0968 47.136C93.0114 47.136 93.6928 46.9213 94.1408 46.492C94.5888 46.0627 94.8128 45.456 94.8128 44.672C94.8128 43.888 94.5888 43.2813 94.1408 42.852C93.6928 42.4227 93.0114 42.208 92.0968 42.208H89.4928V47.136H92.0968ZM117.157 44.672C117.157 45.8107 116.896 46.856 116.373 47.808C115.851 48.7413 115.048 49.4973 113.965 50.076C112.883 50.6547 111.539 50.944 109.933 50.944H106.965V58H102.177V38.344H109.933C111.501 38.344 112.827 38.6147 113.909 39.156C114.992 39.6973 115.804 40.444 116.345 41.396C116.887 42.348 117.157 43.44 117.157 44.672ZM109.569 47.136C110.484 47.136 111.165 46.9213 111.613 46.492C112.061 46.0627 112.285 45.456 112.285 44.672C112.285 43.888 112.061 43.2813 111.613 42.852C111.165 42.4227 110.484 42.208 109.569 42.208H106.965V47.136H109.569ZM128.946 58.196C127.098 58.196 125.399 57.7667 123.85 56.908C122.319 56.0493 121.097 54.8547 120.182 53.324C119.286 51.7747 118.838 50.0387 118.838 48.116C118.838 46.1933 119.286 44.4667 120.182 42.936C121.097 41.4053 122.319 40.2107 123.85 39.352C125.399 38.4933 127.098 38.064 128.946 38.064C130.794 38.064 132.483 38.4933 134.014 39.352C135.563 40.2107 136.777 41.4053 137.654 42.936C138.55 44.4667 138.998 46.1933 138.998 48.116C138.998 50.0387 138.55 51.7747 137.654 53.324C136.758 54.8547 135.545 56.0493 134.014 56.908C132.483 57.7667 130.794 58.196 128.946 58.196ZM128.946 53.828C130.514 53.828 131.765 53.3053 132.698 52.26C133.65 51.2147 134.126 49.8333 134.126 48.116C134.126 46.38 133.65 44.9987 132.698 43.972C131.765 42.9267 130.514 42.404 128.946 42.404C127.359 42.404 126.09 42.9173 125.138 43.944C124.205 44.9707 123.738 46.3613 123.738 48.116C123.738 49.852 124.205 51.2427 125.138 52.288C126.09 53.3147 127.359 53.828 128.946 53.828ZM151.686 58L147.598 50.58H146.45V58H141.662V38.344H149.698C151.247 38.344 152.563 38.6147 153.646 39.156C154.747 39.6973 155.568 40.444 156.11 41.396C156.651 42.3293 156.922 43.3747 156.922 44.532C156.922 45.8387 156.548 47.0053 155.802 48.032C155.074 49.0587 153.991 49.7867 152.554 50.216L157.09 58H151.686ZM146.45 47.192H149.418C150.295 47.192 150.948 46.9773 151.378 46.548C151.826 46.1187 152.05 45.512 152.05 44.728C152.05 43.9813 151.826 43.3933 151.378 42.964C150.948 42.5347 150.295 42.32 149.418 42.32H146.45V47.192ZM174.067 38.344V42.18H168.859V58H164.071V42.18H158.863V38.344H174.067ZM187.192 42.18V46.156H193.604V49.852H187.192V54.164H194.444V58H182.404V38.344H194.444V42.18H187.192ZM215.136 58H210.348L202.34 45.876V58H197.552V38.344H202.34L210.348 50.524V38.344H215.136V58ZM237.059 38.344L230.087 58H224.095L217.123 38.344H222.219L227.091 53.184L231.991 38.344H237.059ZM243.848 38.344V58H239.06V38.344H243.848ZM257.342 58L253.254 50.58H252.106V58H247.318V38.344H255.354C256.903 38.344 258.219 38.6147 259.302 39.156C260.403 39.6973 261.225 40.444 261.766 41.396C262.307 42.3293 262.578 43.3747 262.578 44.532C262.578 45.8387 262.205 47.0053 261.458 48.032C260.73 49.0587 259.647 49.7867 258.21 50.216L262.746 58H257.342ZM252.106 47.192H255.074C255.951 47.192 256.605 46.9773 257.034 46.548C257.482 46.1187 257.706 45.512 257.706 44.728C257.706 43.9813 257.482 43.3933 257.034 42.964C256.605 42.5347 255.951 42.32 255.074 42.32H252.106V47.192ZM274.88 58.196C273.032 58.196 271.333 57.7667 269.784 56.908C268.253 56.0493 267.03 54.8547 266.116 53.324C265.22 51.7747 264.772 50.0387 264.772 48.116C264.772 46.1933 265.22 44.4667 266.116 42.936C267.03 41.4053 268.253 40.2107 269.784 39.352C271.333 38.4933 273.032 38.064 274.88 38.064C276.728 38.064 278.417 38.4933 279.948 39.352C281.497 40.2107 282.71 41.4053 283.588 42.936C284.484 44.4667 284.932 46.1933 284.932 48.116C284.932 50.0387 284.484 51.7747 283.588 53.324C282.692 54.8547 281.478 56.0493 279.948 56.908C278.417 57.7667 276.728 58.196 274.88 58.196ZM274.88 53.828C276.448 53.828 277.698 53.3053 278.632 52.26C279.584 51.2147 280.06 49.8333 280.06 48.116C280.06 46.38 279.584 44.9987 278.632 43.972C277.698 42.9267 276.448 42.404 274.88 42.404C273.293 42.404 272.024 42.9173 271.072 43.944C270.138 44.9707 269.672 46.3613 269.672 48.116C269.672 49.852 270.138 51.2427 271.072 52.288C272.024 53.3147 273.293 53.828 274.88 53.828ZM305.179 58H300.391L292.383 45.876V58H287.595V38.344H292.383L300.391 50.524V38.344H305.179V58ZM330.91 38.344V58H326.122V46.212L321.726 58H317.862L313.438 46.184V58H308.65V38.344H314.306L319.822 51.952L325.282 38.344H330.91ZM339.141 42.18V46.156H345.553V49.852H339.141V54.164H346.393V58H334.353V38.344H346.393V42.18H339.141ZM367.086 58H362.298L354.29 45.876V58H349.502V38.344H354.29L362.298 50.524V38.344H367.086V58ZM384.696 38.344V42.18H379.488V58H374.7V42.18H369.492V38.344H384.696ZM399.335 54.528H391.999L390.823 58H385.811L392.923 38.344H398.467L405.579 58H400.511L399.335 54.528ZM398.103 50.832L395.667 43.636L393.259 50.832H398.103ZM412.532 54.304H418.804V58H407.744V38.344H412.532V54.304ZM46.924 90.144C46.924 88.2027 47.344 86.476 48.184 84.964C49.024 83.4333 50.1907 82.248 51.684 81.408C53.196 80.5493 54.904 80.12 56.808 80.12C59.1413 80.12 61.1387 80.736 62.8 81.968C64.4613 83.2 65.572 84.88 66.132 87.008H60.868C60.476 86.1867 59.916 85.5613 59.188 85.132C58.4787 84.7027 57.6667 84.488 56.752 84.488C55.2773 84.488 54.0827 85.0013 53.168 86.028C52.2533 87.0547 51.796 88.4267 51.796 90.144C51.796 91.8613 52.2533 93.2333 53.168 94.26C54.0827 95.2867 55.2773 95.8 56.752 95.8C57.6667 95.8 58.4787 95.5853 59.188 95.156C59.916 94.7267 60.476 94.1013 60.868 93.28H66.132C65.572 95.408 64.4613 97.088 62.8 98.32C61.1387 99.5333 59.1413 100.14 56.808 100.14C54.904 100.14 53.196 99.72 51.684 98.88C50.1907 98.0213 49.024 96.836 48.184 95.324C47.344 93.812 46.924 92.0853 46.924 90.144ZM86.0881 80.344V100H81.3001V91.908H73.8521V100H69.0641V80.344H73.8521V88.044H81.3001V80.344H86.0881ZM101.781 96.528H94.4446L93.2686 100H88.2566L95.3686 80.344H100.913L108.025 100H102.957L101.781 96.528ZM100.549 92.832L98.1126 85.636L95.7046 92.832H100.549ZM127.773 100H122.985L114.977 87.876V100H110.189V80.344H114.977L122.985 92.524V80.344H127.773V100ZM144.292 86.56C143.937 85.9067 143.424 85.412 142.752 85.076C142.098 84.7213 141.324 84.544 140.428 84.544C138.878 84.544 137.637 85.0573 136.704 86.084C135.77 87.092 135.304 88.4453 135.304 90.144C135.304 91.9547 135.789 93.3733 136.76 94.4C137.749 95.408 139.102 95.912 140.82 95.912C141.996 95.912 142.985 95.6133 143.788 95.016C144.609 94.4187 145.206 93.56 145.58 92.44H139.504V88.912H149.92V93.364C149.565 94.5587 148.958 95.6693 148.1 96.696C147.26 97.7227 146.186 98.5533 144.88 99.188C143.573 99.8227 142.098 100.14 140.456 100.14C138.514 100.14 136.778 99.72 135.248 98.88C133.736 98.0213 132.55 96.836 131.692 95.324C130.852 93.812 130.432 92.0853 130.432 90.144C130.432 88.2027 130.852 86.476 131.692 84.964C132.55 83.4333 133.736 82.248 135.248 81.408C136.76 80.5493 138.486 80.12 140.428 80.12C142.78 80.12 144.758 80.6893 146.364 81.828C147.988 82.9667 149.061 84.544 149.584 86.56H144.292ZM157.36 84.18V88.156H163.772V91.852H157.36V96.164H164.612V100H152.572V80.344H164.612V84.18H157.36ZM174.832 100.196C173.395 100.196 172.107 99.9627 170.968 99.496C169.83 99.0293 168.915 98.3387 168.224 97.424C167.552 96.5093 167.198 95.408 167.16 94.12H172.256C172.331 94.848 172.583 95.408 173.012 95.8C173.442 96.1733 174.002 96.36 174.692 96.36C175.402 96.36 175.962 96.2013 176.372 95.884C176.783 95.548 176.988 95.0907 176.988 94.512C176.988 94.0267 176.82 93.6253 176.484 93.308C176.167 92.9907 175.766 92.7293 175.28 92.524C174.814 92.3187 174.142 92.0853 173.264 91.824C171.995 91.432 170.959 91.04 170.156 90.648C169.354 90.256 168.663 89.6773 168.084 88.912C167.506 88.1467 167.216 87.148 167.216 85.916C167.216 84.0867 167.879 82.6587 169.204 81.632C170.53 80.5867 172.256 80.064 174.384 80.064C176.55 80.064 178.295 80.5867 179.62 81.632C180.946 82.6587 181.655 84.096 181.748 85.944H176.568C176.531 85.3093 176.298 84.8147 175.868 84.46C175.439 84.0867 174.888 83.9 174.216 83.9C173.638 83.9 173.171 84.0587 172.816 84.376C172.462 84.6747 172.284 85.1133 172.284 85.692C172.284 86.3267 172.583 86.8213 173.18 87.176C173.778 87.5307 174.711 87.9133 175.98 88.324C177.25 88.7533 178.276 89.164 179.06 89.556C179.863 89.948 180.554 90.5173 181.132 91.264C181.711 92.0107 182 92.972 182 94.148C182 95.268 181.711 96.2853 181.132 97.2C180.572 98.1147 179.751 98.8427 178.668 99.384C177.586 99.9253 176.307 100.196 174.832 100.196ZM69.825 120.575L64.775 138H62.225L58.175 123.975L53.975 138L51.45 138.025L46.575 120.575H49L52.8 135.35L57 120.575H59.55L63.55 135.3L67.375 120.575H69.825ZM84.8146 130.625C84.8146 131.058 84.7896 131.517 84.7396 132H73.7896C73.873 133.35 74.3313 134.408 75.1646 135.175C76.0146 135.925 77.0396 136.3 78.2396 136.3C79.223 136.3 80.0396 136.075 80.6896 135.625C81.3563 135.158 81.823 134.542 82.0896 133.775H84.5396C84.173 135.092 83.4396 136.167 82.3396 137C81.2396 137.817 79.873 138.225 78.2396 138.225C76.9396 138.225 75.773 137.933 74.7396 137.35C73.723 136.767 72.923 135.942 72.3396 134.875C71.7563 133.792 71.4646 132.542 71.4646 131.125C71.4646 129.708 71.748 128.467 72.3146 127.4C72.8813 126.333 73.673 125.517 74.6896 124.95C75.723 124.367 76.9063 124.075 78.2396 124.075C79.5396 124.075 80.6896 124.358 81.6896 124.925C82.6896 125.492 83.4563 126.275 83.9896 127.275C84.5396 128.258 84.8146 129.375 84.8146 130.625ZM82.4646 130.15C82.4646 129.283 82.273 128.542 81.8896 127.925C81.5063 127.292 80.9813 126.817 80.3146 126.5C79.6646 126.167 78.9396 126 78.1396 126C76.9896 126 76.0063 126.367 75.1896 127.1C74.3896 127.833 73.9313 128.85 73.8146 130.15H82.4646ZM93.6326 131.1C93.6326 129.7 93.916 128.475 94.4826 127.425C95.0493 126.358 95.8243 125.533 96.8076 124.95C97.8076 124.367 98.9243 124.075 100.158 124.075C101.224 124.075 102.216 124.325 103.133 124.825C104.049 125.308 104.749 125.95 105.233 126.75V119.5H107.533V138H105.233V135.425C104.783 136.242 104.116 136.917 103.233 137.45C102.349 137.967 101.316 138.225 100.133 138.225C98.916 138.225 97.8076 137.925 96.8076 137.325C95.8243 136.725 95.0493 135.883 94.4826 134.8C93.916 133.717 93.6326 132.483 93.6326 131.1ZM105.233 131.125C105.233 130.092 105.024 129.192 104.608 128.425C104.191 127.658 103.624 127.075 102.908 126.675C102.208 126.258 101.433 126.05 100.583 126.05C99.7326 126.05 98.9576 126.25 98.2576 126.65C97.5576 127.05 96.9993 127.633 96.5826 128.4C96.166 129.167 95.9576 130.067 95.9576 131.1C95.9576 132.15 96.166 133.067 96.5826 133.85C96.9993 134.617 97.5576 135.208 98.2576 135.625C98.9576 136.025 99.7326 136.225 100.583 136.225C101.433 136.225 102.208 136.025 102.908 135.625C103.624 135.208 104.191 134.617 104.608 133.85C105.024 133.067 105.233 132.158 105.233 131.125ZM117.352 138.225C116.069 138.225 114.902 137.933 113.852 137.35C112.819 136.767 112.002 135.942 111.402 134.875C110.819 133.792 110.527 132.542 110.527 131.125C110.527 129.725 110.827 128.492 111.427 127.425C112.044 126.342 112.877 125.517 113.927 124.95C114.977 124.367 116.152 124.075 117.452 124.075C118.752 124.075 119.927 124.367 120.977 124.95C122.027 125.517 122.852 126.333 123.452 127.4C124.069 128.467 124.377 129.708 124.377 131.125C124.377 132.542 124.06 133.792 123.427 134.875C122.81 135.942 121.969 136.767 120.902 137.35C119.835 137.933 118.652 138.225 117.352 138.225ZM117.352 136.225C118.169 136.225 118.935 136.033 119.652 135.65C120.369 135.267 120.944 134.692 121.377 133.925C121.827 133.158 122.052 132.225 122.052 131.125C122.052 130.025 121.835 129.092 121.402 128.325C120.969 127.558 120.402 126.992 119.702 126.625C119.002 126.242 118.244 126.05 117.427 126.05C116.594 126.05 115.827 126.242 115.127 126.625C114.444 126.992 113.894 127.558 113.477 128.325C113.06 129.092 112.852 130.025 112.852 131.125C112.852 132.242 113.052 133.183 113.452 133.95C113.869 134.717 114.419 135.292 115.102 135.675C115.785 136.042 116.535 136.225 117.352 136.225ZM134.043 124.05C135.71 124.05 137.06 124.558 138.093 125.575C139.127 126.575 139.643 128.025 139.643 129.925V138H137.393V130.25C137.393 128.883 137.052 127.842 136.368 127.125C135.685 126.392 134.752 126.025 133.568 126.025C132.368 126.025 131.41 126.4 130.693 127.15C129.993 127.9 129.643 128.992 129.643 130.425V138H127.368V124.3H129.643V126.25C130.093 125.55 130.702 125.008 131.468 124.625C132.252 124.242 133.11 124.05 134.043 124.05ZM142.51 131.1C142.51 129.7 142.793 128.475 143.36 127.425C143.926 126.358 144.701 125.533 145.685 124.95C146.685 124.367 147.793 124.075 149.01 124.075C150.21 124.075 151.251 124.333 152.135 124.85C153.018 125.367 153.676 126.017 154.11 126.8V124.3H156.41V138H154.11V135.45C153.66 136.25 152.985 136.917 152.085 137.45C151.201 137.967 150.168 138.225 148.985 138.225C147.768 138.225 146.668 137.925 145.685 137.325C144.701 136.725 143.926 135.883 143.36 134.8C142.793 133.717 142.51 132.483 142.51 131.1ZM154.11 131.125C154.11 130.092 153.901 129.192 153.485 128.425C153.068 127.658 152.501 127.075 151.785 126.675C151.085 126.258 150.31 126.05 149.46 126.05C148.61 126.05 147.835 126.25 147.135 126.65C146.435 127.05 145.876 127.633 145.46 128.4C145.043 129.167 144.835 130.067 144.835 131.1C144.835 132.15 145.043 133.067 145.46 133.85C145.876 134.617 146.435 135.208 147.135 135.625C147.835 136.025 148.61 136.225 149.46 136.225C150.31 136.225 151.085 136.025 151.785 135.625C152.501 135.208 153.068 134.617 153.485 133.85C153.901 133.067 154.11 132.158 154.11 131.125ZM163.029 126.175V134.25C163.029 134.917 163.171 135.392 163.454 135.675C163.737 135.942 164.229 136.075 164.929 136.075H166.604V138H164.554C163.287 138 162.337 137.708 161.704 137.125C161.071 136.542 160.754 135.583 160.754 134.25V126.175H158.979V124.3H160.754V120.85H163.029V124.3H166.604V126.175H163.029ZM181.861 130.625C181.861 131.058 181.836 131.517 181.786 132H170.836C170.919 133.35 171.377 134.408 172.211 135.175C173.061 135.925 174.086 136.3 175.286 136.3C176.269 136.3 177.086 136.075 177.736 135.625C178.402 135.158 178.869 134.542 179.136 133.775H181.586C181.219 135.092 180.486 136.167 179.386 137C178.286 137.817 176.919 138.225 175.286 138.225C173.986 138.225 172.819 137.933 171.786 137.35C170.769 136.767 169.969 135.942 169.386 134.875C168.802 133.792 168.511 132.542 168.511 131.125C168.511 129.708 168.794 128.467 169.361 127.4C169.927 126.333 170.719 125.517 171.736 124.95C172.769 124.367 173.952 124.075 175.286 124.075C176.586 124.075 177.736 124.358 178.736 124.925C179.736 125.492 180.502 126.275 181.036 127.275C181.586 128.258 181.861 129.375 181.861 130.625ZM179.511 130.15C179.511 129.283 179.319 128.542 178.936 127.925C178.552 127.292 178.027 126.817 177.361 126.5C176.711 126.167 175.986 126 175.186 126C174.036 126 173.052 126.367 172.236 127.1C171.436 127.833 170.977 128.85 170.861 130.15H179.511ZM197.104 126.175H194.229V138H191.954V126.175H190.179V124.3H191.954V123.325C191.954 121.792 192.345 120.675 193.129 119.975C193.929 119.258 195.204 118.9 196.954 118.9V120.8C195.954 120.8 195.245 121 194.829 121.4C194.429 121.783 194.229 122.425 194.229 123.325V124.3H197.104V126.175ZM202.031 126.525C202.431 125.742 202.998 125.133 203.731 124.7C204.481 124.267 205.389 124.05 206.456 124.05V126.4H205.856C203.306 126.4 202.031 127.783 202.031 130.55V138H199.756V124.3H202.031V126.525ZM215.057 138.225C213.774 138.225 212.607 137.933 211.557 137.35C210.524 136.767 209.707 135.942 209.107 134.875C208.524 133.792 208.232 132.542 208.232 131.125C208.232 129.725 208.532 128.492 209.132 127.425C209.749 126.342 210.582 125.517 211.632 124.95C212.682 124.367 213.857 124.075 215.157 124.075C216.457 124.075 217.632 124.367 218.682 124.95C219.732 125.517 220.557 126.333 221.157 127.4C221.774 128.467 222.082 129.708 222.082 131.125C222.082 132.542 221.766 133.792 221.132 134.875C220.516 135.942 219.674 136.767 218.607 137.35C217.541 137.933 216.357 138.225 215.057 138.225ZM215.057 136.225C215.874 136.225 216.641 136.033 217.357 135.65C218.074 135.267 218.649 134.692 219.082 133.925C219.532 133.158 219.757 132.225 219.757 131.125C219.757 130.025 219.541 129.092 219.107 128.325C218.674 127.558 218.107 126.992 217.407 126.625C216.707 126.242 215.949 126.05 215.132 126.05C214.299 126.05 213.532 126.242 212.832 126.625C212.149 126.992 211.599 127.558 211.182 128.325C210.766 129.092 210.557 130.025 210.557 131.125C210.557 132.242 210.757 133.183 211.157 133.95C211.574 134.717 212.124 135.292 212.807 135.675C213.491 136.042 214.241 136.225 215.057 136.225ZM241.548 124.05C242.615 124.05 243.565 124.275 244.398 124.725C245.232 125.158 245.89 125.817 246.373 126.7C246.857 127.583 247.098 128.658 247.098 129.925V138H244.848V130.25C244.848 128.883 244.507 127.842 243.823 127.125C243.157 126.392 242.248 126.025 241.098 126.025C239.915 126.025 238.973 126.408 238.273 127.175C237.573 127.925 237.223 129.017 237.223 130.45V138H234.973V130.25C234.973 128.883 234.632 127.842 233.948 127.125C233.282 126.392 232.373 126.025 231.223 126.025C230.04 126.025 229.098 126.408 228.398 127.175C227.698 127.925 227.348 129.017 227.348 130.45V138H225.073V124.3H227.348V126.275C227.798 125.558 228.398 125.008 229.148 124.625C229.915 124.242 230.757 124.05 231.673 124.05C232.823 124.05 233.84 124.308 234.723 124.825C235.607 125.342 236.265 126.1 236.698 127.1C237.082 126.133 237.715 125.383 238.598 124.85C239.482 124.317 240.465 124.05 241.548 124.05ZM269.995 130.625C269.995 131.058 269.97 131.517 269.92 132H258.97C259.054 133.35 259.512 134.408 260.345 135.175C261.195 135.925 262.22 136.3 263.42 136.3C264.404 136.3 265.22 136.075 265.87 135.625C266.537 135.158 267.004 134.542 267.27 133.775H269.72C269.354 135.092 268.62 136.167 267.52 137C266.42 137.817 265.054 138.225 263.42 138.225C262.12 138.225 260.954 137.933 259.92 137.35C258.904 136.767 258.104 135.942 257.52 134.875C256.937 133.792 256.645 132.542 256.645 131.125C256.645 129.708 256.929 128.467 257.495 127.4C258.062 126.333 258.854 125.517 259.87 124.95C260.904 124.367 262.087 124.075 263.42 124.075C264.72 124.075 265.87 124.358 266.87 124.925C267.87 125.492 268.637 126.275 269.17 127.275C269.72 128.258 269.995 129.375 269.995 130.625ZM267.645 130.15C267.645 129.283 267.454 128.542 267.07 127.925C266.687 127.292 266.162 126.817 265.495 126.5C264.845 126.167 264.12 126 263.32 126C262.17 126 261.187 126.367 260.37 127.1C259.57 127.833 259.112 128.85 258.995 130.15H267.645ZM278.098 135.9L282.348 124.3H284.773L279.398 138H276.748L271.373 124.3H273.823L278.098 135.9ZM299.512 130.625C299.512 131.058 299.487 131.517 299.437 132H288.487C288.57 133.35 289.029 134.408 289.862 135.175C290.712 135.925 291.737 136.3 292.937 136.3C293.92 136.3 294.737 136.075 295.387 135.625C296.054 135.158 296.52 134.542 296.787 133.775H299.237C298.87 135.092 298.137 136.167 297.037 137C295.937 137.817 294.57 138.225 292.937 138.225C291.637 138.225 290.47 137.933 289.437 137.35C288.42 136.767 287.62 135.942 287.037 134.875C286.454 133.792 286.162 132.542 286.162 131.125C286.162 129.708 286.445 128.467 287.012 127.4C287.579 126.333 288.37 125.517 289.387 124.95C290.42 124.367 291.604 124.075 292.937 124.075C294.237 124.075 295.387 124.358 296.387 124.925C297.387 125.492 298.154 126.275 298.687 127.275C299.237 128.258 299.512 129.375 299.512 130.625ZM297.162 130.15C297.162 129.283 296.97 128.542 296.587 127.925C296.204 127.292 295.679 126.817 295.012 126.5C294.362 126.167 293.637 126 292.837 126C291.687 126 290.704 126.367 289.887 127.1C289.087 127.833 288.629 128.85 288.512 130.15H297.162ZM304.79 126.525C305.19 125.742 305.757 125.133 306.49 124.7C307.24 124.267 308.148 124.05 309.215 124.05V126.4H308.615C306.065 126.4 304.79 127.783 304.79 130.55V138H302.515V124.3H304.79V126.525ZM323.641 124.3L315.391 144.45H313.041L315.741 137.85L310.216 124.3H312.741L317.041 135.4L321.291 124.3H323.641ZM331.743 131.1C331.743 129.7 332.026 128.475 332.593 127.425C333.16 126.358 333.935 125.533 334.918 124.95C335.918 124.367 337.035 124.075 338.268 124.075C339.335 124.075 340.326 124.325 341.243 124.825C342.16 125.308 342.86 125.95 343.343 126.75V119.5H345.643V138H343.343V135.425C342.893 136.242 342.226 136.917 341.343 137.45C340.46 137.967 339.426 138.225 338.243 138.225C337.026 138.225 335.918 137.925 334.918 137.325C333.935 136.725 333.16 135.883 332.593 134.8C332.026 133.717 331.743 132.483 331.743 131.1ZM343.343 131.125C343.343 130.092 343.135 129.192 342.718 128.425C342.301 127.658 341.735 127.075 341.018 126.675C340.318 126.258 339.543 126.05 338.693 126.05C337.843 126.05 337.068 126.25 336.368 126.65C335.668 127.05 335.11 127.633 334.693 128.4C334.276 129.167 334.068 130.067 334.068 131.1C334.068 132.15 334.276 133.067 334.693 133.85C335.11 134.617 335.668 135.208 336.368 135.625C337.068 136.025 337.843 136.225 338.693 136.225C339.543 136.225 340.318 136.025 341.018 135.625C341.735 135.208 342.301 134.617 342.718 133.85C343.135 133.067 343.343 132.158 343.343 131.125ZM355.463 138.225C354.179 138.225 353.013 137.933 351.963 137.35C350.929 136.767 350.113 135.942 349.513 134.875C348.929 133.792 348.638 132.542 348.638 131.125C348.638 129.725 348.938 128.492 349.538 127.425C350.154 126.342 350.988 125.517 352.038 124.95C353.088 124.367 354.263 124.075 355.563 124.075C356.863 124.075 358.038 124.367 359.088 124.95C360.138 125.517 360.963 126.333 361.563 127.4C362.179 128.467 362.488 129.708 362.488 131.125C362.488 132.542 362.171 133.792 361.538 134.875C360.921 135.942 360.079 136.767 359.013 137.35C357.946 137.933 356.763 138.225 355.463 138.225ZM355.463 136.225C356.279 136.225 357.046 136.033 357.763 135.65C358.479 135.267 359.054 134.692 359.488 133.925C359.938 133.158 360.163 132.225 360.163 131.125C360.163 130.025 359.946 129.092 359.513 128.325C359.079 127.558 358.513 126.992 357.813 126.625C357.113 126.242 356.354 126.05 355.538 126.05C354.704 126.05 353.938 126.242 353.238 126.625C352.554 126.992 352.004 127.558 351.588 128.325C351.171 129.092 350.963 130.025 350.963 131.125C350.963 132.242 351.163 133.183 351.563 133.95C351.979 134.717 352.529 135.292 353.213 135.675C353.896 136.042 354.646 136.225 355.463 136.225ZM367.754 119.5V138H365.479V119.5H367.754ZM373.906 119.5V138H371.631V119.5H373.906ZM376.933 131.1C376.933 129.7 377.217 128.475 377.783 127.425C378.35 126.358 379.125 125.533 380.108 124.95C381.108 124.367 382.217 124.075 383.433 124.075C384.633 124.075 385.675 124.333 386.558 124.85C387.442 125.367 388.1 126.017 388.533 126.8V124.3H390.833V138H388.533V135.45C388.083 136.25 387.408 136.917 386.508 137.45C385.625 137.967 384.592 138.225 383.408 138.225C382.192 138.225 381.092 137.925 380.108 137.325C379.125 136.725 378.35 135.883 377.783 134.8C377.217 133.717 376.933 132.483 376.933 131.1ZM388.533 131.125C388.533 130.092 388.325 129.192 387.908 128.425C387.492 127.658 386.925 127.075 386.208 126.675C385.508 126.258 384.733 126.05 383.883 126.05C383.033 126.05 382.258 126.25 381.558 126.65C380.858 127.05 380.3 127.633 379.883 128.4C379.467 129.167 379.258 130.067 379.258 131.1C379.258 132.15 379.467 133.067 379.883 133.85C380.3 134.617 380.858 135.208 381.558 135.625C382.258 136.025 383.033 136.225 383.883 136.225C384.733 136.225 385.508 136.025 386.208 135.625C386.925 135.208 387.492 134.617 387.908 133.85C388.325 133.067 388.533 132.158 388.533 131.125ZM396.953 126.525C397.353 125.742 397.92 125.133 398.653 124.7C399.403 124.267 400.311 124.05 401.378 124.05V126.4H400.778C398.228 126.4 396.953 127.783 396.953 130.55V138H394.678V124.3H396.953V126.525ZM59.725 162.3L51.475 182.45H49.125L51.825 175.85L46.3 162.3H48.825L53.125 173.4L57.375 162.3H59.725ZM67.9869 176.225C66.7036 176.225 65.5369 175.933 64.4869 175.35C63.4536 174.767 62.6369 173.942 62.0369 172.875C61.4536 171.792 61.1619 170.542 61.1619 169.125C61.1619 167.725 61.4619 166.492 62.0619 165.425C62.6786 164.342 63.5119 163.517 64.5619 162.95C65.6119 162.367 66.7869 162.075 68.0869 162.075C69.3869 162.075 70.5619 162.367 71.6119 162.95C72.6619 163.517 73.4869 164.333 74.0869 165.4C74.7036 166.467 75.0119 167.708 75.0119 169.125C75.0119 170.542 74.6952 171.792 74.0619 172.875C73.4452 173.942 72.6036 174.767 71.5369 175.35C70.4702 175.933 69.2869 176.225 67.9869 176.225ZM67.9869 174.225C68.8036 174.225 69.5702 174.033 70.2869 173.65C71.0036 173.267 71.5786 172.692 72.0119 171.925C72.4619 171.158 72.6869 170.225 72.6869 169.125C72.6869 168.025 72.4702 167.092 72.0369 166.325C71.6036 165.558 71.0369 164.992 70.3369 164.625C69.6369 164.242 68.8786 164.05 68.0619 164.05C67.2286 164.05 66.4619 164.242 65.7619 164.625C65.0786 164.992 64.5286 165.558 64.1119 166.325C63.6952 167.092 63.4869 168.025 63.4869 169.125C63.4869 170.242 63.6869 171.183 64.0869 171.95C64.5036 172.717 65.0536 173.292 65.7369 173.675C66.4202 174.042 67.1702 174.225 67.9869 174.225ZM90.1531 162.3V176H87.8781V173.975C87.4448 174.675 86.8365 175.225 86.0531 175.625C85.2865 176.008 84.4365 176.2 83.5031 176.2C82.4365 176.2 81.4781 175.983 80.6281 175.55C79.7781 175.1 79.1031 174.433 78.6031 173.55C78.1198 172.667 77.8781 171.592 77.8781 170.325V162.3H80.1281V170.025C80.1281 171.375 80.4698 172.417 81.1531 173.15C81.8365 173.867 82.7698 174.225 83.9531 174.225C85.1698 174.225 86.1281 173.85 86.8281 173.1C87.5281 172.35 87.8781 171.258 87.8781 169.825V162.3H90.1531ZM105.509 176.225C104.459 176.225 103.518 176.05 102.684 175.7C101.851 175.333 101.193 174.833 100.709 174.2C100.226 173.55 99.9594 172.808 99.9094 171.975H102.259C102.326 172.658 102.643 173.217 103.209 173.65C103.793 174.083 104.551 174.3 105.484 174.3C106.351 174.3 107.034 174.108 107.534 173.725C108.034 173.342 108.284 172.858 108.284 172.275C108.284 171.675 108.018 171.233 107.484 170.95C106.951 170.65 106.126 170.358 105.009 170.075C103.993 169.808 103.159 169.542 102.509 169.275C101.876 168.992 101.326 168.583 100.859 168.05C100.409 167.5 100.184 166.783 100.184 165.9C100.184 165.2 100.393 164.558 100.809 163.975C101.226 163.392 101.818 162.933 102.584 162.6C103.351 162.25 104.226 162.075 105.209 162.075C106.726 162.075 107.951 162.458 108.884 163.225C109.818 163.992 110.318 165.042 110.384 166.375H108.109C108.059 165.658 107.768 165.083 107.234 164.65C106.718 164.217 106.018 164 105.134 164C104.318 164 103.668 164.175 103.184 164.525C102.701 164.875 102.459 165.333 102.459 165.9C102.459 166.35 102.601 166.725 102.884 167.025C103.184 167.308 103.551 167.542 103.984 167.725C104.434 167.892 105.051 168.083 105.834 168.3C106.818 168.567 107.618 168.833 108.234 169.1C108.851 169.35 109.376 169.733 109.809 170.25C110.259 170.767 110.493 171.442 110.509 172.275C110.509 173.025 110.301 173.7 109.884 174.3C109.468 174.9 108.876 175.375 108.109 175.725C107.359 176.058 106.493 176.225 105.509 176.225ZM115.996 164.825C116.446 164.042 117.113 163.392 117.996 162.875C118.896 162.342 119.938 162.075 121.121 162.075C122.338 162.075 123.438 162.367 124.421 162.95C125.421 163.533 126.204 164.358 126.771 165.425C127.338 166.475 127.621 167.7 127.621 169.1C127.621 170.483 127.338 171.717 126.771 172.8C126.204 173.883 125.421 174.725 124.421 175.325C123.438 175.925 122.338 176.225 121.121 176.225C119.954 176.225 118.921 175.967 118.021 175.45C117.138 174.917 116.463 174.258 115.996 173.475V182.5H113.721V162.3H115.996V164.825ZM125.296 169.1C125.296 168.067 125.088 167.167 124.671 166.4C124.254 165.633 123.688 165.05 122.971 164.65C122.271 164.25 121.496 164.05 120.646 164.05C119.813 164.05 119.038 164.258 118.321 164.675C117.621 165.075 117.054 165.667 116.621 166.45C116.204 167.217 115.996 168.108 115.996 169.125C115.996 170.158 116.204 171.067 116.621 171.85C117.054 172.617 117.621 173.208 118.321 173.625C119.038 174.025 119.813 174.225 120.646 174.225C121.496 174.225 122.271 174.025 122.971 173.625C123.688 173.208 124.254 172.617 124.671 171.85C125.088 171.067 125.296 170.15 125.296 169.1ZM143.115 168.625C143.115 169.058 143.09 169.517 143.04 170H132.09C132.174 171.35 132.632 172.408 133.465 173.175C134.315 173.925 135.34 174.3 136.54 174.3C137.524 174.3 138.34 174.075 138.99 173.625C139.657 173.158 140.124 172.542 140.39 171.775H142.84C142.474 173.092 141.74 174.167 140.64 175C139.54 175.817 138.174 176.225 136.54 176.225C135.24 176.225 134.074 175.933 133.04 175.35C132.024 174.767 131.224 173.942 130.64 172.875C130.057 171.792 129.765 170.542 129.765 169.125C129.765 167.708 130.049 166.467 130.615 165.4C131.182 164.333 131.974 163.517 132.99 162.95C134.024 162.367 135.207 162.075 136.54 162.075C137.84 162.075 138.99 162.358 139.99 162.925C140.99 163.492 141.757 164.275 142.29 165.275C142.84 166.258 143.115 167.375 143.115 168.625ZM140.765 168.15C140.765 167.283 140.574 166.542 140.19 165.925C139.807 165.292 139.282 164.817 138.615 164.5C137.965 164.167 137.24 164 136.44 164C135.29 164 134.307 164.367 133.49 165.1C132.69 165.833 132.232 166.85 132.115 168.15H140.765ZM152.793 162.05C154.46 162.05 155.81 162.558 156.843 163.575C157.877 164.575 158.393 166.025 158.393 167.925V176H156.143V168.25C156.143 166.883 155.802 165.842 155.118 165.125C154.435 164.392 153.502 164.025 152.318 164.025C151.118 164.025 150.16 164.4 149.443 165.15C148.743 165.9 148.393 166.992 148.393 168.425V176H146.118V162.3H148.393V164.25C148.843 163.55 149.452 163.008 150.218 162.625C151.002 162.242 151.86 162.05 152.793 162.05ZM164.885 164.175V172.25C164.885 172.917 165.026 173.392 165.31 173.675C165.593 173.942 166.085 174.075 166.785 174.075H168.46V176H166.41C165.143 176 164.193 175.708 163.56 175.125C162.926 174.542 162.61 173.583 162.61 172.25V164.175H160.835V162.3H162.61V158.85H164.885V162.3H168.46V164.175H164.885ZM179.056 160.075C178.623 160.075 178.256 159.925 177.956 159.625C177.656 159.325 177.506 158.958 177.506 158.525C177.506 158.092 177.656 157.725 177.956 157.425C178.256 157.125 178.623 156.975 179.056 156.975C179.473 156.975 179.823 157.125 180.106 157.425C180.406 157.725 180.556 158.092 180.556 158.525C180.556 158.958 180.406 159.325 180.106 159.625C179.823 159.925 179.473 160.075 179.056 160.075ZM180.156 162.3V176H177.881V162.3H180.156ZM190.708 162.05C192.375 162.05 193.725 162.558 194.758 163.575C195.792 164.575 196.308 166.025 196.308 167.925V176H194.058V168.25C194.058 166.883 193.717 165.842 193.033 165.125C192.35 164.392 191.417 164.025 190.233 164.025C189.033 164.025 188.075 164.4 187.358 165.15C186.658 165.9 186.308 166.992 186.308 168.425V176H184.033V162.3H186.308V164.25C186.758 163.55 187.367 163.008 188.133 162.625C188.917 162.242 189.775 162.05 190.708 162.05ZM208.615 174.025H217.115V176H205.915V174.2L214.365 160.55H206.015V158.575H217.065V160.375L208.615 174.025ZM232.715 168.625C232.715 169.058 232.69 169.517 232.64 170H221.69C221.773 171.35 222.232 172.408 223.065 173.175C223.915 173.925 224.94 174.3 226.14 174.3C227.123 174.3 227.94 174.075 228.59 173.625C229.257 173.158 229.723 172.542 229.99 171.775H232.44C232.073 173.092 231.34 174.167 230.24 175C229.14 175.817 227.773 176.225 226.14 176.225C224.84 176.225 223.673 175.933 222.64 175.35C221.623 174.767 220.823 173.942 220.24 172.875C219.657 171.792 219.365 170.542 219.365 169.125C219.365 167.708 219.648 166.467 220.215 165.4C220.782 164.333 221.573 163.517 222.59 162.95C223.623 162.367 224.807 162.075 226.14 162.075C227.44 162.075 228.59 162.358 229.59 162.925C230.59 163.492 231.357 164.275 231.89 165.275C232.44 166.258 232.715 167.375 232.715 168.625ZM230.365 168.15C230.365 167.283 230.173 166.542 229.79 165.925C229.407 165.292 228.882 164.817 228.215 164.5C227.565 164.167 226.84 164 226.04 164C224.89 164 223.907 164.367 223.09 165.1C222.29 165.833 221.832 166.85 221.715 168.15H230.365ZM237.993 164.525C238.393 163.742 238.96 163.133 239.693 162.7C240.443 162.267 241.351 162.05 242.418 162.05V164.4H241.818C239.268 164.4 237.993 165.783 237.993 168.55V176H235.718V162.3H237.993V164.525ZM251.019 176.225C249.736 176.225 248.569 175.933 247.519 175.35C246.486 174.767 245.669 173.942 245.069 172.875C244.486 171.792 244.194 170.542 244.194 169.125C244.194 167.725 244.494 166.492 245.094 165.425C245.711 164.342 246.544 163.517 247.594 162.95C248.644 162.367 249.819 162.075 251.119 162.075C252.419 162.075 253.594 162.367 254.644 162.95C255.694 163.517 256.519 164.333 257.119 165.4C257.736 166.467 258.044 167.708 258.044 169.125C258.044 170.542 257.727 171.792 257.094 172.875C256.477 173.942 255.636 174.767 254.569 175.35C253.502 175.933 252.319 176.225 251.019 176.225ZM251.019 174.225C251.836 174.225 252.602 174.033 253.319 173.65C254.036 173.267 254.611 172.692 255.044 171.925C255.494 171.158 255.719 170.225 255.719 169.125C255.719 168.025 255.502 167.092 255.069 166.325C254.636 165.558 254.069 164.992 253.369 164.625C252.669 164.242 251.911 164.05 251.094 164.05C250.261 164.05 249.494 164.242 248.794 164.625C248.111 164.992 247.561 165.558 247.144 166.325C246.727 167.092 246.519 168.025 246.519 169.125C246.519 170.242 246.719 171.183 247.119 171.95C247.536 172.717 248.086 173.292 248.769 173.675C249.452 174.042 250.202 174.225 251.019 174.225ZM289.6 158.575L284.55 176H282L277.95 161.975L273.75 176L271.225 176.025L266.35 158.575H268.775L272.575 173.35L276.775 158.575H279.325L283.325 173.3L287.15 158.575H289.6ZM291.24 169.1C291.24 167.7 291.523 166.475 292.09 165.425C292.657 164.358 293.432 163.533 294.415 162.95C295.415 162.367 296.523 162.075 297.74 162.075C298.94 162.075 299.982 162.333 300.865 162.85C301.748 163.367 302.407 164.017 302.84 164.8V162.3H305.14V176H302.84V173.45C302.39 174.25 301.715 174.917 300.815 175.45C299.932 175.967 298.898 176.225 297.715 176.225C296.498 176.225 295.398 175.925 294.415 175.325C293.432 174.725 292.657 173.883 292.09 172.8C291.523 171.717 291.24 170.483 291.24 169.1ZM302.84 169.125C302.84 168.092 302.632 167.192 302.215 166.425C301.798 165.658 301.232 165.075 300.515 164.675C299.815 164.258 299.04 164.05 298.19 164.05C297.34 164.05 296.565 164.25 295.865 164.65C295.165 165.05 294.607 165.633 294.19 166.4C293.773 167.167 293.565 168.067 293.565 169.1C293.565 170.15 293.773 171.067 294.19 171.85C294.607 172.617 295.165 173.208 295.865 173.625C296.565 174.025 297.34 174.225 298.19 174.225C299.04 174.225 299.815 174.025 300.515 173.625C301.232 173.208 301.798 172.617 302.215 171.85C302.632 171.067 302.84 170.158 302.84 169.125ZM313.835 176.225C312.785 176.225 311.843 176.05 311.01 175.7C310.176 175.333 309.518 174.833 309.035 174.2C308.551 173.55 308.285 172.808 308.235 171.975H310.585C310.651 172.658 310.968 173.217 311.535 173.65C312.118 174.083 312.876 174.3 313.81 174.3C314.676 174.3 315.36 174.108 315.86 173.725C316.36 173.342 316.61 172.858 316.61 172.275C316.61 171.675 316.343 171.233 315.81 170.95C315.276 170.65 314.451 170.358 313.335 170.075C312.318 169.808 311.485 169.542 310.835 169.275C310.201 168.992 309.651 168.583 309.185 168.05C308.735 167.5 308.51 166.783 308.51 165.9C308.51 165.2 308.718 164.558 309.135 163.975C309.551 163.392 310.143 162.933 310.91 162.6C311.676 162.25 312.551 162.075 313.535 162.075C315.051 162.075 316.276 162.458 317.21 163.225C318.143 163.992 318.643 165.042 318.71 166.375H316.435C316.385 165.658 316.093 165.083 315.56 164.65C315.043 164.217 314.343 164 313.46 164C312.643 164 311.993 164.175 311.51 164.525C311.026 164.875 310.785 165.333 310.785 165.9C310.785 166.35 310.926 166.725 311.21 167.025C311.51 167.308 311.876 167.542 312.31 167.725C312.76 167.892 313.376 168.083 314.16 168.3C315.143 168.567 315.943 168.833 316.56 169.1C317.176 169.35 317.701 169.733 318.135 170.25C318.585 170.767 318.818 171.442 318.835 172.275C318.835 173.025 318.626 173.7 318.21 174.3C317.793 174.9 317.201 175.375 316.435 175.725C315.685 176.058 314.818 176.225 313.835 176.225ZM324.821 164.175V172.25C324.821 172.917 324.963 173.392 325.246 173.675C325.529 173.942 326.021 174.075 326.721 174.075H328.396V176H326.346C325.079 176 324.129 175.708 323.496 175.125C322.863 174.542 322.546 173.583 322.546 172.25V164.175H320.771V162.3H322.546V158.85H324.821V162.3H328.396V164.175H324.821ZM343.653 168.625C343.653 169.058 343.628 169.517 343.578 170H332.628C332.711 171.35 333.169 172.408 334.003 173.175C334.853 173.925 335.878 174.3 337.078 174.3C338.061 174.3 338.878 174.075 339.528 173.625C340.194 173.158 340.661 172.542 340.928 171.775H343.378C343.011 173.092 342.278 174.167 341.178 175C340.078 175.817 338.711 176.225 337.078 176.225C335.778 176.225 334.611 175.933 333.578 175.35C332.561 174.767 331.761 173.942 331.178 172.875C330.594 171.792 330.303 170.542 330.303 169.125C330.303 167.708 330.586 166.467 331.153 165.4C331.719 164.333 332.511 163.517 333.528 162.95C334.561 162.367 335.744 162.075 337.078 162.075C338.378 162.075 339.528 162.358 340.528 162.925C341.528 163.492 342.294 164.275 342.828 165.275C343.378 166.258 343.653 167.375 343.653 168.625ZM341.303 168.15C341.303 167.283 341.111 166.542 340.728 165.925C340.344 165.292 339.819 164.817 339.153 164.5C338.503 164.167 337.778 164 336.978 164C335.828 164 334.844 164.367 334.028 165.1C333.228 165.833 332.769 166.85 332.653 168.15H341.303ZM65.6 196.7V214H63.325V201.1L57.575 214H55.975L50.2 201.075V214H47.925V196.7H50.375L56.775 211L63.175 196.7H65.6ZM68.6082 207.1C68.6082 205.7 68.8915 204.475 69.4582 203.425C70.0249 202.358 70.7999 201.533 71.7832 200.95C72.7832 200.367 73.8915 200.075 75.1082 200.075C76.3082 200.075 77.3499 200.333 78.2332 200.85C79.1165 201.367 79.7749 202.017 80.2082 202.8V200.3H82.5082V214H80.2082V211.45C79.7582 212.25 79.0832 212.917 78.1832 213.45C77.2999 213.967 76.2665 214.225 75.0832 214.225C73.8665 214.225 72.7665 213.925 71.7832 213.325C70.7999 212.725 70.0249 211.883 69.4582 210.8C68.8915 209.717 68.6082 208.483 68.6082 207.1ZM80.2082 207.125C80.2082 206.092 79.9999 205.192 79.5832 204.425C79.1665 203.658 78.5999 203.075 77.8832 202.675C77.1832 202.258 76.4082 202.05 75.5582 202.05C74.7082 202.05 73.9332 202.25 73.2332 202.65C72.5332 203.05 71.9749 203.633 71.5582 204.4C71.1415 205.167 70.9332 206.067 70.9332 207.1C70.9332 208.15 71.1415 209.067 71.5582 209.85C71.9749 210.617 72.5332 211.208 73.2332 211.625C73.9332 212.025 74.7082 212.225 75.5582 212.225C76.4082 212.225 77.1832 212.025 77.8832 211.625C78.5999 211.208 79.1665 210.617 79.5832 209.85C79.9999 209.067 80.2082 208.158 80.2082 207.125ZM88.6277 195.5V214H86.3527V195.5H88.6277ZM91.6551 207.1C91.6551 205.7 91.9384 204.475 92.5051 203.425C93.0717 202.358 93.8467 201.533 94.8301 200.95C95.8301 200.367 96.9384 200.075 98.1551 200.075C99.3551 200.075 100.397 200.333 101.28 200.85C102.163 201.367 102.822 202.017 103.255 202.8V200.3H105.555V214H103.255V211.45C102.805 212.25 102.13 212.917 101.23 213.45C100.347 213.967 99.3134 214.225 98.1301 214.225C96.9134 214.225 95.8134 213.925 94.8301 213.325C93.8467 212.725 93.0717 211.883 92.5051 210.8C91.9384 209.717 91.6551 208.483 91.6551 207.1ZM103.255 207.125C103.255 206.092 103.047 205.192 102.63 204.425C102.213 203.658 101.647 203.075 100.93 202.675C100.23 202.258 99.4551 202.05 98.6051 202.05C97.7551 202.05 96.9801 202.25 96.2801 202.65C95.5801 203.05 95.0217 203.633 94.6051 204.4C94.1884 205.167 93.9801 206.067 93.9801 207.1C93.9801 208.15 94.1884 209.067 94.6051 209.85C95.0217 210.617 95.5801 211.208 96.2801 211.625C96.9801 212.025 97.7551 212.225 98.6051 212.225C99.4551 212.225 100.23 212.025 100.93 211.625C101.647 211.208 102.213 210.617 102.63 209.85C103.047 209.067 103.255 208.158 103.255 207.125ZM121.2 200.3L112.95 220.45H110.6L113.3 213.85L107.775 200.3H110.3L114.6 211.4L118.85 200.3H121.2ZM128.337 214.225C127.287 214.225 126.345 214.05 125.512 213.7C124.678 213.333 124.02 212.833 123.537 212.2C123.053 211.55 122.787 210.808 122.737 209.975H125.087C125.153 210.658 125.47 211.217 126.037 211.65C126.62 212.083 127.378 212.3 128.312 212.3C129.178 212.3 129.862 212.108 130.362 211.725C130.862 211.342 131.112 210.858 131.112 210.275C131.112 209.675 130.845 209.233 130.312 208.95C129.778 208.65 128.953 208.358 127.837 208.075C126.82 207.808 125.987 207.542 125.337 207.275C124.703 206.992 124.153 206.583 123.687 206.05C123.237 205.5 123.012 204.783 123.012 203.9C123.012 203.2 123.22 202.558 123.637 201.975C124.053 201.392 124.645 200.933 125.412 200.6C126.178 200.25 127.053 200.075 128.037 200.075C129.553 200.075 130.778 200.458 131.712 201.225C132.645 201.992 133.145 203.042 133.212 204.375H130.937C130.887 203.658 130.595 203.083 130.062 202.65C129.545 202.217 128.845 202 127.962 202C127.145 202 126.495 202.175 126.012 202.525C125.528 202.875 125.287 203.333 125.287 203.9C125.287 204.35 125.428 204.725 125.712 205.025C126.012 205.308 126.378 205.542 126.812 205.725C127.262 205.892 127.878 206.083 128.662 206.3C129.645 206.567 130.445 206.833 131.062 207.1C131.678 207.35 132.203 207.733 132.637 208.25C133.087 208.767 133.32 209.442 133.337 210.275C133.337 211.025 133.128 211.7 132.712 212.3C132.295 212.9 131.703 213.375 130.937 213.725C130.187 214.058 129.32 214.225 128.337 214.225ZM137.723 198.075C137.29 198.075 136.923 197.925 136.623 197.625C136.323 197.325 136.173 196.958 136.173 196.525C136.173 196.092 136.323 195.725 136.623 195.425C136.923 195.125 137.29 194.975 137.723 194.975C138.14 194.975 138.49 195.125 138.773 195.425C139.073 195.725 139.223 196.092 139.223 196.525C139.223 196.958 139.073 197.325 138.773 197.625C138.49 197.925 138.14 198.075 137.723 198.075ZM138.823 200.3V214H136.548V200.3H138.823ZM141.85 207.1C141.85 205.7 142.134 204.475 142.7 203.425C143.267 202.358 144.042 201.533 145.025 200.95C146.025 200.367 147.134 200.075 148.35 200.075C149.55 200.075 150.592 200.333 151.475 200.85C152.359 201.367 153.017 202.017 153.45 202.8V200.3H155.75V214H153.45V211.45C153 212.25 152.325 212.917 151.425 213.45C150.542 213.967 149.509 214.225 148.325 214.225C147.109 214.225 146.009 213.925 145.025 213.325C144.042 212.725 143.267 211.883 142.7 210.8C142.134 209.717 141.85 208.483 141.85 207.1ZM153.45 207.125C153.45 206.092 153.242 205.192 152.825 204.425C152.409 203.658 151.842 203.075 151.125 202.675C150.425 202.258 149.65 202.05 148.8 202.05C147.95 202.05 147.175 202.25 146.475 202.65C145.775 203.05 145.217 203.633 144.8 204.4C144.384 205.167 144.175 206.067 144.175 207.1C144.175 208.15 144.384 209.067 144.8 209.85C145.217 210.617 145.775 211.208 146.475 211.625C147.175 212.025 147.95 212.225 148.8 212.225C149.65 212.225 150.425 212.025 151.125 211.625C151.842 211.208 152.409 210.617 152.825 209.85C153.242 209.067 153.45 208.158 153.45 207.125Z" fill="black"/>
<path d="M292.769 244.789C292.68 244.789 292.603 244.789 292.526 244.789C290.926 234.154 281.697 226 270.548 226C266.926 226 263.508 226.865 260.487 228.392C257.466 226.865 254.049 226 250.426 226C239.277 226 230.048 234.154 228.448 244.789C228.371 244.789 228.282 244.789 228.205 244.789C219.258 244.789 212 252.002 212 260.895C212 269.787 219.258 277 228.205 277H292.795C301.742 277 309 269.787 309 260.895C309 252.002 301.742 244.789 292.795 244.789H292.769Z" fill="#F9F7E1"/>
<path d="M599.5 497C736.743 497 848 385.743 848 248.5C848 111.257 736.743 0 599.5 0C462.257 0 351 111.257 351 248.5C351 385.743 462.257 497 599.5 497Z" fill="url(#paint1_radial_76_47505)"/>
<path d="M618.668 165.399L617.548 167.332H617.421L616.302 165.399H618.655H618.668ZM636.717 175.584L619.062 164.713V164.738L618.515 144.674C618.388 144.051 617.726 144 617.548 144H617.51C616.645 144 616.543 144.674 616.543 144.674L615.971 164.776L615.946 164.738L598.266 175.571C597.795 175.991 598.075 176.589 598.164 176.754L598.189 176.792C598.622 177.542 599.258 177.288 599.258 177.288L616.2 168.146L615.361 212H619.685L618.922 168.197L635.737 177.313C636.335 177.517 636.717 176.97 636.806 176.818L636.831 176.779C637.263 176.029 636.729 175.61 636.729 175.61L636.717 175.584Z" fill="#2D6A4F"/>
<path d="M605.425 177.295L604.539 178.853H604.438L603.552 177.295H605.425ZM619.776 185.549L605.742 176.754L605.324 160.541C605.223 160.039 604.691 160 604.552 160H604.514C603.818 160 603.742 160.541 603.742 160.541L603.286 176.805V176.767L589.214 185.536C588.835 185.871 589.062 186.36 589.126 186.489V186.515C589.493 187.12 589.999 186.914 589.999 186.914L603.464 179.522L602.806 215H606.248L605.64 179.561L619.004 186.94C619.485 187.107 619.776 186.657 619.852 186.541V186.515C620.219 185.91 619.789 185.562 619.789 185.562L619.776 185.549Z" fill="#2D6A4F"/>
<path d="M744.655 284.321H699.881C686.849 284.321 676.299 273.758 676.299 260.726C676.299 247.694 686.862 237.143 699.881 237.143C701.198 237.143 702.477 237.258 703.731 237.463C708.04 232.795 714.217 229.879 721.06 229.879C732.889 229.879 742.685 238.588 744.386 249.945C744.476 249.945 744.553 249.945 744.642 249.945C754.144 249.945 761.843 257.644 761.843 267.146C761.843 276.648 754.144 284.347 744.642 284.347" fill="#F9F7E1"/>
<path d="M582.633 257.286H534.367C534.457 256.212 534.508 255.137 534.508 254.038C534.508 233.256 517.665 216.4 496.871 216.4C494.786 216.4 492.74 216.579 490.732 216.899C488.353 214.328 485.629 212.09 482.624 210.261C487.471 196.628 500.503 186.858 515.798 186.858C517.755 186.858 519.673 187.024 521.54 187.331C527.973 180.361 537.181 176 547.412 176C565.073 176 579.704 189.006 582.236 205.951C582.364 205.951 582.492 205.951 582.633 205.951C596.803 205.951 608.3 217.449 608.3 231.619C608.3 245.789 596.815 257.286 582.633 257.286Z" fill="#F9F7E1"/>
<path d="M496.858 291.675H425.432C410.277 291.675 398 279.398 398 264.243C398 249.088 410.29 236.798 425.432 236.798C425.573 236.798 425.713 236.798 425.854 236.811C428.565 218.689 444.193 204.788 463.07 204.788C470.231 204.788 476.92 206.783 482.624 210.262C485.629 212.09 488.353 214.328 490.732 216.899C492.727 216.566 494.773 216.4 496.871 216.4C517.665 216.4 534.508 233.256 534.508 254.038C534.508 255.138 534.457 256.212 534.367 257.286C532.718 276.546 516.565 291.675 496.871 291.675" fill="#F9F7E1"/>
<path d="M727.658 334.85C727.658 406.046 669.942 463.762 598.747 463.762C527.551 463.762 469.835 406.046 469.835 334.85C469.835 263.655 527.551 205.939 598.747 205.939C669.942 205.939 727.658 263.655 727.658 334.85Z" fill="#74C69D"/>
<path d="M680.289 237.028C680.225 237.962 679.317 237.258 678.818 237.233C677.667 237.169 676.183 237.373 675.25 237.527C674.355 237.668 674.06 239.343 673.459 239.893C672.475 240.775 671.209 240.161 670.62 240.711C670.313 240.993 670.646 241.786 670.275 242.182C669.52 242.975 667.947 243.359 666.899 242.988C666.157 242.719 665.211 242.041 665.083 242.642C665.505 243.064 666.298 244.088 665.799 244.42C665.3 244.753 664.303 244.42 663.638 244.036C662.678 243.486 661.847 243.832 660.824 243.806C660.491 243.96 661.131 244.689 661.259 245.354C661.336 245.725 662.192 245.52 662.614 245.597C663.65 245.801 664.942 246.121 665.236 247.055C665.645 248.359 667.64 249.638 667.091 250.661C666.31 252.081 667.18 254.101 666.003 254.076C664.226 254.037 660.824 253.551 658.97 253.129C657 252.682 653.036 252.694 653.47 254.191C653.662 254.83 654.839 254.907 654.66 255.482C654.481 256.071 654.225 256.378 654.148 257.017C654.071 257.669 654.404 258.552 654.378 259.217C654.366 259.895 652.972 262.005 653.176 262.721C653.394 263.463 655.056 264.281 654.123 266.379C653.637 267.491 657.32 265.675 658.074 266.826C658.624 267.657 659.213 268.54 660.133 268.847C661.374 269.256 661.374 267.657 662.589 267.542C663.343 267.478 664.098 268.156 664.878 268.233C665.709 268.322 666.298 267.721 666.924 267.299C667.551 266.877 669.201 267.235 669.111 266.417C668.996 265.355 670.876 264.754 670.121 262.58C669.751 261.493 670.787 260.713 671.4 259.971C672.666 258.475 674.777 259.473 675.045 257.439C675.084 257.119 674.316 256.173 674.956 255.418C675.403 254.881 676.708 255.188 677.513 255.418C678.306 255.649 679.24 255.981 680.007 256.007C680.992 256.032 681.887 255.329 682.629 254.869C683.358 254.408 683.831 254.204 684.726 254.856C685.238 255.239 686.031 255.585 686.235 256.429C686.734 258.462 690.609 260.406 693.077 262.376C693.653 262.836 694.062 263.36 694.497 263.949C694.855 264.435 695.763 265.522 695.904 266.084C696.185 267.184 695.712 269.282 696.262 268.553C697.004 267.555 697.298 267.67 697.681 266.161C697.848 265.534 696.428 264.345 696.812 263.91C697.195 263.475 698.065 264.435 698.628 264.908C698.948 265.164 699.37 264.575 699.19 264.192C698.462 262.58 696.582 261.941 695.239 260.828C693.384 259.281 691.453 257.708 689.931 255.751C689.433 255.112 688.972 254.395 688.895 253.692C688.819 252.989 689.292 252.349 689.983 252.541C690.673 252.733 691.159 253.935 690.571 254.127C691.377 253.654 692.886 254.6 693.129 255.738C695.635 257.657 698.091 259.6 700.469 261.557C700.712 262.529 700.712 263.539 701.173 264.486C702.081 266.302 702.81 268.233 704.05 269.806C704.344 270.177 704.779 270.19 705.137 270.394C704.894 270.919 705.214 271.775 705.687 272.287C706.173 272.799 706.992 273.707 707.299 273.259C707.644 272.76 706.8 271.763 706.544 271.008C706.902 270.752 707.26 270.509 707.618 270.254C707.759 270.151 707.913 270.036 707.951 269.831C708.079 269.205 707.286 268.668 706.749 268.233C705.879 267.517 704.6 264.869 705.547 265.112C706.403 265.317 707.184 266.673 707.606 265.969C707.337 265.918 707.184 265.445 707.273 265.215C699.51 253.155 689.804 242.489 678.588 233.626C678.639 233.869 678.69 234.099 679.035 234.419C679.918 234.995 679.764 235.852 680.327 237.054L680.289 237.028Z" fill="#2D6A4F"/>
<path d="M657.102 230.199C657.243 230.391 657.306 230.634 657.153 230.774C657.063 230.851 656.91 230.89 656.859 230.992C656.782 231.158 657 231.376 657.204 231.542C657.498 231.772 657.792 232.015 658.151 232.168C658.509 232.322 658.931 232.348 659.148 232.168C659.314 232.335 659.391 232.552 659.365 232.718C659.365 232.846 659.289 232.961 659.314 233.089C659.34 233.332 659.634 233.575 659.928 233.69C660.222 233.805 660.529 233.844 660.836 233.882C660.964 233.895 661.079 233.921 661.207 233.972C661.565 234.138 661.693 234.522 661.642 234.816C661.578 235.161 661.322 235.442 660.951 235.57C660.593 235.698 660.094 235.749 660.069 236.095C660.031 236.555 660.926 237.003 660.887 237.463C660.862 237.821 660.325 237.86 660.005 238.064C659.66 238.269 659.66 238.857 660.107 239.1C660.273 239.19 660.465 239.215 660.606 239.33C660.772 239.458 660.798 239.676 660.734 239.816C660.657 239.957 660.529 240.059 660.389 240.149C660.056 240.366 659.724 240.584 659.391 240.801C659.263 240.878 659.135 240.967 659.084 241.108C659.033 241.249 659.084 241.44 659.238 241.543C659.391 241.632 659.557 241.619 659.711 241.594C660.401 241.504 661.079 241.415 661.757 241.325C662.013 241.287 662.269 241.261 662.512 241.185C662.857 241.07 663.151 240.865 663.522 240.801C663.931 240.724 664.391 240.814 664.839 240.852C665.491 240.903 666.118 240.827 666.757 240.839C667.397 240.839 668.062 240.929 668.689 240.89C669.315 240.852 669.916 240.673 670.198 240.238C670.249 240.162 670.287 240.085 670.274 239.995C670.223 239.701 669.724 239.522 669.558 239.228C669.418 238.985 669.571 238.755 669.763 238.627C669.955 238.499 670.198 238.409 670.287 238.205C670.428 237.898 670.134 237.45 669.75 237.207C669.366 236.964 668.906 236.888 668.497 236.875C668.356 236.875 668.203 236.875 668.049 236.798C667.908 236.734 667.806 236.619 667.729 236.504C667.512 236.184 667.422 235.839 667.282 235.519C667.141 235.187 666.898 234.841 666.527 234.662C666.233 234.522 665.888 234.496 665.632 234.304C665.312 234.048 665.312 233.69 665.197 233.371C665.005 232.859 664.443 232.475 663.88 232.207C663.611 232.092 663.241 232.041 663.164 231.798C663.1 231.567 663.522 231.299 663.663 231.171C663.906 230.954 664.161 230.749 664.238 230.442C664.315 230.148 664.161 229.739 663.778 229.508C663.496 229.342 663.151 229.304 662.831 229.278C662.563 229.253 662.294 229.24 662.026 229.227C661.795 229.214 661.501 229.163 661.399 228.984C661.309 228.818 661.45 228.703 661.578 228.6C661.795 228.421 661.949 228.204 662.026 227.961C662.064 227.846 662.09 227.705 661.987 227.577C661.808 227.309 661.322 227.258 661.028 227.334C660.504 227.488 660.146 227.884 659.506 227.833C659.186 227.807 658.841 227.667 658.534 227.692C657.741 227.769 658.087 228.869 657.358 229.074C657.179 229.125 656.961 229.112 656.757 229.138C656.565 229.176 656.386 229.278 656.437 229.457C656.462 229.521 656.514 229.598 656.565 229.662C656.731 229.841 656.936 230.02 657.076 230.212L657.102 230.199Z" fill="#2D6A4F"/>
<path d="M651.732 237.847C651.847 237.949 651.936 238.077 652.064 238.179C652.448 238.486 652.998 238.435 653.369 238.282C653.752 238.128 654.098 237.898 654.558 237.911C654.839 237.911 655.146 238.026 655.415 237.988C655.696 237.949 655.875 237.77 656.105 237.668C656.438 237.527 656.86 237.553 657.256 237.566C657.653 237.566 658.075 237.527 658.305 237.297C658.51 237.08 658.51 236.734 658.433 236.415C658.331 235.993 658.152 235.558 657.883 235.161C657.73 234.931 657.551 234.675 657.64 234.471C657.717 234.317 657.921 234.266 658.1 234.202C658.343 234.113 658.548 233.934 658.497 233.691C658.459 233.499 658.28 233.332 658.1 233.179C657.921 233.013 657.73 232.859 657.538 232.706C657.346 232.552 657.103 232.386 656.86 232.373C656.591 232.348 656.387 232.501 656.118 232.476C655.978 232.463 655.85 232.399 655.709 232.36C654.66 232.028 653.74 232.629 653.676 233.396C653.676 233.473 653.676 233.563 653.637 233.627C653.56 233.754 653.356 233.793 653.151 233.767C652.947 233.742 652.755 233.678 652.55 233.627C652.243 233.563 651.936 233.55 651.668 233.601C651.565 233.614 651.476 233.652 651.438 233.716C651.386 233.818 651.489 233.959 651.591 234.061C651.706 234.164 651.834 234.266 651.885 234.394C652 234.688 651.565 234.931 651.783 235.212C651.898 235.353 652.115 235.404 652.307 235.481C652.499 235.558 652.704 235.724 652.627 235.852C652.601 235.903 652.525 235.929 652.461 235.954C652.333 236.005 652.218 236.095 652.179 236.21C652.141 236.338 652.192 236.504 652.141 236.632C652.064 236.811 651.796 236.849 651.565 236.901C651.335 236.952 651.092 237.054 651.118 237.271C651.156 237.502 651.489 237.655 651.693 237.847H651.732Z" fill="#2D6A4F"/>
<path d="M714.359 284.321C712.62 283.605 710.791 282.876 709.013 281.546C708.105 280.856 707.197 280.011 706.187 279.653C705.189 279.295 704.026 279.615 703.808 280.779C703.629 281.687 704.077 282.761 704.243 283.771C704.422 284.782 704.09 286.035 703.284 285.856C702.951 285.779 702.657 285.485 702.376 285.191C700.752 283.528 699.102 281.879 697.401 280.216C696.314 279.155 695.15 278.055 693.82 277.658C692.145 277.147 689.843 277.428 689.088 275.535C688.666 274.461 689.165 273.464 689.344 272.466C689.51 271.456 689.191 269.768 688.244 269.806C687.937 268.796 686.774 268.233 685.866 268.297C684.97 268.361 684.216 268.834 683.346 269.064C681.159 269.64 678.525 268.514 676.082 268.604C673.844 268.681 671.9 269.78 669.867 270.65C667.82 271.507 665.403 272.146 663.025 271.238C662.129 270.893 661.209 270.33 660.313 270.42C658.843 270.561 658.331 272.261 657.334 273.297C656.541 274.129 655.377 274.551 654.584 275.395C653.037 277.057 653.305 279.845 652.474 282.083C651.796 283.887 650.351 285.344 648.522 286.035C647.947 286.252 647.307 286.393 646.834 286.79C646.348 287.186 646.079 287.774 645.798 288.337C644.442 291.125 642.742 293.772 640.734 296.215C639.826 297.315 638.828 298.427 638.483 299.86C638.227 300.947 638.381 302.111 638.585 303.249C639.084 306.062 639.851 308.914 639.493 311.728C639.327 313.058 638.918 314.337 638.7 315.667C638.432 317.317 638.483 319.017 638.521 320.693C638.547 321.652 638.572 322.624 638.905 323.519C639.647 325.463 641.744 326.742 642 328.788C644.404 330.195 645.197 333.52 646.744 335.848C647.537 337.063 648.612 338.034 649.648 338.994C651.591 340.784 653.51 342.549 655.402 344.301C655.748 344.621 656.119 344.953 656.579 344.992C656.963 345.017 657.334 344.851 657.679 344.672C660.186 343.316 662.5 340.912 665.16 341.27C666.273 341.423 667.271 342.05 668.37 342.191C670.353 342.434 672.181 341.053 673.895 339.927C675.609 338.802 677.745 337.894 679.356 338.994C681.146 340.221 681.658 343.534 683.704 343.725C685.175 343.866 686.505 342.165 687.937 342.37C688.807 342.498 689.485 343.342 689.753 344.314C690.022 345.286 689.958 346.36 689.779 347.396C689.267 350.491 687.899 353.726 688.679 356.591C689.242 358.701 690.853 360.044 691.8 361.834C692.401 362.96 692.733 364.239 693.066 365.518C693.462 367.065 693.859 368.587 694.242 370.096C695.035 373.217 695.738 376.67 694.319 379.867C693.436 381.849 691.761 383.639 691.557 385.698C691.352 387.898 689.817 390.072 690.035 392.106C690.29 394.51 692.043 396.07 692.132 398.436C692.17 399.28 691.991 400.188 692.106 400.981C692.286 402.196 693.13 402.989 693.36 404.14C693.679 405.687 692.874 407.567 692.81 409.217C692.695 412.35 695.253 414.115 695.086 417.07C695.035 418.041 694.69 419.065 694.536 420.037C694.472 420.42 694.472 420.804 694.498 421.149C715.101 398.295 727.634 368.05 727.634 334.863C727.634 317.061 724.027 300.103 717.505 284.679C717.352 284.756 717.198 284.82 717.032 284.871C716.213 285.101 715.267 284.718 714.333 284.334L714.359 284.321Z" fill="#2D6A4F"/>
<path d="M583.591 207.934C584.218 208.1 585.011 208.151 585.791 208.164C587.428 208.189 589.078 208.087 590.728 208.1C592.365 208.113 594.104 208.266 595.293 208.765C596.726 209.366 597.033 210.389 596.47 211.348C595.907 212.295 594.59 213.164 593.183 213.983C592.096 214.622 590.868 215.351 590.83 216.297C590.804 216.95 591.367 217.576 591.917 218.177C592.889 219.239 593.874 220.352 594.871 221.528C595.204 221.912 595.575 222.321 596.189 222.513C597.237 222.833 598.567 222.372 599.578 222.769C599.987 222.935 600.307 223.229 600.767 223.293C601.189 223.344 601.585 223.191 601.918 223.024C605.243 221.221 605.499 217.768 609.22 216.886C611.458 216.336 614.336 216.835 616.459 216.208C617.942 215.773 618.761 214.878 620.078 214.379C623.966 212.883 631.077 214.865 634.261 213.126C634.517 212.985 634.734 212.819 634.747 212.602C634.747 212.422 634.593 212.218 634.606 212.039C634.645 211.655 635.425 211.553 636.103 211.399C624.273 207.818 611.74 205.9 598.746 205.9C593.503 205.9 588.336 206.22 583.259 206.834C583.016 206.936 582.799 207.038 582.722 207.166C582.543 207.448 582.965 207.742 583.591 207.908V207.934Z" fill="#2D6A4F"/>
<path d="M640.336 219.674C641.039 219.725 641.781 219.942 642.407 219.853C643.213 219.738 643.546 219.162 644.262 218.958C644.837 218.791 645.656 218.855 646.052 218.561C646.372 218.318 646.27 217.87 645.912 217.538C644.083 215.799 640.067 217.193 637.663 216.873C636.589 216.719 635.501 216.476 634.427 216.387C633.353 216.297 632.228 216.387 631.601 216.822C631.511 216.886 631.422 216.975 631.473 217.078C631.524 217.193 631.729 217.282 631.921 217.333C632.586 217.525 633.379 217.615 633.839 217.986C633.89 218.024 633.941 218.075 633.928 218.126C633.928 218.177 633.864 218.216 633.801 218.241C633.43 218.42 633.059 218.599 632.688 218.778C633.877 218.817 634.913 219.623 636.115 219.865C637.599 220.172 638.852 219.546 640.323 219.661L640.336 219.674Z" fill="#2D6A4F"/>
<path d="M561.762 211.323C560.393 211.732 559.025 212.167 557.669 212.614C558.002 212.55 558.321 212.512 558.641 212.473C559.933 212.32 561.557 211.885 561.774 211.323H561.762Z" fill="#2D6A4F"/>
<path d="M472.189 313.275C472.048 313.825 471.856 314.426 471.971 314.963C472.074 315.436 472.381 315.743 472.7 315.973C474.708 317.482 477.394 317.176 479.67 318.57C481.972 319.976 484.172 323.225 486.819 322.112C487.753 321.728 488.699 320.795 489.62 321.217C490.464 321.6 490.694 322.892 491.218 323.787C492.306 325.642 494.544 325.706 496.513 325.91C498.47 326.128 500.887 327.253 500.976 329.594C501.028 330.745 500.49 332.1 501.194 332.931C501.718 333.558 502.677 333.456 503.227 334.07C504.084 335.042 503.33 336.96 504.212 337.932C504.787 338.558 505.708 338.379 506.488 338.61C508.407 339.147 509.903 342.203 511.719 341.308C512.461 340.937 512.832 339.991 513.509 339.467C515.044 338.277 517.308 339.901 518.075 341.858C519.367 345.209 518.088 348.956 516.566 352C515.377 354.366 514.034 356.604 512.55 358.675C511.425 360.248 509.916 363.535 511.514 364.788C512.397 365.492 512.435 366.899 512.051 367.896C511.668 368.894 510.964 369.699 510.696 370.735C510.299 372.193 510.849 373.984 512.026 375.071C512.678 375.672 513.471 376.055 514.123 376.656C515.62 378.012 516.118 380.135 516.809 382.015C518.011 385.276 520.057 388.218 522.091 391.069C523.843 393.512 525.697 396.006 528.306 397.477C530.25 398.577 532.539 399.075 534.227 400.546C536.146 402.221 536.76 404.69 537.182 406.889C537.795 410.087 538.294 413.169 538.755 416.136C538.985 417.67 539.215 419.167 539.803 420.612C540.289 421.801 540.993 422.926 541.594 424.052C543.525 427.684 544.305 431.29 543.934 434.347C543.87 434.833 543.793 435.332 544.011 435.818C544.241 436.342 544.778 436.802 545.162 437.276C546.134 438.465 546.236 439.705 546.76 440.844C547.272 441.995 549.024 443.337 550.316 443.517C551.249 443.644 550.584 444.45 551.211 444.885C553.27 446.368 551.377 448.248 553.564 449.374C554.088 449.642 554.753 449.834 555.393 450.026C557.439 450.678 559.127 451.497 560.176 452.277C560.598 452.584 560.994 452.916 561.787 453.083C562.542 453.249 563.424 453.223 564.268 453.274C566.123 453.39 567.696 453.837 569.422 454.029C571.149 454.234 573.617 454.157 573.783 453.658C573.783 453.62 573.783 453.569 573.706 453.53C573.617 453.492 573.464 453.466 573.323 453.441C571.238 453.083 569.115 452.686 566.954 452.226C567.414 452.111 567.287 451.829 566.941 451.625C566.596 451.42 566.097 451.228 565.867 450.998C565.432 450.538 566.225 450.09 566.903 449.706C567.581 449.323 568.156 448.709 567.338 448.223C566.417 447.673 564.562 447.839 563.514 447.328C562.58 446.867 563.578 446.151 564.486 445.793C565.905 445.243 565.112 443.696 566.161 443.082C566.596 442.826 564.754 442.634 564.089 442.532C563.335 442.596 563.667 441.739 564.46 441.777C565.24 441.816 566.187 442.135 566.724 441.841C567.44 441.445 566.366 440.703 566.059 440.064C565.419 438.746 568.297 438.58 570.42 438.465C572.53 438.337 575.101 437.224 574.717 435.766C574.359 434.449 570.394 433.145 572.376 433.132C573.758 433.132 575.177 433.311 576.533 433.094C578.004 432.876 578.656 430.293 578.707 429.142C578.733 428.004 582.262 426.405 582.608 425.228C583.247 423.003 584.884 422.249 584.539 419.883C584.36 418.617 584.206 417.235 584.961 416.084C586.905 413.117 592.353 414.422 595.575 412.197C597.11 411.135 597.609 408.705 598.389 407.094C600.691 402.375 603.134 397.144 602.469 391.632C602.341 390.609 604.221 389.573 604.476 388.537C604.745 387.45 605.947 386.632 606.778 385.8C608.953 383.652 609.157 381.746 610.551 379.048C611.958 376.35 611.101 372.219 608.019 371.694C607.085 371.528 606.05 371.976 605.154 371.656C601.062 370.236 600.499 367.18 595.396 366.847C593.478 366.72 590.767 367.576 589.45 366.208C587.966 364.673 586.687 362.96 584.577 362.397C583.528 362.116 581.943 361.847 580.868 361.77C577.428 361.527 576.072 356.808 575.037 353.534C573.63 349.097 569.282 345.682 564.652 345.375C563.117 345.273 561.404 345.426 560.253 344.403C558.999 343.303 558.987 341.346 558.066 339.965C556.301 337.356 552.068 337.727 550.201 335.233C549.676 334.53 549.382 333.66 548.743 333.085C547.31 331.793 545.111 332.624 543.371 333.366C541.632 334.121 539.228 334.53 538.243 332.88C537.911 332.343 537.821 331.653 537.386 331.192C536.44 330.195 534.892 331.013 533.626 331.397C532.36 331.78 530.442 330.553 531.299 329.504C527.539 330.067 523.318 331.026 521.643 334.53C521.144 335.579 520.85 336.87 519.891 337.42C517.525 338.763 515.492 334.057 512.87 334.146C511.668 334.185 510.645 335.246 509.468 335.195C507.166 335.08 506.757 331.346 507.601 328.954C508.445 326.563 509.762 323.711 508.432 321.652C507.205 319.759 504.57 320.079 502.754 321.204C501.705 321.856 500.554 322.739 499.467 322.291C497.536 321.485 499.608 318.864 499.902 316.472C500.222 313.697 503.713 311.74 503.125 309.067C502.588 306.663 499.314 307.072 497.677 308.837C496.04 310.602 495.055 313.147 493.188 314.426C491.103 315.846 488.431 315.091 487.011 313.109C485.579 311.126 485.284 308.159 485.873 305.487C486.372 303.249 487.433 301.164 487.919 298.926C488.251 297.391 488.315 295.793 488.942 294.373C489.965 292.045 492.216 290.792 494.352 289.974C499.697 287.915 505.58 287.262 511.348 288.183C511.988 288.286 512.64 288.413 513.151 288.784C514.686 289.897 514.354 292.442 514.43 294.539C514.494 296.637 516.106 299.13 517.934 298.069C517.666 294.347 517.627 290.575 518.638 286.956C519.661 283.336 521.873 279.858 525.134 277.991C527.398 276.699 530.161 276.162 531.964 274.218C532.872 273.233 533.396 272.018 534.036 270.867C536.274 266.839 539.982 263.552 544.267 261.736C545.75 261.109 547.361 260.61 548.5 259.511C549.178 258.858 549.625 258.053 550.201 257.324C552.554 254.344 556.659 253.091 560.457 252.068C559.293 253.155 558.258 255.239 559.754 255.738C561.058 256.173 562.158 254.613 563.232 253.705C564.729 252.438 566.928 252.259 568.898 251.825C570.867 251.39 573.08 250.264 573.195 248.563C572.645 247.694 571.021 248.039 570.062 248.691C569.103 249.344 568.195 250.277 567.005 250.303C565.01 250.341 564.601 247.732 565.931 246.428C566.289 246.07 566.749 245.724 566.813 245.277C566.967 244.241 565.151 244.113 563.936 244.369C564.345 242.335 567.581 241.619 569.972 241.875C572.364 242.131 575.024 242.808 577.147 241.696C577.812 241.351 578.349 240.852 579.065 240.596C579.781 240.34 580.779 240.455 581.009 241.044C579.167 242.629 577.313 244.266 575.446 245.929C575.152 246.197 574.819 246.517 574.845 246.875C574.909 247.86 576.699 247.4 577.825 247.08C579.666 246.556 581.584 247.323 583.503 247.476C585.421 247.643 587.915 246.543 587.467 244.995C586.994 243.346 583.848 243.32 583.004 241.824C581.789 239.662 586.534 237.655 585.818 235.48C585.268 233.78 582.134 233.741 580.446 232.641C577.965 231.017 579.449 227.999 581.022 225.978C580.574 225.109 578.617 225.313 577.633 225.978C576.635 226.656 576.034 227.641 574.845 228.165C573.694 228.677 572.133 228.587 571.225 227.961C570.33 227.334 570.164 226.247 570.829 225.441C571.328 224.84 572.249 224.201 571.852 223.651C571.341 222.947 569.716 223.497 568.501 223.536C566.66 223.587 565.291 222.231 563.501 222.602C561.416 223.011 561.314 225.121 559.69 226.285C558.59 227.065 556.864 227.283 555.93 228.191C554.843 229.227 555.316 230.723 554.28 231.848C552.963 233.268 550.162 233.178 548.5 234.419C547.195 235.391 546.965 236.874 546.313 238.204C545.673 239.534 543.845 240.992 542.451 240.417C541.172 239.893 541.594 238.204 542.451 237.079C543.307 235.941 544.497 234.803 544.42 233.639C543.128 234.751 540.98 234.675 539.548 234.112C538.115 233.549 536.977 232.641 535.391 232.386C534.611 232.258 533.741 232.296 533.051 232.027C531.465 231.401 531.734 229.393 533.051 228.101C534.368 226.797 536.35 226.017 538.23 225.301C541.773 223.958 545.302 222.692 548.832 221.477C549.497 221.246 550.328 221.029 550.814 221.285C551.211 221.489 551.173 221.911 551.39 222.231C551.927 223.024 553.718 222.871 555.137 222.615C556.39 222.397 557.644 222.18 558.897 221.963C559.907 221.796 561.225 221.336 561.071 220.722C560.93 220.159 559.703 220.147 559.153 219.763C558.322 219.162 559.434 218.075 560.713 217.717C561.992 217.346 563.424 217.346 564.703 217.001C565.995 216.655 567.12 215.671 566.353 215.133C565.432 214.468 563.335 215.21 562.376 216.041C561.416 216.86 560.278 217.998 558.667 217.998C559.166 216.988 557.298 216.476 555.777 216.272C556.569 216.016 556.531 215.351 556.122 214.993C555.725 214.622 555.099 214.315 555.163 213.854C555.188 213.688 555.303 213.548 555.457 213.42C513.522 228.383 481.614 264.434 472.508 308.824C472.7 310.282 472.623 311.843 472.24 313.288L472.189 313.275Z" fill="#2D6A4F"/>
<path d="M688.63 206.746C690.458 206.913 692.248 206.476 693.758 205.551C695.484 206.721 696.855 208.34 697.591 210.706C698.619 214.048 696.424 216.349 694.05 218.303C691.575 220.335 689.874 222.122 688.605 225.117C688.605 225.117 690.319 221.093 688.491 218.111C689.202 217.275 689.76 216.285 690.128 215.18C691.131 212.184 690.458 209.022 688.63 206.733V206.746ZM700.739 217.494C701.513 213.997 700.612 210.847 699.394 208.43C699.749 206.322 700.498 204.407 701.298 202.877C702.351 206.656 705.118 209.883 709.027 211.323C708.951 211.503 708.888 211.696 708.824 211.889C708.532 212.788 708.355 213.688 708.317 214.601C707.961 214.652 707.618 214.717 707.263 214.781C706.159 215 701.272 216.028 700.752 217.506L700.739 217.494ZM700.003 202.658L697.909 207.222C697.909 207.222 696.931 205.718 695.192 204.458C695.192 204.458 695.929 203.648 696.5 202.825C696.728 202.452 696.944 202.054 697.122 201.643C697.579 201.913 698.061 202.131 698.581 202.311C699.051 202.478 699.521 202.581 700.003 202.645V202.658ZM675.417 187.938C675.113 188.453 674.859 188.993 674.669 189.584C673.184 194.045 675.544 198.879 679.949 200.383C680.418 200.537 680.888 200.666 681.358 200.73C681.662 201.733 682.145 202.671 682.766 203.494C678.743 203.031 674.808 205.448 673.463 209.497C671.914 214.164 674.377 219.216 678.984 220.785C681.992 221.813 685.153 221.093 687.437 219.178C687.475 219.319 687.513 219.46 687.513 219.615C687.513 219.615 688.059 222.353 686.257 225.464L681.7 235.453C678.819 242.768 679.086 243.333 679.086 243.333L687.222 248C688.478 229.719 695.586 222.944 701.272 219.242C702.402 218.393 703.658 217.751 704.953 217.249C706.146 216.799 707.136 216.491 708.126 216.337C708.266 216.311 708.342 216.298 708.342 216.298C708.786 220.026 711.287 223.343 715.031 224.628C720.222 226.403 725.87 223.587 727.622 218.316C728.358 216.092 728.282 213.791 727.571 211.734C728.104 211.336 728.574 210.86 729.005 210.333C731.366 208.597 733.232 206.142 734.235 203.134C736.418 196.577 733.778 189.545 728.257 185.997C729.373 177.371 724.373 168.874 715.919 165.981C708.482 163.436 700.549 166.007 695.852 171.805C695.383 171.586 694.888 171.38 694.38 171.213C686.765 168.616 678.514 172.743 675.951 180.456C675.113 182.963 674.986 185.534 675.456 187.964L675.392 187.938H675.417Z" fill="#2D6A4F"/>
<path d="M575.455 79.3136C575.468 79.6489 575.495 79.9171 575.495 80.1853C575.495 86.5414 575.495 92.8841 575.495 99.2402C575.495 100.581 575.053 101.734 574.06 102.686C572.545 104.135 571.03 105.583 569.595 107.112C568.549 108.225 567.302 108.721 565.814 108.721C555.877 108.721 545.941 108.721 536.018 108.721C534.046 108.721 533.135 107.675 533.014 105.69C532.907 104.027 533.416 102.78 534.636 101.56C544.855 91.3822 555.006 81.1373 565.183 70.9059C565.371 70.7182 565.545 70.517 565.84 70.2086C565.438 70.1684 565.156 70.1281 564.888 70.1281C557.526 70.1281 550.151 70.1281 542.789 70.1281C540.336 70.1281 539.45 71.0266 539.464 73.4939C539.464 79.783 539.464 86.0586 539.464 92.3477C539.464 92.6695 539.464 93.0047 539.464 93.3802H533.094C533.081 93.0047 533.041 92.6427 533.041 92.2806C533.041 86.1659 533.054 80.0512 533.027 73.9364C533.027 72.22 533.523 70.7986 534.811 69.6052C536.272 68.2642 537.667 66.816 539.062 65.408C540.014 64.4425 541.14 64 542.508 64C552.538 64.0134 562.582 64 572.612 64C574.49 64 575.375 65.0191 575.522 66.8696C575.67 68.6799 575.039 69.9672 573.765 71.2411C564.754 80.1987 555.823 89.2233 546.866 98.221C545.525 99.5754 544.197 100.957 542.736 102.458C543.272 102.485 543.634 102.512 543.983 102.512C551.278 102.512 558.572 102.512 565.881 102.512C568.16 102.512 569.072 101.614 569.072 99.334C569.072 93.045 569.072 86.7693 569.072 80.4803C569.072 80.1048 569.072 79.7428 569.072 79.2868H575.468L575.455 79.3136Z" fill="white"/>
<path d="M623.918 90.5775V108.828H620.592V93.9835C620.592 93.9835 620.485 93.9701 620.431 93.9567C619.855 95.834 619.305 97.7248 618.715 99.5887C617.816 102.418 616.878 105.221 616.006 108.05C615.805 108.68 615.55 108.962 614.813 108.949C612.748 108.895 612.721 108.949 612.144 106.977C610.937 102.78 609.744 98.5696 608.537 94.359C608.47 94.1042 608.363 93.8628 608.269 93.5812V108.881H605.211V90.6043C606.794 90.6043 608.376 90.5641 609.945 90.6446C610.173 90.6446 610.481 91.1675 610.575 91.5028C611.809 95.5927 613.016 99.696 614.223 103.786C614.263 103.907 614.303 104.014 614.41 104.349C615 102.458 615.51 100.769 616.06 99.0925C616.918 96.5045 617.83 93.9299 618.661 91.3419C618.849 90.7518 619.117 90.5507 619.72 90.5641C621.088 90.6043 622.469 90.5775 623.891 90.5775H623.918Z" fill="white"/>
<path d="M648.926 64.1339H652.56C653.553 68.7334 654.545 73.3194 655.604 78.2273C656.878 73.3597 658.085 68.7736 659.292 64.1876C659.439 64.1474 659.533 64.1071 659.627 64.1071C662.497 63.9998 662.51 63.9998 663.234 66.7756C664.186 70.49 665.112 74.2045 666.05 77.9323C667.177 73.3329 668.29 68.7334 669.416 64.1339H672.849C671.159 70.2353 669.47 76.283 667.807 82.2502C667.646 82.2904 667.619 82.3172 667.592 82.3172C666.52 82.3172 665.192 82.6927 664.428 82.21C663.771 81.7808 663.69 80.3863 663.422 79.4074C662.523 75.9879 661.665 72.5685 660.727 68.9077C660.271 70.6912 659.882 72.2735 659.466 73.8558C658.796 76.4305 658.098 78.9917 657.428 81.5663C657.28 82.1295 657.026 82.3709 656.395 82.3709C653.62 82.3709 653.62 82.4111 652.936 79.7694C651.622 74.7274 650.307 69.6721 648.993 64.6301C648.966 64.5094 648.967 64.3619 648.94 64.1339H648.926Z" fill="white"/>
<path d="M588.93 66.9904V64.161H602.675C602.608 65.4751 602.957 66.7356 601.884 67.9961C598.88 71.5496 596.024 75.2373 593.114 78.8846C593.007 79.0053 592.926 79.1528 592.725 79.4344H603.158C602.984 80.4938 602.849 81.4056 602.702 82.3041H588.394C588.26 80.8961 588.273 79.7294 589.293 78.536C592.256 75.0763 595.045 71.4692 597.915 67.9291C598.116 67.6743 598.317 67.4061 598.626 67.0038H588.93V66.9904Z" fill="white"/>
<path d="M702 100.447C702.322 98.7843 701.96 97.926 700.82 97.564C699.372 97.0947 698.245 97.564 697.561 98.8513C697.468 99.039 697.186 99.2134 696.985 99.2268C696.153 99.267 695.309 99.2402 694.477 99.2402C694.263 97.7249 695.175 96.223 696.743 95.5526C698.621 94.748 700.552 94.7748 702.483 95.3112C704.239 95.8073 705.299 96.9874 705.339 98.7977C705.419 102.123 705.366 105.462 705.366 108.908C704.588 108.908 703.703 109.002 702.858 108.855C702.536 108.801 702.308 108.225 702.013 107.836C700.847 109.15 699.197 109.27 697.481 109.136C695.577 108.975 694.035 107.608 693.753 105.838C693.391 103.598 694.263 101.801 696.261 101.104C697.32 100.729 698.487 100.595 699.613 100.46C700.404 100.367 701.222 100.447 702.013 100.447H702ZM701.973 102.458C700.726 102.593 699.519 102.633 698.353 102.888C697.374 103.102 696.904 104.014 697.038 104.993C697.159 105.972 697.843 106.615 698.862 106.709C701.222 106.937 702.496 105.315 701.987 102.445L701.973 102.458Z" fill="white"/>
<path d="M655.711 100.447C655.885 97.9662 654.477 96.8263 652.345 97.5907C652.01 97.7114 651.54 97.9527 651.487 98.2209C651.232 99.4814 650.307 99.2535 649.462 99.2535C648.966 99.2535 648.469 99.2535 647.96 99.2535C647.96 97.4164 648.952 96.0084 650.669 95.4049C652.586 94.7479 654.531 94.7613 656.435 95.4318C658.339 96.1022 658.996 97.6443 659.023 99.4948C659.076 102.592 659.023 105.703 659.023 108.922C658.191 108.922 657.306 109.016 656.462 108.881C656.126 108.828 655.885 108.265 655.563 107.889C654.115 109.364 652.144 109.458 650.106 108.949C648.429 108.519 647.37 107.111 647.263 105.422C647.129 103.357 647.839 101.909 649.583 101.251C650.763 100.809 652.05 100.661 653.31 100.474C654.061 100.366 654.852 100.46 655.684 100.46L655.711 100.447ZM655.67 102.458C654.396 102.606 653.096 102.646 651.849 102.941C651.379 103.048 650.816 103.719 650.749 104.215C650.655 104.832 650.816 105.663 651.205 106.133C651.862 106.924 652.895 106.857 653.833 106.602C655.268 106.2 655.912 104.832 655.67 102.458Z" fill="white"/>
<path d="M627.511 99.2398C627.833 96.6518 628.986 95.4047 631.762 95.0828C633.103 94.9219 634.524 95.0828 635.852 95.4047C637.541 95.807 638.534 97.1747 638.561 98.8911C638.614 102.19 638.574 105.502 638.574 108.854H635.637C635.53 108.479 635.423 108.13 635.302 107.715C633.733 109.364 631.842 109.418 629.911 108.975C628.074 108.559 626.975 107.125 626.841 105.287C626.706 103.357 627.578 101.774 629.388 101.131C630.515 100.742 631.749 100.608 632.942 100.46C633.693 100.366 634.471 100.447 635.222 100.447C635.57 98.0195 634.202 96.8395 632.003 97.5904C631.561 97.7379 631.078 98.1804 630.89 98.6095C630.635 99.1459 630.354 99.28 629.831 99.2532C629.067 99.213 628.289 99.2532 627.511 99.2532V99.2398ZM635.543 102.512C634.189 102.579 633.183 102.565 632.191 102.686C631.024 102.834 630.354 103.491 630.26 104.416C630.153 105.502 630.649 106.347 631.574 106.642C632.794 107.017 634.404 106.548 634.846 105.515C635.208 104.644 635.289 103.678 635.557 102.512H635.543Z" fill="white"/>
<path d="M681.484 73.8827C681.806 71.4154 680.385 70.2487 678.159 71.0533C677.81 71.174 677.354 71.4824 677.274 71.7908C677.046 72.6624 676.482 72.7295 675.758 72.6893C675.128 72.649 674.484 72.6893 673.787 72.6893C673.921 70.879 674.686 69.6185 676.281 68.9748C678.373 68.1434 680.505 68.1837 682.584 69.0151C683.844 69.5246 684.689 70.5571 684.729 71.8579C684.85 75.3175 684.769 78.7772 684.769 82.3575C684.032 82.3575 683.147 82.438 682.302 82.3173C682.007 82.277 681.779 81.7407 681.457 81.3652C679.982 82.7866 678.024 82.9073 675.986 82.3843C674.27 81.9418 673.264 80.574 673.13 78.7638C672.996 76.873 673.774 75.3041 675.463 74.7007C676.71 74.2582 678.065 74.1107 679.392 73.9095C680.076 73.8022 680.787 73.8961 681.471 73.8961L681.484 73.8827ZM681.565 75.9612C680.237 76.0819 678.99 76.0953 677.797 76.3501C676.911 76.5512 676.456 77.3155 676.496 78.281C676.536 79.1929 676.992 79.8097 677.85 80.0779C679.714 80.6545 681.35 79.5683 681.551 77.624C681.605 77.1546 681.551 76.6853 681.551 75.9478L681.565 75.9612Z" fill="white"/>
<path d="M660.311 95.2576C661.477 95.2576 662.483 95.204 663.475 95.2979C663.73 95.3247 664.039 95.794 664.146 96.1158C665.044 98.9989 665.916 101.909 666.788 104.805C666.841 104.993 666.922 105.181 667.042 105.489C667.981 102.271 668.906 99.2 669.764 96.1158C669.952 95.4454 670.234 95.1638 670.945 95.2308C671.682 95.2979 672.42 95.2442 673.211 95.2442C673.211 95.4856 673.251 95.6599 673.211 95.794C671.588 100.675 669.952 105.57 668.303 110.451C668.209 110.732 668.088 111.014 667.954 111.295C666.721 114.004 664.495 115.023 661.531 114.178V111.577C661.96 111.577 662.349 111.577 662.738 111.577C664.495 111.523 665.527 110.048 664.951 108.399C663.422 104.081 661.893 99.7766 660.297 95.2442L660.311 95.2576Z" fill="white"/>
<path d="M616.757 76.283H607.826C607.598 78.6699 609.18 80.2656 611.379 79.9304C611.822 79.8633 612.466 79.6756 612.613 79.3537C613.203 78.0798 614.262 78.3346 615.268 78.3346C615.711 78.3346 616.14 78.3346 616.582 78.3346C616.14 80.6411 614.075 82.3709 611.648 82.6123C605.426 83.2291 603.816 78.1737 604.406 74.2179C604.809 71.469 606.056 69.2832 608.939 68.653C614.477 67.4327 617.373 71.2678 616.73 76.2964L616.757 76.283ZM607.812 74.0436H613.404C613.498 72.1797 612.559 70.9996 610.897 70.8655C609.207 70.718 608.04 71.8981 607.812 74.0436Z" fill="white"/>
<path d="M712.567 76.3766C712.553 78.7635 713.841 80.1715 715.946 79.9167C716.603 79.8363 717.3 79.3804 717.783 78.8842C718.145 78.5087 718.413 78.2942 718.923 78.321C719.728 78.3612 720.532 78.321 721.35 78.321C721.028 80.5202 718.95 82.317 716.563 82.5718C710.649 83.2155 708.531 78.7635 709.241 74.097C709.898 69.7389 712.956 67.6873 717.233 68.5857C719.62 69.0819 720.908 70.7178 721.444 72.984C722.182 76.0816 722.034 76.256 718.896 76.256C716.871 76.256 714.847 76.2559 712.822 76.2694C712.755 76.2694 712.701 76.3096 712.567 76.3498V76.3766ZM712.647 74.03H718.239C718.266 72.0856 717.26 70.9056 715.571 70.8653C713.881 70.8117 712.755 72.0185 712.647 74.03Z" fill="white"/>
<path d="M634.35 82.6123C630.568 82.6123 627.98 80.1584 627.833 76.3635C627.792 75.4248 627.832 74.4593 628.02 73.5475C628.771 70.1147 631.279 68.2775 634.859 68.4116C638.077 68.5323 640.411 70.6779 640.813 74.057C640.96 75.2371 640.947 76.4976 640.706 77.6642C640.022 80.8557 637.662 82.6123 634.363 82.6123H634.35ZM637.756 75.5723C637.487 74.5532 637.367 73.5207 636.938 72.6356C635.999 70.6778 633.237 70.5169 631.976 72.2736C630.836 73.8425 630.93 77.4094 632.15 78.8979C633.491 80.5472 636.053 80.3059 636.938 78.3883C637.34 77.5167 637.474 76.5378 637.756 75.5723Z" fill="white"/>
<path d="M674.123 104.859C675.102 104.859 675.973 104.819 676.845 104.886C677.1 104.899 677.435 105.141 677.582 105.369C678.4 106.616 680.023 107.166 681.391 106.495C681.807 106.294 682.276 105.731 682.276 105.315C682.276 104.859 681.914 104.175 681.511 103.961C680.734 103.532 679.808 103.384 678.95 103.076C678.092 102.767 677.234 102.472 676.416 102.097C673.908 100.944 674.23 97.3766 675.987 96.0491C677.904 94.6009 681.927 94.5874 683.831 96.0893C684.743 96.8134 685.293 97.7387 685.373 99.0528C684.435 99.0528 683.536 99.0796 682.638 99.0394C682.437 99.0394 682.195 98.8114 682.061 98.6103C681.297 97.4571 679.795 96.9877 678.628 97.6582C678.307 97.846 677.985 98.3153 677.958 98.6639C677.945 99.0126 678.226 99.5355 678.535 99.6965C679.218 100.045 679.983 100.206 680.72 100.447C681.699 100.783 682.718 101.064 683.657 101.493C685.052 102.124 685.709 103.277 685.722 104.805C685.722 106.348 685.159 107.621 683.791 108.332C681.324 109.606 678.789 109.579 676.309 108.359C674.981 107.702 674.337 106.482 674.109 104.886L674.123 104.859Z" fill="white"/>
<path d="M698.38 72.4745C697.428 72.4745 696.517 72.5013 695.618 72.4611C695.417 72.4611 695.176 72.2197 695.055 72.032C694.358 70.9861 693.057 70.4765 691.89 70.9995C691.475 71.1872 691.019 71.7102 690.965 72.1259C690.925 72.4611 691.367 73.0511 691.743 73.2255C692.561 73.6009 693.473 73.7753 694.331 74.0569C695.028 74.2848 695.752 74.486 696.423 74.7944C697.938 75.4917 698.769 76.6315 698.729 78.3747C698.689 80.1179 697.925 81.365 696.342 82.0221C694.156 82.9339 691.931 82.9205 689.758 82.0221C688.216 81.3784 687.385 80.1179 687.13 78.3077C688.122 78.3077 689.061 78.2808 689.986 78.3211C690.187 78.3211 690.429 78.549 690.549 78.7368C691.394 80.0375 692.909 80.6141 694.317 79.9704C694.76 79.7693 695.243 79.1793 695.283 78.7368C695.31 78.2943 694.907 77.6506 694.505 77.3958C693.942 77.0203 693.191 76.9265 692.521 76.6851C691.501 76.3365 690.455 76.0415 689.49 75.5855C688.095 74.9285 687.505 73.7484 687.626 72.1929C687.733 70.7045 688.457 69.6183 689.785 69.0283C691.823 68.1299 693.929 68.1164 695.967 69.0149C697.388 69.6317 698.22 70.7715 698.38 72.4611V72.4745Z" fill="white"/>
<path d="M702.041 71.2546H699.909V68.8141H702.014V65.0058H705.326V68.7605H708.062V71.2546H705.313C705.313 72.6626 705.313 73.9633 705.313 75.2641C705.313 76.31 705.273 77.3559 705.353 78.4019C705.447 79.7294 705.729 79.944 707.056 79.9574C707.257 79.9574 707.458 79.9574 707.807 79.9574C707.807 80.6279 707.847 81.2447 707.78 81.875C707.767 82.0627 707.485 82.3711 707.311 82.3711C706.211 82.3979 705.085 82.5052 703.999 82.3175C702.725 82.1029 702.041 80.9229 702.028 79.2735C702.001 77.0073 702.028 74.7411 702.028 72.4883C702.028 72.1262 702.028 71.7642 702.028 71.268L702.041 71.2546Z" fill="white"/>
<path d="M644.916 108.855H641.711V89.5851H644.916V108.855Z" fill="white"/>
<path d="M619.279 82.2905V68.8273H622.497C622.537 69.4308 622.564 70.0342 622.618 70.8254C623.677 69.2162 625.058 68.425 626.935 68.425V71.5226C623.945 71.7774 622.537 72.5552 622.577 76.6451C622.591 78.4956 622.577 80.3461 622.577 82.2636H619.279V82.2905Z" fill="white"/>
<path d="M688.149 95.2842H691.327V108.841H688.149V95.2842Z" fill="white"/>
<path d="M688.108 92.7366V89.5452H691.326V92.7366H688.108Z" fill="white"/>
<path fill-rule="evenodd" clip-rule="evenodd" d="M672.904 49.6711L667.579 42.4812L663.158 49.6711H652.794L662.338 35.4046L652.39 22H663.158L668.28 28.9178L672.535 22H682.899L673.522 35.983L683.683 49.6598H672.915L672.904 49.6711ZM720.563 22.0113V49.6711H711.506V35.8809L707.037 49.6711H699.253L694.784 35.8809V49.6711H685.692V22.0113H696.828L703.222 38.614L709.45 22.0113H720.551H720.563ZM733.767 28.9291V32.3313H742.776V38.8522H733.767V42.7647H744V49.6825H724.663V22.0227H744V28.9405H733.767V28.9291ZM527.644 45.8153H517.982L516.544 50H507L517.613 22.3402H528.096L538.662 50H529.082L527.644 45.8153ZM525.434 39.2945L522.807 31.5942L520.181 39.2945H525.422H525.434ZM568.541 50H559.449L549.822 36.0851V50H540.73V22.3402H549.822L559.449 36.482V22.3402H568.541V50ZM592.061 35.8129C593.809 36.1985 595.163 37.015 596.114 38.2398C597.101 39.4419 597.588 40.8368 597.588 42.4245C597.588 44.8514 596.744 46.7226 595.045 48.0494C593.381 49.3536 590.98 50 587.83 50H572.629V22.3402H587.414C590.362 22.3402 592.679 22.9526 594.379 24.1774C596.067 25.4022 596.922 27.1827 596.922 29.5302C596.922 31.1405 596.471 32.5128 595.567 33.6355C594.688 34.7242 593.523 35.4613 592.05 35.8242L592.061 35.8129ZM581.745 33.1252H585.263C586.083 33.1252 586.677 32.9664 587.07 32.6602C587.474 32.3426 587.688 31.8663 587.688 31.2199C587.688 30.5735 587.486 30.0518 587.07 29.7343C586.689 29.3941 586.083 29.224 585.263 29.224H581.745V33.1365V33.1252ZM585.881 43.0482C586.701 43.0482 587.295 42.9008 587.688 42.6173C588.092 42.2997 588.306 41.8121 588.306 41.1316C588.306 39.8048 587.498 39.1357 585.893 39.1357H581.757V43.0482H585.893H585.881ZM608.712 36.1418C608.712 33.3293 611.101 31.0498 614.037 31.0498H640.541C643.476 31.0498 645.865 33.3293 645.865 36.1418C645.865 38.9542 643.476 41.2337 640.541 41.2337H614.037C611.101 41.2337 608.712 38.9542 608.712 36.1418ZM614.049 22.3856C606.074 22.3856 599.62 28.5549 599.62 36.1418C599.62 43.7286 606.074 49.8979 614.049 49.8979H640.552C648.527 49.8979 654.981 43.7286 654.981 36.1418C654.981 28.5549 648.527 22.3856 640.552 22.3856H614.049Z" fill="white"/>
</g>
<defs>
<linearGradient id="paint0_linear_76_47505" x1="113.5" y1="13" x2="113.5" y2="240" gradientUnits="userSpaceOnUse">
<stop stop-color="#F9F7E1"/>
<stop offset="1" stop-color="#F9F7E1" stop-opacity="0"/>
</linearGradient>
<radialGradient id="paint1_radial_76_47505" cx="0" cy="0" r="1" gradientUnits="userSpaceOnUse" gradientTransform="translate(599.5 248.5) scale(248.5)">
<stop offset="0.06" stop-color="#F9F7E1"/>
<stop offset="0.09" stop-color="#F6F7E2" stop-opacity="0.99"/>
<stop offset="0.13" stop-color="#EFF8E5" stop-opacity="0.95"/>
<stop offset="0.17" stop-color="#E2F9EA" stop-opacity="0.89"/>
<stop offset="0.21" stop-color="#D1FBF1" stop-opacity="0.81"/>
<stop offset="0.26" stop-color="#BBFDFA" stop-opacity="0.71"/>
<stop offset="0.28" stop-color="#B0FFFF" stop-opacity="0.65"/>
<stop offset="0.31" stop-color="#9CF8F6" stop-opacity="0.57"/>
<stop offset="0.52" stop-color="#14CCBD" stop-opacity="0"/>
</radialGradient>
<clipPath id="clip0_76_47505">
<rect width="785" height="300" fill="white"/>
</clipPath>
</defs>
</svg>
