<svg width="30" height="30" viewBox="0 0 30 30" fill="none" xmlns="http://www.w3.org/2000/svg">
<mask id="mask0_1257_18580" style="mask-type:alpha" maskUnits="userSpaceOnUse" x="0" y="0" width="30" height="30">
<rect width="30" height="30" fill="#D9D9D9"/>
</mask>
<g mask="url(#mask0_1257_18580)">
<path d="M13 20.75L21.8125 11.9375L20.0625 10.1875L13 17.25L9.4375 13.6875L7.6875 15.4375L13 20.75ZM14.75 27.5C13.0208 27.5 11.3958 27.1719 9.875 26.5156C8.35417 25.8594 7.03125 24.9688 5.90625 23.8438C4.78125 22.7188 3.89063 21.3958 3.23438 19.875C2.57812 18.3542 2.25 16.7292 2.25 15C2.25 13.2708 2.57812 11.6458 3.23438 10.125C3.89063 8.60417 4.78125 7.28125 5.90625 6.15625C7.03125 5.03125 8.35417 4.14063 9.875 3.48438C11.3958 2.82812 13.0208 2.5 14.75 2.5C16.4792 2.5 18.1042 2.82812 19.625 3.48438C21.1458 4.14063 22.4688 5.03125 23.5938 6.15625C24.7188 7.28125 25.6094 8.60417 26.2656 10.125C26.9219 11.6458 27.25 13.2708 27.25 15C27.25 16.7292 26.9219 18.3542 26.2656 19.875C25.6094 21.3958 24.7188 22.7188 23.5938 23.8438C22.4688 24.9688 21.1458 25.8594 19.625 26.5156C18.1042 27.1719 16.4792 27.5 14.75 27.5ZM14.75 25C17.5417 25 19.9062 24.0312 21.8438 22.0938C23.7812 20.1562 24.75 17.7917 24.75 15C24.75 12.2083 23.7812 9.84375 21.8438 7.90625C19.9062 5.96875 17.5417 5 14.75 5C11.9583 5 9.59375 5.96875 7.65625 7.90625C5.71875 9.84375 4.75 12.2083 4.75 15C4.75 17.7917 5.71875 20.1562 7.65625 22.0938C9.59375 24.0312 11.9583 25 14.75 25Z" fill="#3E28E8"/>
</g>
</svg>
