<svg width="290" height="10" viewBox="0 0 290 10" fill="none" xmlns="http://www.w3.org/2000/svg">
<line x1="0.503861" y1="3.50389" x2="124.5" y2="4.4651" stroke="black" stroke-opacity="0.3" stroke-linecap="round"/>
<line x1="165.504" y1="4.50389" x2="289.5" y2="5.4651" stroke="black" stroke-opacity="0.3" stroke-linecap="round"/>
<path d="M143.056 9.144C142.235 9.144 141.488 8.95733 140.816 8.584C140.155 8.21067 139.632 7.68267 139.248 7C138.875 6.30667 138.688 5.50667 138.688 4.6C138.688 3.704 138.88 2.91467 139.264 2.232C139.659 1.53867 140.192 1.01067 140.864 0.648C141.536 0.274666 142.288 0.0879993 143.12 0.0879993C143.952 0.0879993 144.704 0.274666 145.376 0.648C146.048 1.01067 146.576 1.53333 146.96 2.216C147.355 2.89867 147.552 3.69333 147.552 4.6C147.552 5.50667 147.349 6.30667 146.944 7C146.549 7.68267 146.011 8.21067 145.328 8.584C144.645 8.95733 143.888 9.144 143.056 9.144ZM143.056 7.864C143.579 7.864 144.069 7.74133 144.528 7.496C144.987 7.25067 145.355 6.88267 145.632 6.392C145.92 5.90133 146.064 5.304 146.064 4.6C146.064 3.896 145.925 3.29867 145.648 2.808C145.371 2.31733 145.008 1.95467 144.56 1.72C144.112 1.47467 143.627 1.352 143.104 1.352C142.571 1.352 142.08 1.47467 141.632 1.72C141.195 1.95467 140.843 2.31733 140.576 2.808C140.309 3.29867 140.176 3.896 140.176 4.6C140.176 5.31467 140.304 5.91733 140.56 6.408C140.827 6.89867 141.179 7.26667 141.616 7.512C142.053 7.74667 142.533 7.864 143.056 7.864ZM150.922 1.656C151.178 1.15467 151.541 0.765333 152.01 0.488C152.49 0.210666 153.072 0.0719995 153.754 0.0719995V1.576H153.37C151.738 1.576 150.922 2.46133 150.922 4.232V9H149.466V0.231999H150.922V1.656Z" fill="black" fill-opacity="0.5"/>
</svg>
