<svg width="42" height="34" viewBox="0 0 42 34" fill="none" xmlns="http://www.w3.org/2000/svg">
<path d="M11.3333 24.5V11.6667H9V4.66667H15.0667C14.9694 4.49167 14.9063 4.30694 14.8771 4.1125C14.8479 3.91806 14.8333 3.71389 14.8333 3.5C14.8333 2.52778 15.1736 1.70139 15.8542 1.02083C16.5347 0.340278 17.3611 0 18.3333 0C18.7806 0 19.1986 0.0826389 19.5875 0.247917C19.9764 0.413194 20.3361 0.641667 20.6667 0.933333C20.9972 0.622222 21.3569 0.388889 21.7458 0.233333C22.1347 0.0777778 22.5528 0 23 0C23.9722 0 24.7986 0.340278 25.4792 1.02083C26.1597 1.70139 26.5 2.52778 26.5 3.5C26.5 3.71389 26.4806 3.91319 26.4417 4.09792C26.4028 4.28264 26.3444 4.47222 26.2667 4.66667H32.3333V11.6667H30V24.5H11.3333ZM23 2.33333C22.6694 2.33333 22.3924 2.44514 22.1688 2.66875C21.9451 2.89236 21.8333 3.16944 21.8333 3.5C21.8333 3.83056 21.9451 4.10764 22.1688 4.33125C22.3924 4.55486 22.6694 4.66667 23 4.66667C23.3306 4.66667 23.6076 4.55486 23.8313 4.33125C24.0549 4.10764 24.1667 3.83056 24.1667 3.5C24.1667 3.16944 24.0549 2.89236 23.8313 2.66875C23.6076 2.44514 23.3306 2.33333 23 2.33333ZM17.1667 3.5C17.1667 3.83056 17.2785 4.10764 17.5021 4.33125C17.7257 4.55486 18.0028 4.66667 18.3333 4.66667C18.6639 4.66667 18.941 4.55486 19.1646 4.33125C19.3882 4.10764 19.5 3.83056 19.5 3.5C19.5 3.16944 19.3882 2.89236 19.1646 2.66875C18.941 2.44514 18.6639 2.33333 18.3333 2.33333C18.0028 2.33333 17.7257 2.44514 17.5021 2.66875C17.2785 2.89236 17.1667 3.16944 17.1667 3.5ZM11.3333 7V9.33333H19.5V7H11.3333ZM19.5 22.1667V11.6667H13.6667V22.1667H19.5ZM21.8333 22.1667H27.6667V11.6667H21.8333V22.1667ZM30 9.33333V7H21.8333V9.33333H30Z" fill="#1C1B1F"/>
<path d="M8.53546 28.135V28.786H6.47046V30.221H8.08046V30.872H6.47046V33H5.67246V28.135H8.53546ZM11.802 33L10.682 31.054H10.073V33H9.275V28.135H10.955C11.3283 28.135 11.6433 28.2003 11.9 28.331C12.1613 28.4617 12.355 28.6367 12.481 28.856C12.6117 29.0753 12.677 29.3203 12.677 29.591C12.677 29.9083 12.5837 30.1977 12.397 30.459C12.215 30.7157 11.9327 30.8907 11.55 30.984L12.754 33H11.802ZM10.073 30.417H10.955C11.2537 30.417 11.4777 30.3423 11.627 30.193C11.781 30.0437 11.858 29.843 11.858 29.591C11.858 29.339 11.7833 29.143 11.634 29.003C11.4847 28.8583 11.2583 28.786 10.955 28.786H10.073V30.417ZM14.4959 28.779V30.207H16.1759V30.858H14.4959V32.349H16.3859V33H13.6979V28.128H16.3859V28.779H14.4959ZM18.1668 28.779V30.207H19.8468V30.858H18.1668V32.349H20.0568V33H17.3688V28.128H20.0568V28.779H18.1668ZM25.462 30.501C25.7233 30.5477 25.945 30.6853 26.127 30.914C26.309 31.1427 26.4 31.4017 26.4 31.691C26.4 31.9383 26.3347 32.1623 26.204 32.363C26.078 32.559 25.8937 32.7153 25.651 32.832C25.4083 32.944 25.126 33 24.804 33H22.858V28.135H24.713C25.0443 28.135 25.329 28.191 25.567 28.303C25.805 28.415 25.9847 28.5667 26.106 28.758C26.2273 28.9447 26.288 29.1547 26.288 29.388C26.288 29.668 26.2133 29.9013 26.064 30.088C25.9147 30.2747 25.714 30.4123 25.462 30.501ZM23.656 30.179H24.643C24.9043 30.179 25.1073 30.1207 25.252 30.004C25.4013 29.8827 25.476 29.71 25.476 29.486C25.476 29.2667 25.4013 29.0963 25.252 28.975C25.1073 28.849 24.9043 28.786 24.643 28.786H23.656V30.179ZM24.734 32.349C25.0047 32.349 25.217 32.2837 25.371 32.153C25.525 32.0223 25.602 31.8403 25.602 31.607C25.602 31.369 25.5203 31.18 25.357 31.04C25.1937 30.9 24.9767 30.83 24.706 30.83H23.656V32.349H24.734ZM29.4862 33.049C29.0335 33.049 28.6159 32.944 28.2332 32.734C27.8552 32.5193 27.5542 32.223 27.3302 31.845C27.1109 31.4623 27.0012 31.033 27.0012 30.557C27.0012 30.081 27.1109 29.654 27.3302 29.276C27.5542 28.898 27.8552 28.604 28.2332 28.394C28.6159 28.1793 29.0335 28.072 29.4862 28.072C29.9435 28.072 30.3612 28.1793 30.7392 28.394C31.1219 28.604 31.4229 28.898 31.6422 29.276C31.8615 29.654 31.9712 30.081 31.9712 30.557C31.9712 31.033 31.8615 31.4623 31.6422 31.845C31.4229 32.223 31.1219 32.5193 30.7392 32.734C30.3612 32.944 29.9435 33.049 29.4862 33.049ZM29.4862 32.356C29.8082 32.356 30.0952 32.2837 30.3472 32.139C30.5992 31.9897 30.7952 31.7797 30.9352 31.509C31.0799 31.2337 31.1522 30.9163 31.1522 30.557C31.1522 30.1977 31.0799 29.8827 30.9352 29.612C30.7952 29.3413 30.5992 29.1337 30.3472 28.989C30.0952 28.8443 29.8082 28.772 29.4862 28.772C29.1642 28.772 28.8772 28.8443 28.6252 28.989C28.3732 29.1337 28.1749 29.3413 28.0302 29.612C27.8902 29.8827 27.8202 30.1977 27.8202 30.557C27.8202 30.9163 27.8902 31.2337 28.0302 31.509C28.1749 31.7797 28.3732 31.9897 28.6252 32.139C28.8772 32.2837 29.1642 32.356 29.4862 32.356ZM34.9894 30.571L36.5014 33H35.6054L34.5064 31.236L33.4774 33H32.5884L34.1004 30.571L32.5814 28.135H33.4774L34.5834 29.913L35.6194 28.135H36.5084L34.9894 30.571Z" fill="black"/>
</svg>
