<svg width="22" height="28" viewBox="0 0 22 28" fill="none" xmlns="http://www.w3.org/2000/svg">
<path d="M18 4.10125V2C18 1.46957 17.7893 0.96086 17.4142 0.58579C17.0391 0.21071 16.5304 0 16 0H6C5.4696 0 4.96086 0.21071 4.58579 0.58579C4.21071 0.96086 4 1.46957 4 2V4.10125C2.87139 4.33283 1.85719 4.94659 1.1285 5.83901C0.39981 6.73143 0.00123 7.84787 0 9V23C0 24.3261 0.52678 25.5979 1.46447 26.5355C2.40215 27.4732 3.67392 28 5 28H17C18.3261 28 19.5979 27.4732 20.5355 26.5355C21.4732 25.5979 22 24.3261 22 23V9C21.9988 7.84787 21.6002 6.73143 20.8715 5.83901C20.1428 4.94659 19.1286 4.33283 18 4.10125ZM16 4H14V2H16V4ZM10 4V2H12V4H10ZM8 2V4H6V2H8ZM20 23C20 23.7956 19.6839 24.5587 19.1213 25.1213C18.5587 25.6839 17.7956 26 17 26H5C4.20435 26 3.44129 25.6839 2.87868 25.1213C2.31607 24.5587 2 23.7956 2 23V9C2 8.2044 2.31607 7.44129 2.87868 6.87868C3.44129 6.31607 4.20435 6 5 6H17C17.7956 6 18.5587 6.31607 19.1213 6.87868C19.6839 7.44129 20 8.2044 20 9V23ZM15 18C15 18.7956 14.6839 19.5587 14.1213 20.1213C13.5587 20.6839 12.7956 21 12 21V22C12 22.2652 11.8946 22.5196 11.7071 22.7071C11.5196 22.8946 11.2652 23 11 23C10.7348 23 10.4804 22.8946 10.2929 22.7071C10.1054 22.5196 10 22.2652 10 22V21H9C8.7348 21 8.4804 20.8946 8.2929 20.7071C8.1054 20.5196 8 20.2652 8 20C8 19.7348 8.1054 19.4804 8.2929 19.2929C8.4804 19.1054 8.7348 19 9 19H12C12.2652 19 12.5196 18.8946 12.7071 18.7071C12.8946 18.5196 13 18.2652 13 18C13 17.7348 12.8946 17.4804 12.7071 17.2929C12.5196 17.1054 12.2652 17 12 17H10C9.2044 17 8.4413 16.6839 7.8787 16.1213C7.3161 15.5587 7 14.7956 7 14C7 13.2044 7.3161 12.4413 7.8787 11.8787C8.4413 11.3161 9.2044 11 10 11V10C10 9.7348 10.1054 9.4804 10.2929 9.2929C10.4804 9.1054 10.7348 9 11 9C11.2652 9 11.5196 9.1054 11.7071 9.2929C11.8946 9.4804 12 9.7348 12 10V11H13C13.2652 11 13.5196 11.1054 13.7071 11.2929C13.8946 11.4804 14 11.7348 14 12C14 12.2652 13.8946 12.5196 13.7071 12.7071C13.5196 12.8946 13.2652 13 13 13H10C9.7348 13 9.4804 13.1054 9.2929 13.2929C9.1054 13.4804 9 13.7348 9 14C9 14.2652 9.1054 14.5196 9.2929 14.7071C9.4804 14.8946 9.7348 15 10 15H12C12.7956 15 13.5587 15.3161 14.1213 15.8787C14.6839 16.4413 15 17.2044 15 18Z" fill="#3E28E8"/>
</svg>
