<svg width="83" height="33" viewBox="0 0 83 33" fill="none" xmlns="http://www.w3.org/2000/svg">
<g clip-path="url(#clip0_1565_2366)">
<path d="M66.9997 30.7683C74.8799 30.7683 81.268 24.3802 81.268 16.5C81.268 8.61988 74.8799 2.23175 66.9997 2.23175C59.1196 2.23175 52.7314 8.61988 52.7314 16.5C52.7314 24.3802 59.1196 30.7683 66.9997 30.7683Z" fill="white"/>
<path d="M67 0.5C63.8355 0.5 60.7421 1.43838 58.1109 3.19649C55.4797 4.95459 53.4289 7.45345 52.2179 10.3771C51.0069 13.3007 50.6901 16.5177 51.3074 19.6214C51.9248 22.7251 53.4487 25.5761 55.6863 27.8137C57.9239 30.0513 60.7749 31.5752 63.8786 32.1926C66.9823 32.8099 70.1993 32.4931 73.1229 31.2821C76.0466 30.0711 78.5454 28.0203 80.3035 25.3891C82.0616 22.7579 83 19.6645 83 16.5C83.0061 14.405 82.5995 12.3292 81.8034 10.3913C81.0073 8.4534 79.8373 6.69127 78.3602 5.20553C76.8831 3.71979 75.1278 2.53954 73.1946 1.73216C71.2614 0.924785 69.188 0.506096 67.093 0.5H67ZM67.2712 17.0424L65.6053 22.6598H74.5157C74.5748 22.6577 74.6336 22.6673 74.6889 22.688C74.7443 22.7087 74.795 22.7401 74.8381 22.7804C74.8813 22.8207 74.9161 22.8691 74.9406 22.9229C74.965 22.9766 74.9786 23.0347 74.9806 23.0937V23.2409L74.2058 25.914C74.1717 26.0405 74.0955 26.1515 73.9899 26.2289C73.8843 26.3064 73.7555 26.3456 73.6247 26.3402H59.9879L62.2736 18.5533L59.7167 19.3281L60.2978 17.546L62.8547 16.7712L66.0702 5.84625C66.1056 5.72054 66.1821 5.6103 66.2874 5.53307C66.3927 5.45584 66.5208 5.41607 66.6513 5.4201H70.0993C70.1583 5.41803 70.2172 5.42761 70.2725 5.4483C70.3278 5.46899 70.3785 5.50038 70.4217 5.54068C70.4648 5.58098 70.4996 5.62939 70.5241 5.68315C70.5486 5.73692 70.5622 5.79497 70.5642 5.85399V6.00121L67.8523 15.2215L70.4092 14.4467L69.8668 16.3063L67.2712 17.0424Z" fill="#345D9D"/>
</g>
<path d="M66 16.5C66 25.3368 58.8366 32.5 50 32.5C41.1632 32.5 34 25.3368 34 16.5C34 7.66336 41.1632 0.5 50 0.5C58.8366 0.5 66 7.66336 66 16.5Z" fill="#020100"/>
<path d="M60.0212 12.3336C59.1173 11.7014 58.1508 11.0274 57.2051 10.3586C57.1842 10.343 57.1633 10.3273 57.1372 10.3116C57.0327 10.2333 56.9125 10.1497 56.7662 10.1026L56.7558 10.0974C54.227 9.48612 51.6565 8.85916 49.1695 8.2531C46.9124 7.7045 44.6606 7.15591 42.4035 6.60732C42.3461 6.59164 42.2886 6.57597 42.2259 6.5603C42.0221 6.50282 41.787 6.44013 41.5362 6.47147C41.4631 6.48192 41.4004 6.50805 41.3429 6.54462L41.2802 6.59687C41.181 6.69091 41.1287 6.81108 41.1026 6.879L41.0869 6.9208V7.16113L41.0974 7.19771C42.5237 11.1946 43.9866 15.249 45.3973 19.1727C46.484 22.1926 47.6126 25.3222 48.715 28.3943C48.7829 28.6033 48.9762 28.7391 49.2165 28.76H49.2688C49.4934 28.76 49.692 28.6503 49.7913 28.4727L53.9292 22.4381C54.9376 20.97 55.9459 19.4966 56.9543 18.0285C57.3671 17.4277 57.7798 16.8216 58.1926 16.2208C58.8718 15.2281 59.5719 14.204 60.2668 13.2061L60.3033 13.1539V13.0912C60.319 12.9083 60.3242 12.5321 60.0212 12.3336ZM55.1727 14.5332C54.2009 15.04 53.2082 15.5624 52.2103 16.0797C52.7902 15.458 53.3754 14.831 53.9553 14.2092C54.6816 13.4255 55.4391 12.6157 56.1811 11.8216L56.1967 11.8059C56.2594 11.7223 56.3378 11.6439 56.4214 11.5603C56.4789 11.5029 56.5416 11.4454 56.599 11.3775C56.9857 11.6439 57.3775 11.9156 57.7537 12.1821C58.0254 12.3754 58.3023 12.5687 58.5844 12.762C57.435 13.3472 56.2856 13.948 55.1727 14.5332ZM52.6753 14.2824C51.9282 15.0922 51.1549 15.9229 50.3869 16.7432C48.8978 14.9355 47.3774 13.1016 45.9041 11.3304C45.2353 10.5258 44.5613 9.71601 43.8926 8.91141L43.8873 8.90618C43.7358 8.73377 43.5895 8.54568 43.4433 8.36804C43.3492 8.24787 43.2499 8.13293 43.1507 8.01276C43.7567 8.1695 44.368 8.31579 44.9689 8.45686C45.4966 8.58225 46.0451 8.71287 46.5833 8.84871C49.6136 9.58539 52.6492 10.3221 55.6795 11.0588C54.6711 12.135 53.6575 13.227 52.6753 14.2824ZM50.0473 24.4653C50.1047 23.9167 50.1674 23.3525 50.2197 22.7986C50.2667 22.3545 50.3137 21.9 50.3607 21.4663C50.4339 20.7715 50.5123 20.0505 50.575 19.3451L50.5906 19.2197C50.6429 18.7704 50.6951 18.3054 50.7265 17.8404C50.7839 17.8091 50.8466 17.7777 50.9146 17.7516C50.9929 17.715 51.0713 17.6837 51.1497 17.6366C52.3566 17.0045 53.5635 16.3723 54.7756 15.7453C55.9825 15.1183 57.2208 14.4705 58.4486 13.8278C57.3305 15.4475 56.2072 17.0828 55.1204 18.6764C54.1852 20.04 53.2239 21.4454 52.2678 22.83C51.8916 23.3838 51.4997 23.9481 51.1288 24.4914C50.7108 25.0975 50.2824 25.7192 49.8644 26.341C49.9166 25.714 49.9793 25.0818 50.0473 24.4653ZM42.764 9.24579C42.6961 9.0577 42.623 8.86439 42.5603 8.68152C43.9709 10.3848 45.3921 12.0985 46.7766 13.7599C47.4924 14.622 48.2082 15.4788 48.924 16.3461C49.065 16.5081 49.2061 16.6805 49.3419 16.8477C49.5196 17.0619 49.6972 17.2866 49.8905 17.5008C49.8278 18.0389 49.7756 18.5823 49.7181 19.1048C49.6815 19.4705 49.645 19.8362 49.6032 20.2072V20.2124C49.5875 20.4475 49.5561 20.6826 49.53 20.9125C49.4934 21.2312 49.4099 21.9522 49.4099 21.9522L49.4046 21.9888C49.3106 23.0442 49.1956 24.11 49.0859 25.1445C49.0389 25.573 48.9971 26.0118 48.9501 26.4507C48.924 26.3723 48.8926 26.294 48.8665 26.2208C48.7881 26.0118 48.7097 25.7924 48.6366 25.5782L48.0776 24.0264C46.3064 19.0996 44.5352 14.1779 42.764 9.24579Z" fill="white"/>
<path d="M49 16.5C49 25.3368 41.8368 32.5 33 32.5C24.1635 32.5 17 25.3368 17 16.5C17 7.66336 24.1635 0.5 33 0.5C41.8368 0.5 49 7.66336 49 16.5Z" fill="#1BA27A"/>
<path d="M40.5098 8.56818H25.3594V12.2258H31.1058V17.6018H34.7634V12.2258H40.5098V8.56818Z" fill="white"/>
<path d="M32.9687 18.1744C28.2151 18.1744 24.3612 17.4221 24.3612 16.4939C24.3612 15.5659 28.2149 14.8134 32.9687 14.8134C37.7223 14.8134 41.576 15.5659 41.576 16.4939C41.576 17.4221 37.7223 18.1744 32.9687 18.1744ZM42.6335 16.7741C42.6335 15.5773 38.3064 14.6072 32.9687 14.6072C27.6311 14.6072 23.3037 15.5773 23.3037 16.7741C23.3037 17.828 26.6591 18.7061 31.1053 18.9006V26.6181H34.7626V18.9037C39.2431 18.7152 42.6335 17.8334 42.6335 16.7741Z" fill="white"/>
<g clip-path="url(#clip1_1565_2366)">
<path d="M31.9999 16.5C31.9999 25.336 24.8359 32.5 15.9961 32.5013C7.16273 32.5013 -0.00127952 25.336 6.86099e-07 16.4987C-0.00255972 7.66146 7.16145 0.497437 15.9987 0.497437C24.8359 0.497437 31.9999 7.66274 31.9999 16.5Z" fill="#EAB300"/>
<path d="M22.2948 12.58C22.0887 10.4369 20.2388 9.71872 17.9012 9.51388V6.53996H16.0923V9.43451C15.6173 9.43451 15.1308 9.44347 14.6482 9.45371V6.53996H12.8393L12.838 9.51132C12.4463 9.519 12.0609 9.52669 11.6858 9.52669V9.51772L9.19073 9.51644V11.4496C9.19073 11.4496 10.5273 11.424 10.5042 11.4483C11.2378 11.4483 11.4759 11.8733 11.545 12.2407V15.6282C11.5962 15.6282 11.6615 15.6307 11.7358 15.641H11.545L11.5437 20.3867C11.5117 20.6171 11.376 20.9845 10.864 20.9858C10.887 21.0063 9.54919 20.9858 9.54919 20.9858L9.18945 23.1468H11.545C11.9828 23.1468 12.4143 23.1545 12.8367 23.1571L12.838 26.1643H14.6457V23.1891C15.1411 23.1993 15.6212 23.2031 16.091 23.2031L16.0897 26.1643H17.8986V23.1635C20.9404 22.9893 23.0719 22.2225 23.3356 19.3651C23.5494 17.0645 22.4677 16.0365 20.7407 15.6218C21.7917 15.0892 22.4485 14.1482 22.2948 12.58ZM19.7626 19.0092C19.7626 21.2559 15.9156 21.0012 14.6879 21.0012V17.0159C15.9156 17.0185 19.7626 16.6664 19.7626 19.0092ZM18.9202 13.3878C18.9202 15.4323 15.7095 15.1929 14.6879 15.1942V11.5814C15.7108 11.5814 18.9215 11.2562 18.9202 13.3878Z" fill="white"/>
<path d="M11.5479 15.5488H11.8167V15.7472H11.5479V15.5488Z" fill="white"/>
</g>
<defs>
<clipPath id="clip0_1565_2366">
<rect width="32" height="32" fill="white" transform="translate(51 0.5)"/>
</clipPath>
<clipPath id="clip1_1565_2366">
<rect width="32" height="32.0051" fill="white" transform="translate(0 0.497437)"/>
</clipPath>
</defs>
</svg>
