<svg width="35" height="36" viewBox="0 0 35 36" fill="none" xmlns="http://www.w3.org/2000/svg">
<g clip-path="url(#clip0_1530_20144)">
<path d="M17.5 35.5C27.165 35.5 35 27.665 35 18C35 8.33502 27.165 0.5 17.5 0.5C7.83502 0.5 0 8.33502 0 18C0 27.665 7.83502 35.5 17.5 35.5Z" fill="#0052B4"/>
<path d="M17.4997 7.34784L18.0663 9.09162H19.8997L18.4164 10.1693L18.983 11.9131L17.4997 10.8353L16.0163 11.9131L16.5829 10.1693L15.0996 9.09162H16.9331L17.4997 7.34784Z" fill="#FFDA44"/>
<path d="M9.96786 10.4677L11.6017 11.3001L12.8981 10.0037L12.6112 11.8146L14.2449 12.647L12.434 12.9338L12.1472 14.7448L11.3147 13.1111L9.50391 13.398L10.8003 12.1015L9.96786 10.4677Z" fill="#FFDA44"/>
<path d="M6.84766 18L8.59144 17.4334V15.5999L9.66905 17.0833L11.4129 16.5167L10.3351 18L11.4129 19.4833L9.66905 18.9168L8.59144 20.4001V18.5666L6.84766 18Z" fill="#FFDA44"/>
<path d="M9.96786 25.5323L10.8003 23.8985L9.50391 22.602L11.3148 22.889L12.1471 21.2553L12.434 23.0662L14.2448 23.353L12.6113 24.1854L12.8981 25.9963L11.6017 24.6998L9.96786 25.5323Z" fill="#FFDA44"/>
<path d="M17.4997 28.6522L16.933 26.9084H15.0996L16.583 25.8307L16.0163 24.0871L17.4997 25.1647L18.983 24.0871L18.4164 25.8307L19.8997 26.9084H18.0663L17.4997 28.6522Z" fill="#FFDA44"/>
<path d="M25.0318 25.5323L23.3981 24.6999L22.1016 25.9963L22.3885 24.1854L20.7549 23.353L22.5657 23.0662L22.8526 21.2553L23.6849 22.889L25.4957 22.602L24.1993 23.8986L25.0318 25.5323Z" fill="#FFDA44"/>
<path d="M28.152 18L26.4082 18.5666V20.4001L25.3306 18.9167L23.5869 19.4833L24.6646 18L23.5869 16.5167L25.3306 17.0833L26.4082 15.5999V17.4335L28.152 18Z" fill="#FFDA44"/>
<path d="M25.0318 10.4678L24.1994 12.1016L25.4958 13.398L23.6848 13.111L22.8526 14.7447L22.5657 12.9338L20.7549 12.6469L22.3885 11.8146L22.1016 10.0038L23.3981 11.3002L25.0318 10.4678Z" fill="#FFDA44"/>
</g>
<defs>
<clipPath id="clip0_1530_20144">
<rect width="35" height="35" fill="white" transform="translate(0 0.5)"/>
</clipPath>
</defs>
</svg>
